{"glyphs":{"0":{"ha":656,"x_min":60,"x_max":594,"o":"m 594 496 q 579 281 594 375 q 532 121 564 186 q 449 21 500 56 q 326 -14 399 -14 q 181 35 240 -14 q 91 197 122 85 q 60 496 60 310 q 88 778 60 665 q 176 949 117 892 q 326 1006 235 1006 q 477 949 418 1006 q 565 778 536 892 q 594 496 594 664 m 179 496 q 194 270 179 360 q 242 136 210 181 q 326 92 274 92 q 412 136 379 92 q 460 271 444 181 q 475 496 475 361 q 460 722 475 632 q 412 856 444 811 q 326 901 379 901 q 242 856 274 901 q 194 722 210 811 q 179 496 179 632 z "},"1":{"ha":656,"x_min":97,"x_max":433,"o":"m 433 0 l 317 0 l 317 675 q 317 738 317 708 q 319 798 318 768 q 322 857 321 828 q 294 826 310 843 q 254 786 279 810 l 163 703 l 97 776 l 333 992 l 433 992 l 433 0 z "},"2":{"ha":656,"x_min":51,"x_max":588,"o":"m 588 0 l 51 0 l 51 90 l 267 371 q 370 514 332 454 q 426 628 408 574 q 443 747 443 683 q 405 860 443 818 q 299 901 367 901 q 206 883 247 901 q 122 825 165 864 l 60 906 q 135 961 97 939 q 215 994 172 983 q 306 1006 257 1006 q 443 974 386 1006 q 531 886 500 943 q 563 753 563 829 q 540 608 563 674 q 475 476 518 542 q 369 333 432 411 l 193 111 l 193 106 l 588 106 l 588 0 z "},"3":{"ha":656,"x_min":54,"x_max":585,"o":"m 564 763 q 543 653 564 701 q 483 572 522 606 q 388 521 444 539 l 388 515 q 535 436 485 499 q 585 275 585 374 q 551 125 585 190 q 449 23 517 60 q 281 -14 381 -14 q 160 -3 214 -14 q 56 31 106 7 l 56 146 q 162 103 106 118 q 272 88 218 88 q 417 140 371 88 q 463 279 463 193 q 437 380 463 340 q 361 440 411 419 q 238 461 311 461 l 174 461 l 174 563 l 242 563 q 352 586 307 563 q 422 653 397 610 q 446 751 446 696 q 408 865 446 825 q 300 904 369 904 q 229 896 261 904 q 169 870 197 888 q 111 829 142 853 l 54 911 q 170 982 108 958 q 310 1006 232 1006 q 498 939 432 1006 q 564 763 564 872 z "},"4":{"ha":656,"x_min":25,"x_max":633,"o":"m 633 218 l 518 218 l 518 0 l 403 0 l 403 218 l 25 218 l 25 315 l 393 999 l 518 999 l 518 319 l 633 319 l 633 218 m 403 678 q 403 725 403 701 q 406 772 404 749 q 407 816 407 794 q 408 854 407 838 l 403 854 q 378 794 392 824 q 353 738 365 764 l 133 319 l 403 319 l 403 678 z "},"5":{"ha":656,"x_min":74,"x_max":589,"o":"m 319 610 q 463 574 403 610 q 556 472 524 538 q 589 318 589 407 q 553 144 589 219 q 447 27 517 68 q 278 -14 378 -14 q 164 -3 215 -14 q 74 32 113 8 l 74 147 q 169 104 117 119 q 272 89 222 89 q 380 117 336 89 q 446 197 424 146 q 468 313 468 247 q 420 460 468 410 q 279 510 372 510 q 208 503 246 510 q 138 488 169 497 l 86 531 l 118 992 l 531 992 l 531 885 l 218 885 l 197 596 q 256 606 225 603 q 319 610 288 610 z "},"6":{"ha":656,"x_min":65,"x_max":596,"o":"m 65 422 q 77 614 65 525 q 115 775 89 703 q 182 899 140 847 q 285 978 224 950 q 428 1006 346 1006 q 486 1002 457 1006 q 538 992 515 999 l 538 888 q 488 900 514 896 q 432 904 461 904 q 322 877 368 904 q 245 799 275 850 q 199 676 215 749 q 181 513 183 604 l 186 513 q 228 573 203 547 q 289 613 254 599 q 365 626 324 626 q 492 586 440 626 q 569 476 543 546 q 596 315 596 406 q 566 147 596 221 q 479 29 536 72 q 339 -14 422 -14 q 226 14 276 -14 q 139 97 175 42 q 84 234 103 153 q 65 422 65 315 m 338 90 q 441 145 403 90 q 479 314 479 200 q 444 470 479 415 q 339 525 408 525 q 256 500 290 525 q 203 435 221 475 q 185 351 185 396 q 194 262 185 307 q 222 178 203 217 q 269 115 240 139 q 338 90 297 90 z "},"7":{"ha":656,"x_min":49,"x_max":600,"o":"m 147 0 l 479 883 l 49 883 l 49 992 l 600 992 l 600 903 l 272 0 l 147 0 z "},"8":{"ha":656,"x_min":53,"x_max":603,"o":"m 329 1006 q 461 978 406 1006 q 547 897 517 950 q 578 772 578 844 q 558 671 578 717 q 502 588 539 625 q 413 519 465 550 q 510 449 468 488 q 578 364 553 411 q 603 253 603 317 q 569 113 603 174 q 476 19 536 53 q 333 -14 415 -14 q 181 18 243 -14 q 85 108 118 50 q 53 247 53 167 q 74 357 53 308 q 134 445 94 406 q 229 517 174 485 q 148 590 181 551 q 97 674 115 629 q 79 771 79 719 q 111 897 79 844 q 199 977 143 949 q 329 1006 254 1006 m 169 246 q 210 130 169 176 q 328 83 250 83 q 446 131 406 83 q 486 253 486 178 q 469 326 486 293 q 420 390 453 360 q 340 449 388 421 l 314 465 q 232 404 264 436 q 185 334 200 372 q 169 246 169 296 m 326 908 q 231 870 268 908 q 194 765 194 832 q 210 686 194 721 q 257 625 226 651 q 328 574 288 599 q 401 626 372 599 q 446 688 431 654 q 461 765 461 722 q 425 870 461 832 q 326 908 389 908 z "},"9":{"ha":656,"x_min":57,"x_max":588,"o":"m 588 576 q 576 382 588 472 q 537 219 564 292 q 467 94 510 146 q 364 14 425 42 q 222 -14 303 -14 q 163 -10 196 -14 q 110 0 131 -6 l 110 106 q 160 92 132 97 q 219 88 189 88 q 337 119 289 88 q 413 206 385 151 q 456 331 442 261 q 472 478 469 401 l 465 478 q 423 419 449 444 q 363 379 397 393 q 286 365 329 365 q 161 406 213 365 q 83 517 110 447 q 57 676 57 586 q 87 846 57 772 q 175 963 117 919 q 319 1006 233 1006 q 431 978 381 1006 q 515 896 481 950 q 569 761 550 842 q 588 576 588 681 m 318 901 q 213 846 250 901 q 175 678 175 790 q 210 521 175 575 q 314 467 244 467 q 398 493 364 467 q 450 561 432 519 q 468 649 468 603 q 461 730 468 686 q 436 813 454 774 q 389 877 418 853 q 318 901 360 901 z "},"\u0000":{"ha":0,"x_min":0,"x_max":0,"o":""},"\r":{"ha":288,"x_min":0,"x_max":0,"o":""}," ":{"ha":288,"x_min":0,"x_max":0,"o":""},"!":{"ha":340,"x_min":92,"x_max":249,"o":"m 211 279 l 129 279 l 100 992 l 240 992 l 211 279 m 92 76 q 113 144 92 122 q 171 167 133 167 q 227 146 206 167 q 249 76 249 125 q 226 8 249 29 q 171 -14 203 -14 q 113 8 135 -14 q 92 76 92 31 z "},"\"":{"ha":539,"x_min":83,"x_max":456,"o":"m 214 992 l 190 633 l 108 633 l 83 992 l 214 992 m 456 992 l 432 633 l 350 633 l 325 992 l 456 992 z "},"#":{"ha":717,"x_min":29,"x_max":689,"o":"m 543 618 l 511 389 l 653 389 l 653 299 l 497 299 l 454 0 l 364 0 l 407 299 l 251 299 l 210 0 l 121 0 l 163 299 l 29 299 l 29 389 l 175 389 l 208 618 l 67 618 l 67 708 l 221 708 l 261 992 l 351 992 l 311 708 l 467 708 l 508 992 l 596 992 l 556 708 l 689 708 l 689 618 l 543 618 m 265 389 l 419 389 l 453 618 l 297 618 l 265 389 z "},"$":{"ha":656,"x_min":65,"x_max":594,"o":"m 290 71 q 165 85 224 72 q 65 117 106 97 l 65 228 q 167 188 107 204 q 290 169 226 171 l 290 463 q 160 524 210 492 q 88 601 111 557 q 65 708 65 646 q 93 823 65 774 q 172 901 121 872 q 290 936 222 931 l 290 1056 l 364 1056 l 364 939 q 475 924 424 936 q 572 889 526 911 l 539 794 q 456 824 500 814 q 364 839 413 835 l 364 546 q 492 485 442 517 q 569 412 543 454 q 594 307 594 369 q 534 154 594 215 q 364 76 474 93 l 364 -81 l 290 -81 l 290 71 m 364 175 q 458 219 428 185 q 489 300 489 253 q 476 358 489 333 q 437 400 464 382 q 364 435 410 418 l 364 175 m 290 836 q 224 815 251 832 q 184 773 197 799 q 171 714 171 747 q 182 653 171 678 q 219 610 193 628 q 290 575 246 592 l 290 836 z "},"%":{"ha":992,"x_min":60,"x_max":933,"o":"m 233 1006 q 364 925 318 1006 q 410 696 410 844 q 365 465 410 547 q 233 383 319 383 q 104 466 149 383 q 60 696 60 549 q 103 925 60 844 q 233 1006 146 1006 m 232 921 q 172 865 190 921 q 154 696 154 808 q 172 526 154 583 q 233 469 190 469 q 294 526 275 469 q 313 696 313 582 q 292 865 313 810 q 232 921 272 921 m 747 992 l 339 0 l 243 0 l 651 992 l 747 992 m 757 610 q 888 528 842 610 q 933 300 933 447 q 888 69 933 150 q 757 -12 843 -12 q 628 70 674 -12 q 583 300 583 153 q 627 531 583 451 q 757 610 671 610 m 756 525 q 697 469 715 525 q 679 300 679 413 q 697 129 679 186 q 757 72 715 72 q 817 129 799 72 q 836 300 836 186 q 817 468 836 411 q 756 525 797 525 z "},"&":{"ha":768,"x_min":50,"x_max":769,"o":"m 326 1006 q 430 981 388 1006 q 494 910 472 957 q 517 796 517 863 q 479 647 517 711 q 371 526 442 582 l 550 283 q 588 372 574 322 q 607 479 601 421 l 724 479 q 690 327 715 406 q 622 189 664 249 l 769 0 l 625 0 l 547 106 q 475 42 513 69 q 392 0 438 14 q 290 -14 347 -14 q 158 20 211 -14 q 77 114 104 54 q 50 253 50 174 q 69 367 50 317 q 126 459 88 417 q 222 542 165 501 q 174 624 194 585 q 141 706 153 664 q 129 799 129 749 q 153 910 129 864 q 222 981 178 956 q 326 1006 267 1006 m 282 465 q 218 406 243 436 q 181 340 193 375 q 169 257 169 304 q 206 136 169 181 q 303 92 242 92 q 403 118 360 92 q 482 192 446 144 l 282 465 m 324 913 q 264 883 286 913 q 242 797 242 853 q 260 697 242 749 q 311 603 278 646 q 385 691 364 643 q 407 799 407 739 q 385 883 407 853 q 324 913 363 913 z "},"'":{"ha":296,"x_min":83,"x_max":214,"o":"m 214 992 l 190 633 l 108 633 l 83 992 l 214 992 z "},"(":{"ha":408,"x_min":64,"x_max":367,"o":"m 64 383 q 87 610 64 500 q 154 818 110 719 q 264 997 199 917 l 367 997 q 228 706 275 863 q 181 385 181 550 q 202 171 181 276 q 265 -34 224 65 q 365 -219 306 -133 l 264 -219 q 153 -43 197 -139 q 86 161 108 53 q 64 383 64 269 z "},")":{"ha":408,"x_min":40,"x_max":343,"o":"m 343 383 q 321 161 343 269 q 254 -43 299 53 q 144 -219 210 -139 l 42 -219 q 143 -33 101 -132 q 206 172 185 65 q 226 385 226 278 q 206 603 226 497 q 143 809 185 710 q 40 997 101 908 l 144 997 q 254 817 210 917 q 321 608 299 718 q 343 383 343 499 z "},"*":{"ha":615,"x_min":51,"x_max":563,"o":"m 368 1057 l 346 850 l 542 908 l 563 793 l 371 779 l 503 604 l 400 546 l 307 738 l 215 546 l 113 604 l 242 779 l 51 793 l 74 907 l 268 850 l 246 1057 l 368 1057 z "},"+":{"ha":657,"x_min":50,"x_max":604,"o":"m 376 538 l 604 538 l 604 442 l 376 442 l 376 163 l 279 163 l 279 442 l 50 442 l 50 538 l 279 538 l 279 819 l 376 819 l 376 538 z "},",":{"ha":332,"x_min":51,"x_max":249,"o":"m 249 144 q 219 33 236 89 q 181 -78 201 -24 q 139 -182 161 -132 l 51 -182 q 79 -67 67 -126 q 101 51 92 -7 q 117 160 111 110 l 239 160 l 249 144 z "},"-":{"ha":400,"x_min":43,"x_max":357,"o":"m 43 318 l 43 429 l 357 429 l 357 318 l 43 318 z "},".":{"ha":332,"x_min":88,"x_max":244,"o":"m 88 76 q 108 144 88 122 q 165 167 129 167 q 222 146 200 167 q 244 76 244 125 q 222 8 244 29 q 165 -14 200 -14 q 109 8 131 -14 q 88 76 88 31 z "},"/":{"ha":515,"x_min":22,"x_max":499,"o":"m 499 994 l 133 -3 l 22 -3 l 389 994 l 499 994 z "},":":{"ha":333,"x_min":89,"x_max":244,"o":"m 89 76 q 109 144 89 122 q 167 167 129 167 q 223 146 201 167 q 244 76 244 125 q 222 8 244 29 q 167 -14 200 -14 q 110 8 131 -14 q 89 76 89 31 m 89 664 q 109 733 89 711 q 167 754 129 754 q 224 733 203 754 q 244 664 244 711 q 222 594 244 617 q 167 572 200 572 q 110 595 131 572 q 89 664 89 618 z "},";":{"ha":333,"x_min":49,"x_max":246,"o":"m 246 144 q 215 33 233 89 q 178 -78 197 -24 q 136 -182 158 -132 l 49 -182 q 69 -96 58 -140 q 88 -7 79 -51 q 103 80 96 38 q 114 160 110 122 l 236 160 l 246 144 m 88 664 q 108 733 88 711 q 165 754 129 754 q 223 733 201 754 q 244 664 244 711 q 222 594 244 617 q 165 572 199 572 q 108 595 129 572 q 88 664 88 618 z "},"<":{"ha":657,"x_min":49,"x_max":606,"o":"m 606 176 l 49 457 l 49 525 l 606 815 l 606 707 l 178 492 l 606 285 l 606 176 z "},"=":{"ha":657,"x_min":53,"x_max":601,"o":"m 53 586 l 53 682 l 601 682 l 601 586 l 53 586 m 53 296 l 53 392 l 601 392 l 601 296 l 53 296 z "},">":{"ha":657,"x_min":50,"x_max":607,"o":"m 50 285 l 478 492 l 50 707 l 50 815 l 607 525 l 607 457 l 50 176 l 50 285 z "},"?":{"ha":490,"x_min":17,"x_max":458,"o":"m 154 318 q 161 406 154 368 q 188 478 168 444 q 240 549 207 513 q 302 626 279 593 q 335 692 325 660 q 344 765 344 725 q 313 867 344 832 q 222 901 281 901 q 136 887 174 901 q 60 849 99 872 l 17 940 q 117 989 64 972 q 228 1006 169 1006 q 399 944 339 1006 q 458 774 458 883 q 444 669 458 713 q 402 586 431 625 q 329 497 374 547 q 278 431 297 460 q 253 373 260 401 q 246 306 246 344 l 246 279 l 154 279 l 154 318 m 125 76 q 146 144 125 122 q 203 167 167 167 q 259 146 238 167 q 281 76 281 125 q 258 8 281 29 q 203 -14 236 -14 q 146 8 167 -14 q 125 76 125 31 z "},"@":{"ha":1007,"x_min":71,"x_max":939,"o":"m 939 501 q 926 360 939 424 q 890 251 914 296 q 829 181 865 206 q 746 156 793 156 q 657 190 688 156 q 619 281 626 224 l 613 281 q 560 188 594 219 q 472 156 525 156 q 346 223 390 156 q 301 408 301 290 q 329 581 301 510 q 408 690 357 651 q 535 728 460 728 q 619 720 576 728 q 693 700 661 713 l 681 413 q 679 372 679 390 q 679 344 679 354 q 698 263 679 286 q 746 240 717 240 q 801 270 779 240 q 835 359 824 300 q 846 503 846 418 q 806 720 846 628 q 697 864 767 813 q 535 914 628 915 q 369 870 439 914 q 253 753 299 826 q 187 590 208 681 q 165 404 165 499 q 201 178 165 278 q 308 22 236 79 q 492 -35 381 -35 q 613 -19 554 -35 q 717 19 671 -3 l 717 -69 q 613 -106 668 -93 q 489 -118 558 -118 q 263 -58 356 -118 q 120 117 169 1 q 71 396 71 232 q 103 642 71 531 q 197 833 136 754 q 344 956 258 913 q 535 997 429 999 q 701 960 626 997 q 830 856 776 922 q 911 698 883 789 q 939 501 939 607 m 400 406 q 423 281 400 322 q 488 240 446 240 q 555 295 533 240 q 582 461 576 350 l 592 639 q 564 645 579 643 q 529 647 549 647 q 458 617 488 647 q 415 533 429 588 q 400 406 400 479 z "},"A":{"ha":704,"x_min":0,"x_max":703,"o":"m 578 0 l 492 308 l 211 308 l 125 0 l 0 0 l 285 993 l 417 993 l 703 0 l 578 0 m 381 736 q 369 783 376 757 q 358 835 363 808 q 349 881 353 861 q 341 832 346 857 q 331 783 336 807 q 319 736 325 760 l 236 418 l 465 418 l 381 736 z "},"B":{"ha":735,"x_min":111,"x_max":674,"o":"m 350 992 q 574 933 499 992 q 650 751 650 875 q 632 642 650 689 q 579 566 614 596 q 493 525 544 536 l 493 519 q 592 479 551 508 q 653 402 632 450 q 674 283 674 354 q 641 133 674 197 q 546 35 608 69 q 394 0 483 0 l 111 0 l 111 992 l 350 992 m 357 568 q 489 610 450 568 q 528 739 528 653 q 484 853 528 815 q 350 890 440 890 l 231 890 l 231 568 l 357 568 m 231 467 l 231 103 l 378 103 q 509 151 468 103 q 550 290 550 200 q 530 387 550 347 q 469 447 510 426 q 365 467 428 467 l 231 467 z "},"C":{"ha":697,"x_min":74,"x_max":661,"o":"m 451 900 q 340 869 388 900 q 261 782 293 838 q 214 653 229 726 q 199 496 199 581 q 228 281 199 372 q 317 142 258 190 q 456 93 375 93 q 549 103 506 93 q 632 131 592 114 l 632 25 q 546 -4 592 6 q 442 -14 500 -14 q 243 48 325 -14 q 117 224 161 110 q 74 497 74 339 q 97 697 74 604 q 168 860 121 790 q 286 968 215 929 q 449 1007 357 1007 q 560 994 507 1007 q 661 954 614 981 l 617 853 q 540 887 582 874 q 451 900 499 900 z "},"D":{"ha":806,"x_min":111,"x_max":733,"o":"m 733 507 q 687 228 733 340 q 551 58 640 115 q 335 0 463 0 l 111 0 l 111 992 l 349 992 q 558 937 472 992 q 688 774 643 882 q 733 507 733 667 m 607 503 q 576 717 607 632 q 487 844 546 801 q 340 886 428 886 l 231 886 l 231 106 l 326 106 q 539 206 471 106 q 607 503 607 306 z "},"E":{"ha":622,"x_min":111,"x_max":554,"o":"m 554 0 l 111 0 l 111 992 l 554 992 l 554 886 l 231 886 l 231 571 l 535 571 l 535 465 l 231 465 l 231 107 l 554 107 l 554 0 z "},"F":{"ha":586,"x_min":111,"x_max":554,"o":"m 231 0 l 111 0 l 111 992 l 554 992 l 554 886 l 231 886 l 231 529 l 535 529 l 535 422 l 231 422 l 231 0 z "},"G":{"ha":833,"x_min":74,"x_max":750,"o":"m 469 524 l 750 524 l 750 36 q 613 -1 683 11 q 464 -14 542 -14 q 246 52 332 -14 q 117 233 160 118 q 74 497 74 349 q 121 763 74 649 q 260 941 168 876 q 490 1006 353 1006 q 622 990 560 1006 q 738 943 683 974 l 694 842 q 596 885 647 869 q 490 900 544 900 q 332 853 397 900 q 233 715 267 806 q 199 496 199 625 q 227 289 199 381 q 317 145 256 197 q 479 93 379 93 q 564 99 526 93 q 632 114 601 104 l 632 418 l 469 418 l 469 524 z "},"H":{"ha":826,"x_min":111,"x_max":717,"o":"m 717 0 l 597 0 l 597 464 l 231 464 l 231 0 l 111 0 l 111 992 l 231 992 l 231 571 l 597 571 l 597 992 l 717 992 l 717 0 z "},"I":{"ha":417,"x_min":50,"x_max":365,"o":"m 365 0 l 50 0 l 50 68 l 147 93 l 147 899 l 50 924 l 50 992 l 365 992 l 365 924 l 267 899 l 267 93 l 365 68 l 365 0 z "},"J":{"ha":332,"x_min":-81,"x_max":225,"o":"m 14 -267 q -37 -263 -14 -267 q -81 -251 -61 -260 l -81 -146 q -40 -156 -61 -151 q 4 -160 -19 -160 q 59 -144 36 -160 q 94 -92 82 -128 q 107 7 107 -56 l 107 992 l 225 992 l 225 4 q 200 -153 225 -93 q 128 -240 175 -212 q 14 -267 81 -267 z "},"K":{"ha":693,"x_min":111,"x_max":696,"o":"m 696 0 l 561 0 l 311 463 l 231 378 l 231 0 l 111 0 l 111 992 l 231 992 l 231 497 q 275 565 249 525 q 335 654 301 604 l 551 992 l 683 992 l 393 554 l 696 0 z "},"L":{"ha":579,"x_min":111,"x_max":551,"o":"m 111 0 l 111 992 l 231 992 l 231 107 l 551 107 l 551 0 l 111 0 z "},"M":{"ha":1076,"x_min":111,"x_max":967,"o":"m 483 0 l 221 843 l 215 843 q 220 763 218 803 q 223 689 222 724 q 224 626 224 654 l 224 0 l 111 0 l 111 992 l 282 992 l 536 181 l 540 181 l 794 992 l 967 992 l 967 0 l 850 0 l 850 626 q 851 690 850 656 q 853 763 851 724 q 857 843 856 801 l 851 843 l 588 0 l 483 0 z "},"N":{"ha":869,"x_min":111,"x_max":760,"o":"m 760 0 l 617 0 l 219 813 l 214 813 q 219 739 217 776 q 222 665 221 701 q 224 592 224 628 l 224 0 l 111 0 l 111 992 l 254 992 l 650 189 l 654 189 q 651 262 653 224 q 648 338 649 300 q 647 407 647 376 l 647 992 l 760 992 l 760 0 z "},"O":{"ha":860,"x_min":74,"x_max":788,"o":"m 788 497 q 767 294 788 388 q 702 132 746 201 q 591 24 658 63 q 431 -14 524 -14 q 268 26 336 -14 q 157 134 200 65 q 94 297 114 203 q 74 499 74 390 q 113 776 74 663 q 233 947 153 889 q 432 1006 313 1006 q 634 939 556 1006 q 750 758 713 872 q 788 497 788 643 m 199 497 q 224 276 199 367 q 301 140 250 186 q 431 93 353 93 q 559 139 508 93 q 635 275 610 185 q 661 497 661 365 q 605 797 661 694 q 432 899 549 899 q 301 853 353 899 q 224 717 249 807 q 199 497 199 628 z "},"P":{"ha":683,"x_min":111,"x_max":632,"o":"m 318 992 q 556 918 479 992 q 632 699 632 844 q 613 569 632 628 q 555 470 594 511 q 455 408 515 429 q 310 386 394 386 l 231 386 l 231 0 l 111 0 l 111 992 l 318 992 m 313 888 l 231 888 l 231 490 l 297 490 q 417 511 371 490 q 486 578 464 532 q 508 696 508 624 q 461 842 508 797 q 313 888 414 888 z "},"Q":{"ha":860,"x_min":74,"x_max":788,"o":"m 788 497 q 763 275 788 372 q 690 113 738 178 q 572 15 643 47 l 750 -236 l 599 -236 l 456 -11 q 442 -13 450 -12 q 426 -14 433 -14 q 265 26 332 -14 q 156 135 199 65 q 94 299 114 206 q 74 499 74 392 q 113 776 74 663 q 233 947 153 889 q 432 1006 313 1006 q 626 947 547 1006 q 747 775 706 889 q 788 497 788 661 m 199 497 q 224 276 199 367 q 301 140 250 186 q 431 93 353 93 q 559 139 508 93 q 635 275 610 185 q 661 497 661 365 q 605 797 661 694 q 432 899 549 899 q 301 853 353 899 q 224 717 249 807 q 199 497 199 628 z "},"R":{"ha":707,"x_min":111,"x_max":689,"o":"m 315 992 q 494 960 425 992 q 598 867 564 929 q 632 711 632 806 q 613 590 632 642 q 556 503 593 539 q 467 444 519 468 l 689 0 l 554 0 l 358 414 l 231 414 l 231 0 l 111 0 l 111 992 l 315 992 m 315 885 l 231 885 l 231 514 l 325 514 q 463 562 417 514 q 510 706 510 610 q 489 810 510 771 q 425 867 468 849 q 315 885 382 885 z "},"S":{"ha":631,"x_min":58,"x_max":574,"o":"m 574 271 q 538 122 574 185 q 438 22 503 58 q 285 -14 372 -14 q 199 -9 240 -14 q 123 6 158 -4 q 58 31 88 17 l 58 151 q 166 110 106 125 q 283 96 226 96 q 376 117 339 96 q 434 176 414 139 q 454 260 454 214 q 438 342 454 308 q 382 403 421 375 q 276 460 343 431 q 188 510 226 483 q 122 569 149 536 q 81 645 94 601 q 67 747 67 689 q 101 883 65 825 q 198 974 136 942 q 339 1006 260 1007 q 460 991 404 1006 q 561 956 517 976 l 522 849 q 432 883 478 871 q 340 896 386 896 q 257 877 290 896 q 206 826 224 858 q 188 750 188 793 q 203 667 188 700 q 258 608 219 633 q 360 550 296 582 q 478 478 431 518 q 550 388 526 439 q 574 271 574 338 z "},"T":{"ha":601,"x_min":14,"x_max":586,"o":"m 360 0 l 240 0 l 240 885 l 14 885 l 14 992 l 586 992 l 586 885 l 360 885 l 360 0 z "},"U":{"ha":813,"x_min":103,"x_max":708,"o":"m 708 322 q 675 138 708 213 q 574 25 642 64 q 406 -14 507 -14 q 181 72 258 -14 q 103 322 103 157 l 103 992 l 222 992 l 222 321 q 269 149 222 204 q 407 93 317 93 q 510 118 469 93 q 569 194 550 143 q 589 322 589 244 l 589 992 l 708 992 l 708 322 z "},"V":{"ha":679,"x_min":0,"x_max":679,"o":"m 679 992 l 404 0 l 272 0 l 0 992 l 125 992 l 297 331 q 313 265 306 299 q 327 198 321 231 q 338 133 333 165 q 349 198 343 165 q 364 265 356 231 q 381 333 372 300 l 554 992 l 679 992 z "},"W":{"ha":1086,"x_min":8,"x_max":1078,"o":"m 1078 992 l 857 0 l 722 0 l 575 638 q 567 677 572 654 q 558 725 563 700 q 550 778 554 750 q 542 832 546 806 q 537 791 540 814 q 529 742 533 768 q 519 689 525 715 q 508 638 514 663 l 365 0 l 232 0 l 8 992 l 131 992 l 261 385 q 274 315 268 349 q 286 249 281 281 q 296 190 292 218 q 301 139 300 163 q 310 200 306 169 q 322 262 315 231 q 333 324 328 293 q 346 385 339 356 l 485 992 l 600 992 l 740 383 q 752 326 746 356 q 764 265 758 296 q 774 203 769 235 q 783 139 779 172 q 795 224 789 182 q 809 306 801 265 q 825 385 817 347 l 957 992 l 1078 992 z "},"X":{"ha":633,"x_min":8,"x_max":625,"o":"m 625 0 l 496 0 l 319 413 l 132 0 l 8 0 l 254 518 l 32 992 l 158 992 l 322 615 l 486 992 l 611 992 l 389 513 l 625 0 z "},"Y":{"ha":617,"x_min":0,"x_max":617,"o":"m 310 519 l 490 992 l 617 992 l 368 386 l 368 0 l 249 0 l 249 382 l 0 992 l 126 992 l 310 519 z "},"Z":{"ha":589,"x_min":42,"x_max":554,"o":"m 554 0 l 42 0 l 42 92 l 410 885 l 50 885 l 50 992 l 543 992 l 543 899 l 174 107 l 554 107 l 554 0 z "},"[":{"ha":440,"x_min":103,"x_max":400,"o":"m 400 -222 l 103 -222 l 103 997 l 400 997 l 400 901 l 214 901 l 214 -126 l 400 -126 l 400 -222 z "},"\\":{"ha":515,"x_min":22,"x_max":499,"o":"m 132 994 l 499 -3 l 388 -3 l 22 994 l 132 994 z "},"]":{"ha":440,"x_min":40,"x_max":338,"o":"m 40 -126 l 226 -126 l 226 901 l 40 901 l 40 997 l 338 997 l 338 -222 l 40 -222 l 40 -126 z "},"^":{"ha":668,"x_min":31,"x_max":639,"o":"m 31 435 l 296 993 l 363 993 l 639 435 l 529 435 l 329 853 l 139 435 l 31 435 z "},"_":{"ha":610,"x_min":-3,"x_max":613,"o":"m 613 -206 l -3 -206 l -3 -118 l 613 -118 l 613 -206 z "},"`":{"ha":375,"x_min":56,"x_max":319,"o":"m 193 1064 q 231 994 208 1032 q 276 919 253 956 q 319 857 300 883 l 319 842 l 244 842 q 197 887 224 860 q 142 944 169 914 q 92 1001 114 974 q 56 1051 69 1029 l 56 1064 l 193 1064 z "},"a":{"ha":638,"x_min":53,"x_max":543,"o":"m 326 758 q 492 694 442 758 q 543 504 543 629 l 543 0 l 456 0 l 438 104 l 433 104 q 383 38 411 64 q 320 -1 356 13 q 239 -14 285 -14 q 137 15 179 -14 q 74 94 94 44 q 53 208 53 144 q 124 380 53 319 q 332 446 194 440 l 429 450 l 429 499 q 400 625 429 586 q 313 664 371 664 q 233 651 274 664 q 151 615 193 639 l 115 701 q 214 744 160 729 q 326 758 268 758 m 350 364 q 213 321 254 360 q 171 210 171 282 q 199 111 171 143 q 275 79 226 79 q 387 135 344 79 q 429 296 429 192 l 429 368 l 350 364 z "},"b":{"ha":706,"x_min":99,"x_max":643,"o":"m 214 768 q 213 707 214 738 q 208 647 211 676 l 215 647 q 291 730 246 701 q 397 758 336 758 q 578 660 514 758 q 643 374 643 563 q 614 162 643 249 q 531 31 585 75 q 401 -14 476 -14 q 292 14 338 -14 q 215 94 247 42 l 207 94 l 189 0 l 99 0 l 99 1056 l 214 1056 l 214 768 m 374 658 q 276 624 311 658 q 228 528 242 590 q 214 382 214 465 l 214 361 q 252 153 214 222 q 376 85 290 85 q 487 156 450 85 q 524 375 524 228 q 488 587 524 515 q 374 658 451 658 z "},"c":{"ha":538,"x_min":65,"x_max":503,"o":"m 340 -14 q 191 28 253 -14 q 97 155 129 69 q 65 368 65 240 q 98 582 65 494 q 193 715 131 669 q 344 760 256 760 q 433 750 393 760 q 503 724 472 740 l 468 628 q 408 649 439 640 q 349 657 378 657 q 256 625 293 657 q 201 528 219 593 q 183 369 183 464 q 201 213 183 276 q 257 118 219 150 q 349 86 294 86 q 424 97 388 86 q 493 124 460 107 l 493 25 q 422 -3 463 7 q 340 -14 382 -14 z "},"d":{"ha":706,"x_min":64,"x_max":608,"o":"m 308 -14 q 128 84 192 -14 q 64 372 64 182 q 128 660 64 560 q 306 760 192 760 q 381 747 347 760 q 444 709 415 733 q 492 650 472 685 l 497 650 q 494 705 496 678 q 492 754 492 732 l 492 1056 l 608 1056 l 608 0 l 515 0 l 499 96 l 492 96 q 446 38 472 63 q 385 -1 419 13 q 308 -14 351 -14 m 332 83 q 454 147 415 83 q 493 342 493 211 l 493 378 q 456 589 493 519 q 331 658 418 658 q 218 583 254 658 q 182 371 182 508 q 219 157 182 231 q 332 83 256 83 z "},"e":{"ha":642,"x_min":65,"x_max":581,"o":"m 331 758 q 468 715 413 758 q 552 597 524 672 q 581 428 581 522 l 581 350 l 181 350 q 230 151 183 218 q 367 85 276 85 q 461 97 417 85 q 551 136 506 110 l 551 33 q 460 -2 507 10 q 357 -14 414 -14 q 194 35 260 -14 q 97 169 129 83 q 65 368 65 254 q 97 580 65 493 q 188 713 128 667 q 331 758 247 758 m 331 664 q 226 608 264 664 q 182 442 189 553 l 469 442 q 455 554 469 504 q 409 634 440 604 q 331 664 378 664 z "},"f":{"ha":389,"x_min":15,"x_max":429,"o":"m 372 651 l 233 651 l 233 0 l 117 0 l 117 651 l 15 651 l 15 710 l 117 750 l 117 793 q 135 942 117 882 q 197 1032 154 1001 q 308 1063 240 1063 q 372 1056 343 1063 q 429 1039 401 1050 l 400 947 q 360 959 381 954 q 318 964 339 964 q 253 926 272 964 q 233 796 233 889 l 233 746 l 372 746 l 372 651 z "},"g":{"ha":706,"x_min":64,"x_max":608,"o":"m 308 760 q 413 733 367 760 q 492 647 458 706 l 499 647 l 513 746 l 608 746 l 608 -10 q 577 -185 608 -112 q 480 -296 546 -258 q 310 -333 414 -333 q 200 -322 250 -333 q 107 -289 150 -311 l 107 -181 q 206 -220 156 -207 q 311 -233 257 -233 q 447 -185 400 -233 q 493 -31 493 -136 l 493 -7 q 494 45 493 15 q 497 103 496 75 l 492 103 q 414 15 460 43 q 306 -14 368 -14 q 128 85 192 -14 q 64 369 64 183 q 129 660 64 560 q 308 760 194 760 m 329 658 q 247 625 281 658 q 198 527 214 592 q 182 368 182 463 q 219 154 182 224 q 333 85 257 85 q 403 101 374 85 q 453 148 433 117 q 483 228 474 179 q 493 340 493 276 l 493 374 q 476 536 493 474 q 422 628 458 599 q 329 658 386 658 z "},"h":{"ha":701,"x_min":99,"x_max":606,"o":"m 214 754 q 212 697 214 725 q 206 644 210 669 l 214 644 q 259 707 231 682 q 322 745 288 732 q 396 758 357 758 q 514 730 468 758 q 583 644 560 701 q 606 500 606 586 l 606 0 l 490 0 l 490 482 q 463 616 490 575 q 375 657 436 657 q 281 628 317 657 q 230 538 246 599 q 214 386 214 478 l 214 0 l 99 0 l 99 1056 l 214 1056 l 214 754 z "},"i":{"ha":313,"x_min":90,"x_max":224,"o":"m 214 746 l 214 0 l 99 0 l 99 746 l 214 746 m 158 1025 q 206 1005 189 1025 q 224 946 224 985 q 206 888 224 908 q 158 867 189 867 q 109 888 128 867 q 90 946 90 908 q 108 1006 90 986 q 158 1025 126 1025 z "},"j":{"ha":313,"x_min":-36,"x_max":224,"o":"m 44 -333 q 1 -329 21 -333 q -36 -319 -19 -325 l -36 -219 q -6 -228 -21 -225 q 26 -232 10 -232 q 80 -205 61 -232 q 99 -115 99 -178 l 99 746 l 214 746 l 214 -112 q 195 -235 214 -186 q 139 -308 176 -285 q 44 -333 101 -332 m 90 946 q 108 1006 90 986 q 158 1025 126 1025 q 206 1005 189 1025 q 224 946 224 985 q 206 888 224 908 q 158 867 189 867 q 109 888 128 867 q 90 946 90 908 z "},"k":{"ha":610,"x_min":99,"x_max":603,"o":"m 214 524 q 212 453 214 490 q 207 383 210 417 l 213 383 q 231 414 221 397 q 252 447 242 431 q 272 476 263 464 l 460 746 l 588 746 l 371 449 l 603 0 l 474 0 l 293 363 l 214 275 l 214 0 l 99 0 l 99 1056 l 214 1056 l 214 524 z "},"l":{"ha":311,"x_min":99,"x_max":214,"o":"m 214 0 l 99 0 l 99 1056 l 214 1056 l 214 0 z "},"m":{"ha":1053,"x_min":99,"x_max":957,"o":"m 760 760 q 909 695 861 760 q 957 496 957 631 l 957 0 l 843 0 l 843 479 q 815 616 843 574 q 731 658 788 658 q 618 595 651 658 q 585 411 585 532 l 585 0 l 471 0 l 471 482 q 458 583 471 544 q 422 640 446 622 q 360 658 397 658 q 270 625 301 658 q 226 531 239 592 q 214 389 214 471 l 214 0 l 99 0 l 99 746 l 192 746 l 206 644 l 213 644 q 257 708 231 683 q 317 747 283 733 q 390 760 350 760 q 504 727 461 760 q 564 639 547 694 l 572 639 q 649 730 601 700 q 760 760 696 760 z "},"n":{"ha":701,"x_min":99,"x_max":606,"o":"m 397 760 q 553 697 501 760 q 606 500 606 633 l 606 0 l 490 0 l 490 482 q 463 614 490 569 q 375 658 436 658 q 251 593 288 658 q 214 388 214 528 l 214 0 l 99 0 l 99 746 l 192 746 l 206 644 l 213 644 q 260 708 232 682 q 324 747 288 733 q 397 760 360 760 z "},"o":{"ha":685,"x_min":64,"x_max":621,"o":"m 621 374 q 603 214 621 285 q 550 92 585 143 q 463 13 515 40 q 340 -14 410 -14 q 224 13 275 -14 q 136 91 172 40 q 82 213 100 142 q 64 374 64 285 q 95 583 64 497 q 189 715 126 669 q 343 760 251 760 q 492 715 429 760 q 588 585 554 671 q 621 374 621 500 m 182 374 q 199 216 182 281 q 252 119 217 151 q 343 86 288 86 q 434 119 399 86 q 487 216 469 151 q 504 374 504 281 q 487 531 504 468 q 434 627 469 594 q 343 660 399 660 q 220 587 258 660 q 182 374 182 514 z "},"p":{"ha":706,"x_min":99,"x_max":643,"o":"m 397 760 q 578 663 514 760 q 643 374 643 567 q 614 163 643 250 q 531 31 585 76 q 401 -14 478 -14 q 324 0 360 -14 q 260 39 288 14 q 214 99 233 64 l 207 99 q 212 42 210 71 q 214 -8 214 14 l 214 -333 l 99 -333 l 99 746 l 193 746 l 207 644 l 214 644 q 262 708 235 682 q 322 747 289 733 q 397 760 356 760 m 374 661 q 283 633 318 661 q 231 545 249 604 q 214 396 214 486 l 214 369 q 231 210 214 274 q 283 117 247 147 q 375 86 318 86 q 458 119 425 86 q 508 216 492 151 q 524 374 524 281 q 488 587 524 513 q 374 661 453 661 z "},"q":{"ha":706,"x_min":64,"x_max":608,"o":"m 492 -22 q 493 34 492 1 q 499 103 494 67 l 492 103 q 415 17 461 47 q 304 -14 369 -14 q 128 83 193 -14 q 64 369 64 181 q 94 585 64 499 q 178 716 124 672 q 308 760 233 760 q 416 731 372 760 q 492 646 460 703 l 499 646 l 513 746 l 608 746 l 608 -333 l 492 -333 l 492 -22 m 333 86 q 423 114 388 86 q 475 199 458 142 q 493 342 492 257 l 493 374 q 456 589 493 519 q 331 658 418 658 q 218 583 254 658 q 182 368 182 508 q 219 156 182 225 q 333 86 257 86 z "},"r":{"ha":468,"x_min":99,"x_max":453,"o":"m 382 760 q 417 758 399 760 q 453 750 436 756 l 436 635 q 406 642 422 640 q 374 644 390 644 q 311 626 340 644 q 260 573 282 607 q 226 492 238 539 q 214 392 214 446 l 214 0 l 99 0 l 99 746 l 190 746 l 204 615 l 211 615 q 256 691 231 658 q 313 742 281 724 q 382 760 344 760 z "},"s":{"ha":529,"x_min":53,"x_max":479,"o":"m 479 201 q 451 84 479 132 q 369 11 422 36 q 242 -14 317 -14 q 136 -2 183 -14 q 54 29 89 10 l 54 144 q 139 103 89 121 q 240 86 189 86 q 335 115 303 86 q 367 196 367 144 q 354 247 367 224 q 312 291 342 269 q 232 338 282 313 q 138 395 178 365 q 75 465 97 425 q 53 563 53 506 q 117 707 53 654 q 283 760 181 760 q 384 747 338 760 q 474 710 431 733 l 432 618 q 360 650 397 638 q 282 663 322 663 q 195 637 226 663 q 164 567 164 611 q 177 515 164 538 q 222 473 190 493 q 304 426 253 453 q 397 369 357 399 q 458 299 436 339 q 479 201 479 260 z "},"t":{"ha":403,"x_min":24,"x_max":379,"o":"m 301 86 q 342 90 321 86 q 379 100 363 94 l 379 8 q 330 -8 358 -1 q 269 -14 301 -14 q 181 8 218 -14 q 123 75 143 29 q 103 194 103 121 l 103 651 l 24 651 l 24 711 l 108 747 l 143 914 l 219 914 l 219 746 l 371 746 l 371 651 l 219 651 l 219 204 q 239 116 219 146 q 301 86 258 86 z "},"u":{"ha":701,"x_min":94,"x_max":603,"o":"m 603 746 l 603 0 l 508 0 l 494 100 l 488 100 q 441 37 469 63 q 378 -1 413 11 q 304 -14 343 -14 q 184 19 231 -14 q 116 112 138 51 q 94 258 94 172 l 94 746 l 210 746 l 210 276 q 238 134 210 181 q 324 88 265 88 q 420 117 385 88 q 471 204 456 146 q 486 351 486 263 l 486 746 l 603 746 z "},"v":{"ha":571,"x_min":4,"x_max":568,"o":"m 219 0 l 4 746 l 124 746 l 242 304 q 258 244 250 275 q 272 182 265 213 q 282 124 278 151 l 288 124 q 296 167 290 142 q 309 223 301 193 q 324 283 317 253 l 447 746 l 568 746 l 349 0 l 219 0 z "},"w":{"ha":915,"x_min":14,"x_max":903,"o":"m 493 442 q 483 488 488 465 q 474 534 478 511 q 466 577 469 557 q 460 617 463 597 l 456 617 q 449 576 453 597 q 442 532 446 554 q 433 487 438 510 q 422 442 428 464 l 318 0 l 186 0 l 14 746 l 131 746 l 214 367 q 229 288 221 328 q 244 208 238 247 q 256 133 250 169 l 260 133 q 267 182 263 156 q 277 238 272 208 q 288 296 282 267 q 301 356 294 325 l 394 746 l 522 746 l 614 354 q 628 292 621 328 q 643 217 636 257 q 656 133 650 176 l 660 133 q 667 181 663 153 q 678 242 671 208 q 692 311 685 275 l 788 746 l 903 746 l 725 0 l 592 0 l 493 442 z "},"x":{"ha":583,"x_min":21,"x_max":563,"o":"m 225 383 l 32 746 l 158 746 l 293 472 l 429 746 l 554 746 l 360 379 l 563 0 l 438 0 l 292 290 l 144 0 l 21 0 l 225 383 z "},"y":{"ha":572,"x_min":4,"x_max":568,"o":"m 4 746 l 125 746 l 244 322 q 260 263 253 293 q 274 203 267 233 q 286 143 281 174 l 292 143 q 308 227 297 181 q 333 324 319 274 l 449 746 l 568 746 l 318 -110 q 266 -233 296 -183 q 195 -308 236 -283 q 97 -333 154 -333 q 56 -331 75 -333 q 18 -322 38 -328 l 18 -224 q 49 -229 32 -226 q 81 -232 65 -232 q 135 -218 113 -232 q 174 -174 157 -204 q 204 -93 190 -143 l 232 3 l 4 746 z "},"z":{"ha":490,"x_min":40,"x_max":454,"o":"m 454 0 l 40 0 l 40 78 l 317 650 l 57 650 l 57 746 l 444 746 l 444 661 l 169 96 l 454 96 l 454 0 z "},"{":{"ha":510,"x_min":51,"x_max":456,"o":"m 456 -222 q 315 -197 372 -221 q 229 -124 258 -172 q 200 0 200 -75 l 200 207 q 185 282 200 253 q 138 326 171 311 q 51 342 106 342 l 51 432 q 135 444 103 432 q 184 486 168 457 q 200 565 200 515 l 200 774 q 228 896 200 847 q 315 969 257 944 q 456 994 372 993 l 456 900 q 378 885 410 899 q 330 844 346 872 q 314 768 314 815 l 314 563 q 282 445 314 488 q 178 390 250 403 l 178 383 q 283 326 253 369 q 314 211 314 283 l 314 4 q 329 -71 314 -42 q 376 -113 344 -100 q 456 -128 407 -126 l 456 -222 z "},"|":{"ha":624,"x_min":260,"x_max":364,"o":"m 260 1058 l 364 1058 l 364 -331 l 260 -331 l 260 1058 z "},"}":{"ha":510,"x_min":53,"x_max":458,"o":"m 53 -128 q 133 -112 101 -126 q 181 -70 165 -99 q 196 4 196 -42 l 196 211 q 228 327 196 285 q 332 383 260 369 l 332 389 q 228 445 260 403 q 196 561 196 488 l 196 768 q 179 844 196 817 q 131 886 163 872 q 53 900 100 900 l 53 994 q 194 969 138 993 q 280 897 251 944 q 308 774 308 849 l 308 567 q 323 491 308 521 q 370 447 338 461 q 458 432 403 432 l 458 342 q 373 328 406 342 q 324 285 340 314 q 308 207 308 256 l 308 -1 q 281 -123 308 -74 q 196 -197 253 -172 q 53 -222 139 -221 l 53 -128 z "},"~":{"ha":657,"x_min":49,"x_max":608,"o":"m 311 444 q 244 473 275 464 q 188 482 214 482 q 118 460 154 482 q 49 400 82 438 l 49 507 q 114 560 78 542 q 193 579 150 579 q 266 569 232 579 q 344 536 300 558 q 413 508 385 517 q 469 499 442 499 q 541 522 504 499 q 608 579 578 544 l 608 472 q 543 421 579 439 q 464 403 507 403 q 390 413 422 403 q 311 444 357 422 z "}," ":{"ha":288,"x_min":0,"x_max":0,"o":""},"¡":{"ha":340,"x_min":93,"x_max":250,"o":"m 128 458 l 211 458 l 239 -258 l 99 -258 l 128 458 m 250 663 q 228 593 250 614 q 171 572 206 572 q 114 594 135 572 q 93 663 93 617 q 114 731 93 708 q 171 753 135 753 q 227 731 204 753 q 250 663 250 708 z "},"¢":{"ha":656,"x_min":110,"x_max":549,"o":"m 411 894 q 485 883 450 892 q 549 858 521 874 l 514 761 q 453 784 485 776 q 396 792 421 792 q 301 760 338 792 q 246 665 264 728 q 228 506 228 601 q 246 346 228 408 q 301 253 264 283 q 393 222 338 222 q 468 233 432 222 q 539 261 504 243 l 539 161 q 481 136 513 146 q 410 122 450 126 l 410 -14 l 331 -14 l 331 125 q 209 181 258 136 q 135 308 160 226 q 110 504 110 389 q 135 702 110 621 q 210 831 161 783 q 331 890 260 878 l 331 1006 l 411 1006 l 411 894 z "},"£":{"ha":656,"x_min":54,"x_max":601,"o":"m 393 1006 q 499 990 450 1006 q 589 947 547 975 l 546 854 q 474 889 510 876 q 397 901 438 901 q 310 863 338 901 q 282 740 282 825 l 282 542 l 486 542 l 486 450 l 282 450 l 282 296 q 272 213 282 249 q 242 151 261 176 q 194 107 222 125 l 601 107 l 601 0 l 56 0 l 56 99 q 114 138 90 113 q 151 202 138 164 q 164 294 164 240 l 164 450 l 54 450 l 54 542 l 164 542 l 164 743 q 190 889 164 831 q 268 976 217 947 q 393 1006 319 1006 z "},"¤":{"ha":774,"x_min":76,"x_max":694,"o":"m 117 490 q 130 573 117 533 q 168 646 143 613 l 76 739 l 139 797 l 228 707 q 303 747 263 733 q 386 760 343 760 q 469 747 431 760 q 542 708 508 735 l 633 797 l 694 739 l 606 647 q 642 574 629 614 q 656 490 656 535 q 642 406 656 446 q 606 332 629 367 l 693 242 l 635 182 l 542 272 q 469 234 508 247 q 386 221 429 221 q 301 234 340 221 q 228 274 261 247 l 139 183 l 78 243 l 168 333 q 130 408 143 368 q 117 490 117 447 m 200 490 q 225 397 200 439 q 292 329 250 354 q 386 304 335 304 q 482 330 440 304 q 549 398 524 356 q 574 490 574 440 q 548 584 574 542 q 480 652 522 626 q 386 678 438 678 q 293 652 336 678 q 225 584 250 626 q 200 490 200 542 z "},"¥":{"ha":656,"x_min":40,"x_max":611,"o":"m 326 519 l 489 992 l 611 992 l 411 465 l 557 465 l 557 382 l 385 382 l 385 264 l 557 264 l 557 181 l 385 181 l 385 0 l 267 0 l 267 181 l 96 181 l 96 264 l 267 264 l 267 382 l 96 382 l 96 465 l 239 465 l 40 992 l 163 992 l 326 519 z "},"¦":{"ha":624,"x_min":260,"x_max":364,"o":"m 260 1054 l 364 1054 l 364 515 l 260 515 l 260 1054 m 260 210 l 364 210 l 364 -331 l 260 -331 l 260 210 z "},"§":{"ha":574,"x_min":64,"x_max":500,"o":"m 65 561 q 94 660 65 619 q 168 724 122 701 q 100 792 124 754 q 76 878 76 831 q 139 1010 76 964 q 301 1057 201 1057 q 401 1047 360 1057 q 488 1014 443 1036 l 451 929 q 376 960 411 950 q 300 971 342 971 q 212 947 242 971 q 182 883 182 924 q 196 833 182 854 q 240 794 210 813 q 317 753 269 775 q 417 697 376 726 q 479 632 458 668 q 500 543 500 596 q 475 442 500 486 q 411 375 450 399 q 476 305 456 342 q 497 222 497 268 q 431 78 497 131 q 253 25 365 25 q 148 36 194 25 q 64 69 101 47 l 64 171 q 119 141 88 154 q 185 120 150 128 q 253 113 221 113 q 356 142 322 113 q 390 215 390 172 q 378 267 390 246 q 333 308 365 288 q 240 358 301 329 q 142 417 182 389 q 84 479 103 444 q 65 561 65 514 m 165 575 q 180 523 165 546 q 224 481 194 500 q 294 439 253 461 l 339 418 q 384 462 367 435 q 401 528 401 489 q 389 583 401 560 q 342 630 376 607 q 243 682 308 653 q 187 642 208 671 q 165 575 165 614 z "},"¨":{"ha":751,"x_min":196,"x_max":554,"o":"m 196 933 q 213 986 196 969 q 257 1003 231 1003 q 299 985 282 1003 q 317 933 317 968 q 299 879 317 897 q 257 861 282 861 q 213 879 231 861 q 196 933 196 897 m 432 933 q 450 986 432 969 q 493 1003 468 1003 q 536 985 518 1003 q 554 933 554 968 q 536 879 554 897 q 493 861 518 861 q 449 879 467 861 q 432 933 432 897 z "},"©":{"ha":1154,"x_min":67,"x_max":1086,"o":"m 597 186 q 393 267 464 186 q 322 494 322 349 q 356 658 322 588 q 452 766 389 728 q 603 804 515 804 q 691 794 647 804 q 776 765 735 785 l 739 685 q 670 710 704 703 q 606 718 636 718 q 474 660 522 718 q 425 497 425 603 q 469 328 425 383 q 603 272 514 272 q 675 281 638 272 q 750 306 713 289 l 750 219 q 677 194 715 203 q 597 186 639 186 m 576 -14 q 367 26 461 -14 q 206 135 274 65 q 103 298 139 206 q 67 496 67 390 q 106 701 67 608 q 214 863 144 794 q 376 969 283 932 q 576 1006 469 1006 q 781 967 688 1006 q 942 860 874 929 q 1049 697 1011 790 q 1086 496 1086 604 q 1049 292 1086 385 q 942 130 1011 199 q 781 24 874 61 q 576 -14 688 -14 m 576 60 q 749 92 671 60 q 885 185 828 125 q 975 324 943 244 q 1007 496 1007 403 q 975 669 1007 589 q 885 807 943 749 q 749 899 828 865 q 576 932 671 932 q 402 899 482 932 q 265 807 322 867 q 176 668 208 747 q 144 496 144 589 q 177 320 144 400 q 268 182 210 240 q 406 92 326 124 q 576 60 485 60 z "},"ª":{"ha":442,"x_min":39,"x_max":374,"o":"m 222 1003 q 336 965 299 1003 q 374 846 374 926 l 374 539 l 313 539 l 296 604 q 238 549 271 568 q 160 531 206 531 q 96 548 124 531 q 53 596 68 565 q 39 668 39 626 q 60 745 39 715 q 122 791 81 775 q 224 811 163 807 l 288 815 l 288 850 q 268 913 288 893 q 213 932 249 932 q 156 924 183 932 q 99 900 128 915 l 71 964 q 144 993 107 983 q 222 1003 181 1003 m 238 751 q 151 728 176 749 q 125 668 125 708 q 142 617 125 633 q 188 601 158 601 q 263 634 238 601 q 288 722 288 667 l 288 756 l 238 751 z "},"«":{"ha":660,"x_min":50,"x_max":608,"o":"m 50 376 l 261 649 l 342 606 l 181 367 l 342 131 l 261 85 l 50 357 l 50 376 m 317 376 l 529 649 l 608 606 l 449 367 l 608 131 l 529 85 l 317 357 l 317 376 z "},"¬":{"ha":657,"x_min":50,"x_max":597,"o":"m 597 538 l 597 169 l 500 169 l 500 442 l 50 442 l 50 538 l 597 538 z "},"­":{"ha":400,"x_min":43,"x_max":357,"o":"m 43 318 l 43 429 l 357 429 l 357 318 l 43 318 z "},"®":{"ha":1154,"x_min":67,"x_max":1086,"o":"m 392 199 l 392 797 l 558 797 q 721 754 665 797 q 776 621 776 711 q 749 521 776 560 q 675 460 722 482 l 817 199 l 704 199 l 583 436 l 492 436 l 492 199 l 392 199 m 554 514 q 640 540 608 514 q 672 618 672 567 q 643 692 672 668 q 553 715 614 715 l 492 715 l 492 514 l 554 514 m 576 -14 q 367 26 461 -14 q 206 135 274 65 q 103 298 139 206 q 67 496 67 390 q 106 701 67 608 q 214 863 144 794 q 376 969 283 932 q 576 1006 469 1006 q 781 967 688 1006 q 942 860 874 929 q 1049 697 1011 790 q 1086 496 1086 604 q 1049 292 1086 385 q 942 130 1011 199 q 781 24 874 61 q 576 -14 688 -14 m 576 60 q 749 92 671 60 q 885 185 828 125 q 975 324 943 244 q 1007 496 1007 403 q 975 669 1007 589 q 885 807 943 749 q 749 899 828 865 q 576 932 671 932 q 402 899 482 932 q 265 807 322 867 q 176 668 208 747 q 144 496 144 589 q 177 320 144 400 q 268 182 210 240 q 406 92 326 124 q 576 60 485 60 z "},"¯":{"ha":632,"x_min":-6,"x_max":636,"o":"m 636 1056 l -6 1056 l -6 1146 l 636 1146 l 636 1056 z "},"°":{"ha":533,"x_min":67,"x_max":467,"o":"m 267 617 q 162 640 207 617 q 92 708 117 664 q 67 810 67 751 q 92 914 67 871 q 163 981 118 957 q 267 1004 208 1004 q 370 981 325 1004 q 441 913 415 957 q 467 810 467 869 q 441 708 467 751 q 369 640 415 664 q 267 617 324 617 m 268 692 q 353 724 322 692 q 383 810 383 757 q 353 897 383 864 q 268 931 322 931 q 180 897 210 931 q 150 810 150 863 q 181 724 150 756 q 268 692 213 692 z "},"±":{"ha":657,"x_min":50,"x_max":606,"o":"m 50 0 l 50 96 l 606 96 l 606 0 l 50 0 m 376 557 l 604 557 l 604 461 l 376 461 l 376 181 l 279 181 l 279 461 l 50 461 l 50 557 l 279 557 l 279 839 l 376 839 l 376 557 z "},"²":{"ha":451,"x_min":35,"x_max":390,"o":"m 390 576 l 35 576 l 35 654 l 168 806 q 238 889 213 854 q 276 954 264 924 q 288 1019 288 985 q 265 1081 288 1058 q 203 1103 243 1103 q 142 1088 171 1103 q 83 1046 114 1074 l 36 1107 q 113 1164 69 1143 q 208 1185 156 1185 q 338 1142 292 1185 q 383 1025 383 1099 q 366 936 383 976 q 313 852 349 896 q 225 750 278 808 l 143 658 l 390 658 l 390 576 z "},"³":{"ha":451,"x_min":32,"x_max":399,"o":"m 204 1185 q 335 1144 289 1185 q 381 1032 381 1103 q 355 944 381 981 q 286 892 329 908 l 286 886 q 369 835 340 871 q 399 739 399 799 q 343 613 399 660 q 189 565 288 565 q 108 574 146 565 q 35 600 71 583 l 35 690 q 110 658 71 669 q 189 647 150 647 q 278 674 250 647 q 306 743 306 700 q 272 821 306 796 q 175 846 239 846 l 118 846 l 118 922 l 172 922 q 260 949 231 922 q 290 1021 290 976 q 265 1083 290 1061 q 200 1104 240 1104 q 138 1091 167 1104 q 78 1054 108 1078 l 32 1118 q 112 1167 69 1150 q 204 1185 154 1185 z "},"´":{"ha":375,"x_min":56,"x_max":319,"o":"m 319 1051 q 284 1001 307 1029 q 234 944 261 974 q 180 888 207 914 q 131 842 153 861 l 56 842 l 56 857 q 103 927 81 892 q 147 998 126 963 q 182 1064 167 1033 l 319 1064 l 319 1051 z "},"µ":{"ha":704,"x_min":99,"x_max":606,"o":"m 606 746 l 606 0 l 514 0 l 499 101 l 492 101 q 451 39 475 65 q 396 -1 426 13 q 329 -14 365 -14 q 260 3 289 -14 q 213 53 232 19 l 208 53 q 211 6 210 31 q 213 -42 213 -18 q 214 -92 214 -67 l 214 -333 l 99 -333 l 99 746 l 214 746 l 214 268 q 242 133 214 179 q 328 88 269 88 q 424 118 389 88 q 475 209 460 149 q 490 357 490 269 l 490 746 l 606 746 z "},"¶":{"ha":743,"x_min":82,"x_max":618,"o":"m 618 -176 l 538 -176 l 538 976 l 432 976 l 432 -176 l 351 -176 l 351 379 q 319 370 336 374 q 285 367 301 367 q 174 403 218 367 q 106 514 129 439 q 82 707 82 589 q 108 905 82 828 q 185 1019 133 982 q 311 1056 236 1056 l 618 1056 l 618 -176 z "},"·":{"ha":332,"x_min":88,"x_max":244,"o":"m 88 490 q 108 558 88 536 q 165 581 129 581 q 222 560 200 581 q 244 490 244 539 q 222 422 244 443 q 165 400 200 400 q 109 422 131 400 q 88 490 88 444 z "},"¸":{"ha":290,"x_min":15,"x_max":267,"o":"m 267 -192 q 222 -297 267 -260 q 90 -333 176 -333 q 48 -331 67 -333 q 15 -325 29 -329 l 15 -250 q 46 -256 29 -254 q 79 -258 63 -258 q 148 -241 125 -258 q 171 -192 171 -224 q 141 -137 171 -156 q 60 -112 111 -119 l 111 0 l 182 0 l 150 -71 q 213 -94 186 -78 q 253 -134 239 -110 q 267 -192 267 -158 z "},"¹":{"ha":451,"x_min":53,"x_max":311,"o":"m 311 1171 l 311 576 l 218 576 l 218 946 q 219 989 218 968 q 221 1031 219 1010 q 224 1072 222 1051 q 200 1051 211 1061 q 179 1033 189 1042 l 100 975 l 53 1039 l 226 1171 l 311 1171 z "},"º":{"ha":463,"x_min":43,"x_max":419,"o":"m 419 768 q 370 592 419 654 q 232 531 321 531 q 93 592 143 531 q 43 768 43 654 q 93 942 43 881 q 232 1003 143 1003 q 332 976 290 1003 q 397 898 374 950 q 419 768 419 846 m 132 768 q 156 644 132 685 q 231 604 181 604 q 308 644 285 604 q 331 768 331 685 q 307 890 331 851 q 231 929 283 929 q 157 890 182 929 q 132 768 132 851 z "},"»":{"ha":660,"x_min":51,"x_max":610,"o":"m 610 357 l 397 85 l 318 131 l 478 367 l 318 606 l 397 649 l 610 376 l 610 357 m 343 357 l 131 85 l 51 131 l 211 367 l 51 606 l 131 649 l 343 376 l 343 357 z "},"¼":{"ha":1004,"x_min":40,"x_max":985,"o":"m 203 0 l 740 992 l 839 992 l 300 0 l 203 0 m 206 768 q 206 810 206 789 q 208 852 207 831 q 211 893 210 874 q 189 873 200 883 q 167 854 178 863 l 88 796 l 40 858 l 215 992 l 299 992 l 299 397 l 206 397 l 206 768 m 817 0 l 817 129 l 578 129 l 578 197 l 815 597 l 910 597 l 910 208 l 985 208 l 985 129 l 910 129 l 910 0 l 817 0 m 668 208 l 817 208 l 817 365 q 817 431 817 400 q 819 483 818 461 q 803 448 815 469 q 779 404 792 426 l 668 208 z "},"½":{"ha":1043,"x_min":36,"x_max":983,"o":"m 178 0 l 714 992 l 814 992 l 275 0 l 178 0 m 201 768 q 201 799 201 783 q 202 831 201 815 q 204 862 203 846 q 207 893 206 878 q 183 873 194 883 q 163 854 172 863 l 83 796 l 36 858 l 210 992 l 294 992 l 294 397 l 201 397 l 201 768 m 628 0 l 628 78 l 761 228 q 831 311 806 276 q 869 376 857 346 q 882 442 882 407 q 859 503 882 481 q 794 526 836 526 q 734 512 763 526 q 676 468 706 497 l 629 531 q 706 588 663 567 q 801 608 749 608 q 931 565 885 608 q 976 449 976 521 q 960 360 976 399 q 911 281 943 321 q 836 193 879 242 l 735 82 l 983 82 l 983 0 l 628 0 z "},"¾":{"ha":1033,"x_min":31,"x_max":1013,"o":"m 233 0 l 771 992 l 869 992 l 332 0 l 233 0 m 188 386 q 108 394 146 386 q 33 422 69 403 l 33 511 q 109 479 69 490 q 189 468 149 468 q 276 494 249 468 q 304 564 304 521 q 271 641 304 615 q 174 667 238 667 l 117 667 l 117 743 l 172 743 q 259 770 229 743 q 289 842 289 797 q 265 904 289 883 q 199 925 240 925 q 136 912 165 925 q 76 874 107 899 l 31 938 q 111 988 68 971 q 204 1006 154 1006 q 334 965 288 1006 q 381 853 381 924 q 354 765 381 801 q 285 711 328 729 l 285 707 q 369 656 340 693 q 399 560 399 619 q 342 433 399 481 q 188 386 286 386 m 846 0 l 846 129 l 607 129 l 607 197 l 844 597 l 938 597 l 938 208 l 1013 208 l 1013 129 l 938 129 l 938 0 l 846 0 m 696 208 l 846 208 l 846 365 q 847 431 846 400 q 849 483 847 461 q 831 448 843 469 q 807 404 819 426 l 696 208 z "},"¿":{"ha":490,"x_min":31,"x_max":472,"o":"m 336 419 q 328 333 336 371 q 302 260 321 294 q 249 189 283 226 q 188 113 211 147 q 154 45 164 78 q 144 -28 144 13 q 177 -129 144 -94 q 268 -164 210 -164 q 353 -149 315 -164 q 429 -111 390 -135 l 472 -203 q 372 -251 425 -233 q 261 -268 319 -268 q 90 -207 150 -268 q 31 -35 31 -146 q 44 69 31 25 q 88 152 58 113 q 160 240 117 192 q 211 307 193 278 q 236 365 229 336 q 243 432 243 394 l 243 458 l 336 458 l 336 419 m 364 663 q 343 594 364 617 q 286 572 322 572 q 230 593 251 572 q 208 663 208 614 q 231 731 208 708 q 286 753 253 753 q 343 731 322 753 q 364 663 364 708 z "},"À":{"ha":704,"x_min":0,"x_max":703,"o":"m 578 0 l 492 308 l 211 308 l 125 0 l 0 0 l 285 993 l 417 993 l 703 0 l 578 0 m 381 736 q 369 783 376 757 q 358 835 363 808 q 349 881 353 861 q 341 832 346 857 q 331 783 336 807 q 319 736 325 760 l 236 418 l 465 418 l 381 736 m 324 1310 q 361 1240 339 1278 q 407 1165 383 1201 q 450 1103 431 1129 l 450 1088 l 375 1088 q 327 1133 354 1106 q 272 1190 300 1160 q 222 1247 244 1219 q 186 1297 200 1275 l 186 1310 l 324 1310 z "},"Á":{"ha":704,"x_min":0,"x_max":703,"o":"m 578 0 l 492 308 l 211 308 l 125 0 l 0 0 l 285 993 l 417 993 l 703 0 l 578 0 m 381 736 q 369 783 376 757 q 358 835 363 808 q 349 881 353 861 q 341 832 346 857 q 331 783 336 807 q 319 736 325 760 l 236 418 l 465 418 l 381 736 m 538 1297 q 502 1247 525 1275 q 452 1190 479 1219 q 398 1133 425 1160 q 349 1088 371 1107 l 274 1088 l 274 1103 q 322 1173 299 1138 q 365 1244 344 1208 q 400 1310 385 1279 l 538 1310 l 538 1297 z "},"Â":{"ha":704,"x_min":0,"x_max":703,"o":"m 578 0 l 492 308 l 211 308 l 125 0 l 0 0 l 285 993 l 417 993 l 703 0 l 578 0 m 381 736 q 369 783 376 757 q 358 835 363 808 q 349 881 353 861 q 341 832 346 857 q 331 783 336 807 q 319 736 325 760 l 236 418 l 465 418 l 381 736 m 406 1310 q 445 1242 421 1279 q 497 1167 469 1204 q 549 1101 525 1131 l 549 1088 l 479 1088 q 415 1147 447 1114 q 350 1217 383 1181 q 283 1146 317 1181 q 221 1088 250 1111 l 153 1088 l 153 1101 q 205 1172 178 1135 q 256 1244 232 1208 q 293 1310 279 1281 l 406 1310 z "},"Ã":{"ha":704,"x_min":0,"x_max":703,"o":"m 578 0 l 492 308 l 211 308 l 125 0 l 0 0 l 285 993 l 417 993 l 703 0 l 578 0 m 381 736 q 369 783 376 757 q 358 835 363 808 q 349 881 353 861 q 341 832 346 857 q 331 783 336 807 q 319 736 325 760 l 236 418 l 465 418 l 381 736 m 131 1086 q 142 1153 133 1122 q 167 1208 151 1183 q 204 1245 182 1232 q 257 1258 226 1258 q 308 1247 283 1258 q 357 1219 333 1235 q 402 1191 381 1203 q 444 1179 424 1179 q 481 1201 468 1179 q 501 1260 494 1222 l 571 1260 q 532 1133 565 1178 q 446 1088 499 1088 q 394 1100 419 1088 q 345 1128 369 1113 q 300 1156 321 1143 q 260 1168 279 1168 q 223 1147 238 1168 q 200 1086 208 1126 l 131 1086 z "},"Ä":{"ha":704,"x_min":0,"x_max":703,"o":"m 578 0 l 492 308 l 211 308 l 125 0 l 0 0 l 285 993 l 417 993 l 703 0 l 578 0 m 381 736 q 369 783 376 757 q 358 835 363 808 q 349 881 353 861 q 341 832 346 857 q 331 783 336 807 q 319 736 325 760 l 236 418 l 465 418 l 381 736 m 171 1179 q 188 1232 171 1215 q 232 1249 206 1249 q 274 1231 257 1249 q 292 1179 292 1214 q 274 1125 292 1143 q 232 1107 257 1107 q 188 1125 206 1107 q 171 1179 171 1143 m 407 1179 q 425 1232 407 1215 q 468 1249 443 1249 q 511 1231 493 1249 q 529 1179 529 1214 q 511 1125 529 1143 q 468 1107 493 1107 q 424 1125 442 1107 q 407 1179 407 1143 z "},"Å":{"ha":704,"x_min":0,"x_max":703,"o":"m 578 0 l 492 308 l 211 308 l 125 0 l 0 0 l 285 993 l 417 993 l 703 0 l 578 0 m 381 736 q 369 783 376 757 q 358 835 363 808 q 349 881 353 861 q 341 832 346 857 q 331 783 336 807 q 319 736 325 760 l 236 418 l 465 418 l 381 736 m 350 928 q 242 966 282 928 q 203 1069 203 1004 q 242 1173 203 1135 q 350 1211 282 1211 q 456 1174 414 1211 q 499 1072 499 1136 q 458 967 499 1006 q 350 928 417 928 m 351 996 q 405 1016 383 996 q 426 1069 426 1036 q 406 1124 426 1103 q 351 1144 386 1144 q 297 1124 318 1144 q 275 1069 275 1103 q 294 1016 275 1036 q 351 996 314 996 z "},"Æ":{"ha":965,"x_min":-3,"x_max":896,"o":"m 896 0 l 465 0 l 465 308 l 232 308 l 125 0 l -3 0 l 347 992 l 896 992 l 896 885 l 585 885 l 585 571 l 875 571 l 875 465 l 585 465 l 585 107 l 896 107 l 896 0 m 267 418 l 467 418 l 467 883 l 425 883 l 267 418 z "},"Ç":{"ha":697,"x_min":74,"x_max":661,"o":"m 451 900 q 340 869 388 900 q 261 782 293 838 q 214 653 229 726 q 199 496 199 581 q 228 281 199 372 q 317 142 258 190 q 456 93 375 93 q 549 103 506 93 q 632 131 592 114 l 632 25 q 546 -4 592 6 q 442 -14 500 -14 q 243 48 325 -14 q 117 224 161 110 q 74 497 74 339 q 97 697 74 604 q 168 860 121 790 q 286 968 215 929 q 449 1007 357 1007 q 560 994 507 1007 q 661 954 614 981 l 617 853 q 540 887 582 874 q 451 900 499 900 m 540 -192 q 495 -297 540 -260 q 364 -333 450 -333 q 322 -331 340 -333 q 289 -325 303 -329 l 289 -250 q 319 -256 303 -254 q 353 -258 336 -258 q 422 -241 399 -258 q 444 -192 444 -224 q 415 -137 444 -156 q 333 -112 385 -119 l 385 0 l 456 0 l 424 -71 q 486 -94 460 -78 q 526 -134 513 -110 q 540 -192 540 -158 z "},"È":{"ha":622,"x_min":111,"x_max":554,"o":"m 554 0 l 111 0 l 111 992 l 554 992 l 554 886 l 231 886 l 231 571 l 535 571 l 535 465 l 231 465 l 231 107 l 554 107 l 554 0 m 311 1310 q 349 1240 326 1278 q 394 1165 371 1201 q 438 1103 418 1129 l 438 1088 l 363 1088 q 315 1133 342 1106 q 260 1190 288 1160 q 210 1247 232 1219 q 174 1297 188 1275 l 174 1310 l 311 1310 z "},"É":{"ha":622,"x_min":111,"x_max":554,"o":"m 554 0 l 111 0 l 111 992 l 554 992 l 554 886 l 231 886 l 231 571 l 535 571 l 535 465 l 231 465 l 231 107 l 554 107 l 554 0 m 525 1297 q 490 1247 513 1275 q 440 1190 467 1219 q 385 1133 413 1160 q 336 1088 358 1107 l 261 1088 l 261 1103 q 309 1173 286 1138 q 352 1244 332 1208 q 388 1310 372 1279 l 525 1310 l 525 1297 z "},"Ê":{"ha":622,"x_min":111,"x_max":554,"o":"m 554 0 l 111 0 l 111 992 l 554 992 l 554 886 l 231 886 l 231 571 l 535 571 l 535 465 l 231 465 l 231 107 l 554 107 l 554 0 m 392 1310 q 431 1242 407 1279 q 483 1167 456 1204 q 535 1101 511 1131 l 535 1088 l 465 1088 q 401 1147 433 1114 q 336 1217 369 1181 q 269 1146 303 1181 q 207 1088 236 1111 l 139 1088 l 139 1101 q 191 1172 164 1135 q 242 1244 218 1208 q 279 1310 265 1281 l 392 1310 z "},"Ë":{"ha":622,"x_min":111,"x_max":554,"o":"m 554 0 l 111 0 l 111 992 l 554 992 l 554 886 l 231 886 l 231 571 l 535 571 l 535 465 l 231 465 l 231 107 l 554 107 l 554 0 m 158 1179 q 176 1232 158 1215 q 219 1249 193 1249 q 262 1231 244 1249 q 279 1179 279 1214 q 262 1125 279 1143 q 219 1107 244 1107 q 176 1125 193 1107 q 158 1179 158 1143 m 394 1179 q 413 1232 394 1215 q 456 1249 431 1249 q 499 1231 481 1249 q 517 1179 517 1214 q 499 1125 517 1143 q 456 1107 481 1107 q 412 1125 429 1107 q 394 1179 394 1143 z "},"Ì":{"ha":417,"x_min":44,"x_max":365,"o":"m 365 0 l 50 0 l 50 68 l 147 93 l 147 899 l 50 924 l 50 992 l 365 992 l 365 924 l 267 899 l 267 93 l 365 68 l 365 0 m 182 1310 q 219 1240 197 1278 q 265 1165 242 1201 q 308 1103 289 1129 l 308 1088 l 233 1088 q 185 1133 213 1106 q 131 1190 158 1160 q 81 1247 103 1219 q 44 1297 58 1275 l 44 1310 l 182 1310 z "},"Í":{"ha":417,"x_min":50,"x_max":396,"o":"m 365 0 l 50 0 l 50 68 l 147 93 l 147 899 l 50 924 l 50 992 l 365 992 l 365 924 l 267 899 l 267 93 l 365 68 l 365 0 m 396 1297 q 360 1247 383 1275 q 310 1190 338 1219 q 256 1133 283 1160 q 207 1088 229 1107 l 132 1088 l 132 1103 q 180 1173 157 1138 q 223 1244 203 1208 q 258 1310 243 1279 l 396 1310 l 396 1297 z "},"Î":{"ha":417,"x_min":10,"x_max":406,"o":"m 365 0 l 50 0 l 50 68 l 147 93 l 147 899 l 50 924 l 50 992 l 365 992 l 365 924 l 267 899 l 267 93 l 365 68 l 365 0 m 263 1310 q 302 1242 278 1279 q 354 1167 326 1204 q 406 1101 382 1131 l 406 1088 l 336 1088 q 272 1147 304 1114 q 207 1217 240 1181 q 140 1146 174 1181 q 78 1088 107 1111 l 10 1088 l 10 1101 q 62 1172 35 1135 q 113 1244 89 1208 q 150 1310 136 1281 l 263 1310 z "},"Ï":{"ha":417,"x_min":28,"x_max":388,"o":"m 365 0 l 50 0 l 50 68 l 147 93 l 147 899 l 50 924 l 50 992 l 365 992 l 365 924 l 267 899 l 267 93 l 365 68 l 365 0 m 29 1179 q 47 1232 29 1215 q 90 1249 64 1249 q 133 1231 115 1249 q 150 1179 150 1214 q 133 1125 150 1143 q 90 1107 115 1107 q 47 1125 64 1107 q 29 1179 29 1143 m 265 1179 q 283 1232 265 1215 q 326 1249 301 1249 q 369 1231 351 1249 q 388 1179 388 1214 q 369 1125 388 1143 q 326 1107 351 1107 q 283 1125 300 1107 q 265 1179 265 1143 z "},"Ð":{"ha":806,"x_min":33,"x_max":732,"o":"m 347 992 q 556 937 471 992 q 687 774 642 882 q 732 507 732 667 q 685 228 732 340 q 550 58 639 115 q 333 0 461 0 l 114 0 l 114 454 l 33 454 l 33 553 l 114 553 l 114 992 l 347 992 m 340 886 l 233 886 l 233 553 l 401 553 l 401 454 l 233 454 l 233 106 l 326 106 q 539 206 471 106 q 607 503 607 306 q 576 717 607 632 q 487 844 546 801 q 340 886 428 886 z "},"Ñ":{"ha":869,"x_min":111,"x_max":760,"o":"m 760 0 l 617 0 l 219 813 l 214 813 q 219 739 217 776 q 222 665 221 701 q 224 592 224 628 l 224 0 l 111 0 l 111 992 l 254 992 l 650 189 l 654 189 q 651 262 653 224 q 648 338 649 300 q 647 407 647 376 l 647 992 l 760 992 l 760 0 m 215 1086 q 227 1153 218 1122 q 251 1208 236 1183 q 289 1245 267 1232 q 342 1258 311 1258 q 393 1247 368 1258 q 442 1219 418 1235 q 487 1191 465 1203 q 529 1179 508 1179 q 566 1201 553 1179 q 586 1260 579 1222 l 656 1260 q 617 1133 650 1178 q 531 1088 583 1088 q 479 1100 504 1088 q 430 1128 454 1113 q 385 1156 406 1143 q 344 1168 364 1168 q 308 1147 322 1168 q 285 1086 293 1126 l 215 1086 z "},"Ò":{"ha":860,"x_min":74,"x_max":788,"o":"m 788 497 q 767 294 788 388 q 702 132 746 201 q 591 24 658 63 q 431 -14 524 -14 q 268 26 336 -14 q 157 134 200 65 q 94 297 114 203 q 74 499 74 390 q 113 776 74 663 q 233 947 153 889 q 432 1006 313 1006 q 634 939 556 1006 q 750 758 713 872 q 788 497 788 643 m 199 497 q 224 276 199 367 q 301 140 250 186 q 431 93 353 93 q 559 139 508 93 q 635 275 610 185 q 661 497 661 365 q 605 797 661 694 q 432 899 549 899 q 301 853 353 899 q 224 717 249 807 q 199 497 199 628 m 404 1310 q 442 1240 419 1278 q 488 1165 464 1201 q 531 1103 511 1129 l 531 1088 l 456 1088 q 408 1133 435 1106 q 353 1190 381 1160 q 303 1247 325 1219 q 267 1297 281 1275 l 267 1310 l 404 1310 z "},"Ó":{"ha":860,"x_min":74,"x_max":788,"o":"m 788 497 q 767 294 788 388 q 702 132 746 201 q 591 24 658 63 q 431 -14 524 -14 q 268 26 336 -14 q 157 134 200 65 q 94 297 114 203 q 74 499 74 390 q 113 776 74 663 q 233 947 153 889 q 432 1006 313 1006 q 634 939 556 1006 q 750 758 713 872 q 788 497 788 643 m 199 497 q 224 276 199 367 q 301 140 250 186 q 431 93 353 93 q 559 139 508 93 q 635 275 610 185 q 661 497 661 365 q 605 797 661 694 q 432 899 549 899 q 301 853 353 899 q 224 717 249 807 q 199 497 199 628 m 618 1297 q 583 1247 606 1275 q 533 1190 560 1219 q 478 1133 506 1160 q 429 1088 451 1107 l 354 1088 l 354 1103 q 402 1173 379 1138 q 445 1244 425 1208 q 481 1310 465 1279 l 618 1310 l 618 1297 z "},"Ô":{"ha":860,"x_min":74,"x_max":788,"o":"m 788 497 q 767 294 788 388 q 702 132 746 201 q 591 24 658 63 q 431 -14 524 -14 q 268 26 336 -14 q 157 134 200 65 q 94 297 114 203 q 74 499 74 390 q 113 776 74 663 q 233 947 153 889 q 432 1006 313 1006 q 634 939 556 1006 q 750 758 713 872 q 788 497 788 643 m 199 497 q 224 276 199 367 q 301 140 250 186 q 431 93 353 93 q 559 139 508 93 q 635 275 610 185 q 661 497 661 365 q 605 797 661 694 q 432 899 549 899 q 301 853 353 899 q 224 717 249 807 q 199 497 199 628 m 485 1310 q 524 1242 500 1279 q 576 1167 549 1204 q 628 1101 604 1131 l 628 1088 l 558 1088 q 494 1147 526 1114 q 429 1217 463 1181 q 363 1146 396 1181 q 300 1088 329 1111 l 232 1088 l 232 1101 q 284 1172 257 1135 q 335 1244 311 1208 q 372 1310 358 1281 l 485 1310 z "},"Õ":{"ha":860,"x_min":74,"x_max":788,"o":"m 788 497 q 767 294 788 388 q 702 132 746 201 q 591 24 658 63 q 431 -14 524 -14 q 268 26 336 -14 q 157 134 200 65 q 94 297 114 203 q 74 499 74 390 q 113 776 74 663 q 233 947 153 889 q 432 1006 313 1006 q 634 939 556 1006 q 750 758 713 872 q 788 497 788 643 m 199 497 q 224 276 199 367 q 301 140 250 186 q 431 93 353 93 q 559 139 508 93 q 635 275 610 185 q 661 497 661 365 q 605 797 661 694 q 432 899 549 899 q 301 853 353 899 q 224 717 249 807 q 199 497 199 628 m 211 1086 q 223 1153 214 1122 q 247 1208 232 1183 q 285 1245 263 1232 q 338 1258 307 1258 q 389 1247 364 1258 q 438 1219 414 1235 q 483 1191 461 1203 q 525 1179 504 1179 q 562 1201 549 1179 q 582 1260 575 1222 l 651 1260 q 613 1133 646 1178 q 526 1088 579 1088 q 475 1100 500 1088 q 426 1128 450 1113 q 381 1156 401 1143 q 340 1168 360 1168 q 303 1147 318 1168 q 281 1086 289 1126 l 211 1086 z "},"Ö":{"ha":860,"x_min":74,"x_max":788,"o":"m 788 497 q 767 294 788 388 q 702 132 746 201 q 591 24 658 63 q 431 -14 524 -14 q 268 26 336 -14 q 157 134 200 65 q 94 297 114 203 q 74 499 74 390 q 113 776 74 663 q 233 947 153 889 q 432 1006 313 1006 q 634 939 556 1006 q 750 758 713 872 q 788 497 788 643 m 199 497 q 224 276 199 367 q 301 140 250 186 q 431 93 353 93 q 559 139 508 93 q 635 275 610 185 q 661 497 661 365 q 605 797 661 694 q 432 899 549 899 q 301 853 353 899 q 224 717 249 807 q 199 497 199 628 m 251 1179 q 269 1232 251 1215 q 313 1249 286 1249 q 355 1231 338 1249 q 372 1179 372 1214 q 355 1125 372 1143 q 313 1107 338 1107 q 269 1125 286 1107 q 251 1179 251 1143 m 488 1179 q 506 1232 488 1215 q 549 1249 524 1249 q 592 1231 574 1249 q 610 1179 610 1214 q 592 1125 610 1143 q 549 1107 574 1107 q 505 1125 522 1107 q 488 1179 488 1143 z "},"×":{"ha":657,"x_min":58,"x_max":599,"o":"m 531 761 l 599 696 l 394 490 l 596 288 l 529 221 l 326 424 l 125 221 l 58 288 l 260 490 l 58 692 l 124 760 l 326 557 l 531 761 z "},"Ø":{"ha":860,"x_min":74,"x_max":788,"o":"m 788 497 q 765 281 788 376 q 697 120 742 186 q 585 20 651 54 q 431 -14 518 -14 q 322 3 372 -14 q 232 50 272 19 l 172 -60 l 97 -21 l 169 114 q 97 281 121 185 q 74 499 74 376 q 114 776 74 663 q 233 947 154 889 q 432 1006 313 1006 q 540 988 490 1006 q 631 936 590 971 l 692 1044 l 767 1003 l 693 871 q 764 712 740 806 q 788 497 788 618 m 663 497 q 624 746 663 651 l 288 153 q 351 107 315 122 q 431 92 386 92 q 560 138 508 92 q 638 274 613 183 q 663 497 663 365 m 197 497 q 208 350 197 415 q 239 238 218 285 l 576 833 q 513 883 549 867 q 432 900 478 900 q 301 853 353 900 q 223 717 249 807 q 197 497 197 628 z "},"Ù":{"ha":813,"x_min":103,"x_max":708,"o":"m 708 322 q 675 138 708 213 q 574 25 642 64 q 406 -14 507 -14 q 181 72 258 -14 q 103 322 103 157 l 103 992 l 222 992 l 222 321 q 269 149 222 204 q 407 93 317 93 q 510 118 469 93 q 569 194 550 143 q 589 322 589 244 l 589 992 l 708 992 l 708 322 m 379 1310 q 417 1240 394 1278 q 463 1165 439 1201 q 506 1103 486 1129 l 506 1088 l 431 1088 q 383 1133 410 1106 q 328 1190 356 1160 q 278 1247 300 1219 q 242 1297 256 1275 l 242 1310 l 379 1310 z "},"Ú":{"ha":813,"x_min":103,"x_max":708,"o":"m 708 322 q 675 138 708 213 q 574 25 642 64 q 406 -14 507 -14 q 181 72 258 -14 q 103 322 103 157 l 103 992 l 222 992 l 222 321 q 269 149 222 204 q 407 93 317 93 q 510 118 469 93 q 569 194 550 143 q 589 322 589 244 l 589 992 l 708 992 l 708 322 m 593 1297 q 558 1247 581 1275 q 508 1190 535 1219 q 453 1133 481 1160 q 404 1088 426 1107 l 329 1088 l 329 1103 q 377 1173 354 1138 q 420 1244 400 1208 q 456 1310 440 1279 l 593 1310 l 593 1297 z "},"Û":{"ha":813,"x_min":103,"x_max":708,"o":"m 708 322 q 675 138 708 213 q 574 25 642 64 q 406 -14 507 -14 q 181 72 258 -14 q 103 322 103 157 l 103 992 l 222 992 l 222 321 q 269 149 222 204 q 407 93 317 93 q 510 118 469 93 q 569 194 550 143 q 589 322 589 244 l 589 992 l 708 992 l 708 322 m 461 1310 q 501 1242 476 1279 q 553 1167 525 1204 q 604 1101 581 1131 l 604 1088 l 535 1088 q 471 1147 503 1114 q 406 1217 439 1181 q 339 1146 372 1181 q 276 1088 306 1111 l 208 1088 l 208 1101 q 260 1172 233 1135 q 311 1244 288 1208 q 349 1310 335 1281 l 461 1310 z "},"Ü":{"ha":813,"x_min":103,"x_max":708,"o":"m 708 322 q 675 138 708 213 q 574 25 642 64 q 406 -14 507 -14 q 181 72 258 -14 q 103 322 103 157 l 103 992 l 222 992 l 222 321 q 269 149 222 204 q 407 93 317 93 q 510 118 469 93 q 569 194 550 143 q 589 322 589 244 l 589 992 l 708 992 l 708 322 m 226 1179 q 244 1232 226 1215 q 288 1249 261 1249 q 330 1231 313 1249 q 347 1179 347 1214 q 330 1125 347 1143 q 288 1107 313 1107 q 244 1125 261 1107 q 226 1179 226 1143 m 463 1179 q 481 1232 463 1215 q 524 1249 499 1249 q 567 1231 549 1249 q 585 1179 585 1214 q 567 1125 585 1143 q 524 1107 549 1107 q 480 1125 497 1107 q 463 1179 463 1143 z "},"Ý":{"ha":617,"x_min":0,"x_max":617,"o":"m 310 519 l 490 992 l 617 992 l 368 386 l 368 0 l 249 0 l 249 382 l 0 992 l 126 992 l 310 519 m 496 1297 q 460 1247 483 1275 q 410 1190 438 1219 q 356 1133 383 1160 q 307 1088 329 1107 l 232 1088 l 232 1103 q 280 1173 257 1138 q 323 1244 303 1208 q 358 1310 343 1279 l 496 1310 l 496 1297 z "},"Þ":{"ha":676,"x_min":111,"x_max":628,"o":"m 628 532 q 610 401 628 460 q 555 301 593 343 q 456 237 517 260 q 310 214 396 214 l 231 214 l 231 0 l 111 0 l 111 992 l 231 992 l 231 819 l 317 819 q 553 747 479 819 q 628 532 628 674 m 299 319 q 419 341 374 319 q 486 408 465 363 q 507 525 507 453 q 460 669 507 624 q 313 714 414 714 l 231 714 l 231 319 l 299 319 z "},"ß":{"ha":707,"x_min":99,"x_max":658,"o":"m 586 856 q 571 779 586 813 q 534 719 556 746 q 490 669 513 693 q 453 623 468 646 q 438 574 438 600 q 447 532 438 551 q 475 492 456 513 q 528 442 494 471 q 602 365 574 400 q 644 295 631 331 q 658 211 658 260 q 632 89 658 139 q 557 13 606 39 q 440 -14 508 -14 q 356 -4 397 -14 q 285 26 315 6 l 285 136 q 328 112 304 124 q 378 93 351 100 q 433 86 404 86 q 516 117 489 86 q 543 203 543 149 q 533 258 543 233 q 501 309 524 283 q 442 367 479 335 q 372 440 397 407 q 335 504 346 474 q 325 567 325 535 q 340 635 325 607 q 376 688 354 664 q 420 735 399 713 q 456 786 442 758 q 469 851 469 814 q 438 935 469 907 q 349 963 407 963 q 278 945 310 963 q 231 892 247 928 q 214 799 214 856 l 214 0 l 99 0 l 99 800 q 130 944 99 886 q 218 1033 161 1003 q 351 1063 275 1063 q 476 1039 424 1063 q 557 969 528 1015 q 586 856 586 924 z "},"à":{"ha":638,"x_min":53,"x_max":543,"o":"m 326 758 q 492 694 442 758 q 543 504 543 629 l 543 0 l 456 0 l 438 104 l 433 104 q 383 38 411 64 q 320 -1 356 13 q 239 -14 285 -14 q 137 15 179 -14 q 74 94 94 44 q 53 208 53 144 q 124 380 53 319 q 332 446 194 440 l 429 450 l 429 499 q 400 625 429 586 q 313 664 371 664 q 233 651 274 664 q 151 615 193 639 l 115 701 q 214 744 160 729 q 326 758 268 758 m 350 364 q 213 321 254 360 q 171 210 171 282 q 199 111 171 143 q 275 79 226 79 q 387 135 344 79 q 429 296 429 192 l 429 368 l 350 364 m 299 1064 q 336 994 314 1032 q 382 919 358 956 q 425 857 406 883 l 425 842 l 350 842 q 302 887 329 860 q 247 944 275 914 q 197 1001 219 974 q 161 1051 175 1029 l 161 1064 l 299 1064 z "},"á":{"ha":638,"x_min":53,"x_max":543,"o":"m 326 758 q 492 694 442 758 q 543 504 543 629 l 543 0 l 456 0 l 438 104 l 433 104 q 383 38 411 64 q 320 -1 356 13 q 239 -14 285 -14 q 137 15 179 -14 q 74 94 94 44 q 53 208 53 144 q 124 380 53 319 q 332 446 194 440 l 429 450 l 429 499 q 400 625 429 586 q 313 664 371 664 q 233 651 274 664 q 151 615 193 639 l 115 701 q 214 744 160 729 q 326 758 268 758 m 350 364 q 213 321 254 360 q 171 210 171 282 q 199 111 171 143 q 275 79 226 79 q 387 135 344 79 q 429 296 429 192 l 429 368 l 350 364 m 513 1051 q 477 1001 500 1029 q 427 944 454 974 q 373 888 400 914 q 324 842 346 861 l 249 842 l 249 857 q 297 927 274 892 q 340 998 319 963 q 375 1064 360 1033 l 513 1064 l 513 1051 z "},"â":{"ha":638,"x_min":53,"x_max":543,"o":"m 326 758 q 492 694 442 758 q 543 504 543 629 l 543 0 l 456 0 l 438 104 l 433 104 q 383 38 411 64 q 320 -1 356 13 q 239 -14 285 -14 q 137 15 179 -14 q 74 94 94 44 q 53 208 53 144 q 124 380 53 319 q 332 446 194 440 l 429 450 l 429 499 q 400 625 429 586 q 313 664 371 664 q 233 651 274 664 q 151 615 193 639 l 115 701 q 214 744 160 729 q 326 758 268 758 m 350 364 q 213 321 254 360 q 171 210 171 282 q 199 111 171 143 q 275 79 226 79 q 387 135 344 79 q 429 296 429 192 l 429 368 l 350 364 m 381 1064 q 420 996 396 1033 q 472 922 444 958 q 524 856 500 885 l 524 842 l 454 842 q 390 901 422 868 q 325 971 358 935 q 258 900 292 935 q 196 842 225 865 l 128 842 l 128 856 q 180 926 153 889 q 231 999 207 963 q 268 1064 254 1035 l 381 1064 z "},"ã":{"ha":638,"x_min":53,"x_max":547,"o":"m 326 758 q 492 694 442 758 q 543 504 543 629 l 543 0 l 456 0 l 438 104 l 433 104 q 383 38 411 64 q 320 -1 356 13 q 239 -14 285 -14 q 137 15 179 -14 q 74 94 94 44 q 53 208 53 144 q 124 380 53 319 q 332 446 194 440 l 429 450 l 429 499 q 400 625 429 586 q 313 664 371 664 q 233 651 274 664 q 151 615 193 639 l 115 701 q 214 744 160 729 q 326 758 268 758 m 350 364 q 213 321 254 360 q 171 210 171 282 q 199 111 171 143 q 275 79 226 79 q 387 135 344 79 q 429 296 429 192 l 429 368 l 350 364 m 106 840 q 117 907 108 876 q 142 962 126 938 q 179 999 157 986 q 232 1013 201 1013 q 283 1001 258 1013 q 332 973 308 989 q 377 945 356 957 q 419 933 399 933 q 456 955 443 933 q 476 1014 469 976 l 546 1014 q 507 887 540 932 q 421 842 474 842 q 369 854 394 842 q 320 882 344 867 q 275 910 296 897 q 235 922 254 922 q 198 901 213 922 q 175 840 183 881 l 106 840 z "},"ä":{"ha":638,"x_min":53,"x_max":543,"o":"m 326 758 q 492 694 442 758 q 543 504 543 629 l 543 0 l 456 0 l 438 104 l 433 104 q 383 38 411 64 q 320 -1 356 13 q 239 -14 285 -14 q 137 15 179 -14 q 74 94 94 44 q 53 208 53 144 q 124 380 53 319 q 332 446 194 440 l 429 450 l 429 499 q 400 625 429 586 q 313 664 371 664 q 233 651 274 664 q 151 615 193 639 l 115 701 q 214 744 160 729 q 326 758 268 758 m 350 364 q 213 321 254 360 q 171 210 171 282 q 199 111 171 143 q 275 79 226 79 q 387 135 344 79 q 429 296 429 192 l 429 368 l 350 364 m 146 933 q 163 986 146 969 q 207 1003 181 1003 q 249 985 232 1003 q 267 933 267 968 q 249 879 267 897 q 207 861 232 861 q 163 879 181 861 q 146 933 146 897 m 382 933 q 400 986 382 969 q 443 1003 418 1003 q 486 985 468 1003 q 504 933 504 968 q 486 879 504 897 q 443 861 468 861 q 399 879 417 861 q 382 933 382 897 z "},"å":{"ha":638,"x_min":53,"x_max":543,"o":"m 326 758 q 492 694 442 758 q 543 504 543 629 l 543 0 l 456 0 l 438 104 l 433 104 q 383 38 411 64 q 320 -1 356 13 q 239 -14 285 -14 q 137 15 179 -14 q 74 94 94 44 q 53 208 53 144 q 124 380 53 319 q 332 446 194 440 l 429 450 l 429 499 q 400 625 429 586 q 313 664 371 664 q 233 651 274 664 q 151 615 193 639 l 115 701 q 214 744 160 729 q 326 758 268 758 m 350 364 q 213 321 254 360 q 171 210 171 282 q 199 111 171 143 q 275 79 226 79 q 387 135 344 79 q 429 296 429 192 l 429 368 l 350 364 m 325 844 q 217 883 257 844 q 178 986 178 921 q 217 1090 178 1051 q 325 1128 257 1128 q 431 1090 389 1128 q 474 989 474 1053 q 433 883 474 922 q 325 844 392 844 m 326 913 q 380 933 358 913 q 401 986 401 953 q 381 1040 401 1019 q 326 1061 361 1061 q 272 1040 293 1061 q 250 986 250 1019 q 269 933 250 953 q 326 913 289 913 z "},"æ":{"ha":990,"x_min":53,"x_max":928,"o":"m 683 758 q 818 715 764 758 q 900 598 872 672 q 928 428 928 524 l 928 351 l 538 351 q 585 149 540 215 q 715 83 629 83 q 809 96 764 83 q 899 133 854 108 l 899 33 q 808 -2 854 10 q 707 -14 763 -14 q 609 3 656 -14 q 528 55 563 21 q 469 138 493 89 q 412 53 444 88 q 338 3 379 19 q 244 -14 297 -14 q 140 15 183 -14 q 74 94 96 44 q 53 208 53 144 q 83 334 53 282 q 176 415 114 386 q 326 446 238 443 l 422 450 l 422 499 q 393 624 422 585 q 306 664 364 664 q 228 651 268 664 q 146 615 188 639 l 108 701 q 203 742 150 726 q 315 758 256 758 q 428 733 383 758 q 494 653 472 707 q 574 731 526 704 q 683 758 621 758 m 344 364 q 212 322 253 360 q 171 210 171 285 q 198 111 171 143 q 272 79 225 79 q 351 104 318 79 q 403 178 385 129 q 422 296 422 226 l 422 368 l 344 364 m 682 664 q 583 609 619 664 q 540 442 546 554 l 817 442 q 803 556 817 506 q 759 635 789 606 q 682 664 729 664 z "},"ç":{"ha":538,"x_min":65,"x_max":503,"o":"m 340 -14 q 191 28 253 -14 q 97 155 129 69 q 65 368 65 240 q 98 582 65 494 q 193 715 131 669 q 344 760 256 760 q 433 750 393 760 q 503 724 472 740 l 468 628 q 408 649 439 640 q 349 657 378 657 q 256 625 293 657 q 201 528 219 593 q 183 369 183 464 q 201 213 183 276 q 257 118 219 150 q 349 86 294 86 q 424 97 388 86 q 493 124 460 107 l 493 25 q 422 -3 463 7 q 340 -14 382 -14 m 454 -192 q 409 -297 454 -260 q 278 -333 364 -333 q 235 -331 254 -333 q 203 -325 217 -329 l 203 -250 q 233 -256 217 -254 q 267 -258 250 -258 q 335 -241 313 -258 q 358 -192 358 -224 q 328 -137 358 -156 q 247 -112 299 -119 l 299 0 l 369 0 l 338 -71 q 400 -94 374 -78 q 440 -134 426 -110 q 454 -192 454 -158 z "},"è":{"ha":642,"x_min":65,"x_max":581,"o":"m 331 758 q 468 715 413 758 q 552 597 524 672 q 581 428 581 522 l 581 350 l 181 350 q 230 151 183 218 q 367 85 276 85 q 461 97 417 85 q 551 136 506 110 l 551 33 q 460 -2 507 10 q 357 -14 414 -14 q 194 35 260 -14 q 97 169 129 83 q 65 368 65 254 q 97 580 65 493 q 188 713 128 667 q 331 758 247 758 m 331 664 q 226 608 264 664 q 182 442 189 553 l 469 442 q 455 554 469 504 q 409 634 440 604 q 331 664 378 664 m 299 1064 q 336 994 314 1032 q 382 919 358 956 q 425 857 406 883 l 425 842 l 350 842 q 302 887 329 860 q 247 944 275 914 q 197 1001 219 974 q 161 1051 175 1029 l 161 1064 l 299 1064 z "},"é":{"ha":642,"x_min":65,"x_max":581,"o":"m 331 758 q 468 715 413 758 q 552 597 524 672 q 581 428 581 522 l 581 350 l 181 350 q 230 151 183 218 q 367 85 276 85 q 461 97 417 85 q 551 136 506 110 l 551 33 q 460 -2 507 10 q 357 -14 414 -14 q 194 35 260 -14 q 97 169 129 83 q 65 368 65 254 q 97 580 65 493 q 188 713 128 667 q 331 758 247 758 m 331 664 q 226 608 264 664 q 182 442 189 553 l 469 442 q 455 554 469 504 q 409 634 440 604 q 331 664 378 664 m 513 1051 q 477 1001 500 1029 q 427 944 454 974 q 373 888 400 914 q 324 842 346 861 l 249 842 l 249 857 q 297 927 274 892 q 340 998 319 963 q 375 1064 360 1033 l 513 1064 l 513 1051 z "},"ê":{"ha":642,"x_min":65,"x_max":581,"o":"m 331 758 q 468 715 413 758 q 552 597 524 672 q 581 428 581 522 l 581 350 l 181 350 q 230 151 183 218 q 367 85 276 85 q 461 97 417 85 q 551 136 506 110 l 551 33 q 460 -2 507 10 q 357 -14 414 -14 q 194 35 260 -14 q 97 169 129 83 q 65 368 65 254 q 97 580 65 493 q 188 713 128 667 q 331 758 247 758 m 331 664 q 226 608 264 664 q 182 442 189 553 l 469 442 q 455 554 469 504 q 409 634 440 604 q 331 664 378 664 m 379 1064 q 419 996 394 1033 q 471 922 443 958 q 522 856 499 885 l 522 842 l 453 842 q 389 901 421 868 q 324 971 357 935 q 257 900 290 935 q 194 842 224 865 l 126 842 l 126 856 q 178 926 151 889 q 229 999 206 963 q 267 1064 253 1035 l 379 1064 z "},"ë":{"ha":642,"x_min":65,"x_max":581,"o":"m 331 758 q 468 715 413 758 q 552 597 524 672 q 581 428 581 522 l 581 350 l 181 350 q 230 151 183 218 q 367 85 276 85 q 461 97 417 85 q 551 136 506 110 l 551 33 q 460 -2 507 10 q 357 -14 414 -14 q 194 35 260 -14 q 97 169 129 83 q 65 368 65 254 q 97 580 65 493 q 188 713 128 667 q 331 758 247 758 m 331 664 q 226 608 264 664 q 182 442 189 553 l 469 442 q 455 554 469 504 q 409 634 440 604 q 331 664 378 664 m 146 933 q 163 986 146 969 q 207 1003 181 1003 q 249 985 232 1003 q 267 933 267 968 q 249 879 267 897 q 207 861 232 861 q 163 879 181 861 q 146 933 146 897 m 382 933 q 400 986 382 969 q 443 1003 418 1003 q 486 985 468 1003 q 504 933 504 968 q 486 879 504 897 q 443 861 468 861 q 399 879 417 861 q 382 933 382 897 z "},"ì":{"ha":313,"x_min":-8,"x_max":257,"o":"m 214 0 l 99 0 l 99 746 l 214 746 l 214 0 m 129 1064 q 167 994 144 1032 q 213 919 189 956 q 256 857 236 883 l 256 842 l 181 842 q 133 887 160 860 q 78 944 106 914 q 28 1001 50 974 q -8 1051 6 1029 l -8 1064 l 129 1064 z "},"í":{"ha":313,"x_min":79,"x_max":344,"o":"m 214 0 l 99 0 l 99 746 l 214 746 l 214 0 m 343 1051 q 308 1001 331 1029 q 258 944 285 974 q 203 888 231 914 q 154 842 176 861 l 79 842 l 79 857 q 127 927 104 892 q 170 998 150 963 q 206 1064 190 1033 l 343 1064 l 343 1051 z "},"î":{"ha":313,"x_min":-42,"x_max":354,"o":"m 214 0 l 99 0 l 99 746 l 214 746 l 214 0 m 211 1064 q 251 996 226 1033 q 303 922 275 958 q 354 856 331 885 l 354 842 l 285 842 q 221 901 253 868 q 156 971 189 935 q 89 900 122 935 q 26 842 56 865 l -42 842 l -42 856 q 10 926 -17 889 q 61 999 38 963 q 99 1064 85 1035 l 211 1064 z "},"ï":{"ha":313,"x_min":-24,"x_max":335,"o":"m 214 0 l 99 0 l 99 746 l 214 746 l 214 0 m -24 933 q -6 986 -24 969 q 38 1003 11 1003 q 80 985 63 1003 q 97 933 97 968 q 80 879 97 897 q 38 861 63 861 q -6 879 11 861 q -24 933 -24 897 m 213 933 q 231 986 213 969 q 274 1003 249 1003 q 317 985 299 1003 q 335 933 335 968 q 317 879 335 897 q 274 861 299 861 q 230 879 247 861 q 213 933 213 897 z "},"ð":{"ha":686,"x_min":64,"x_max":624,"o":"m 244 1060 q 308 1023 276 1043 q 369 978 339 1003 l 497 1057 l 544 992 l 428 921 q 534 771 490 854 q 601 587 578 688 q 624 367 624 486 q 591 157 624 242 q 495 29 558 72 q 342 -14 432 -14 q 192 31 254 -14 q 97 151 129 75 q 64 324 64 228 q 96 504 64 429 q 186 619 128 579 q 324 658 244 658 q 388 651 358 658 q 440 628 417 643 q 482 590 464 614 l 486 592 q 433 737 469 669 q 344 863 396 804 l 215 782 l 169 849 l 286 921 q 241 957 264 940 q 194 989 218 974 l 244 1060 m 344 560 q 253 532 289 560 q 199 451 217 504 q 181 319 181 399 q 198 199 181 253 q 251 115 215 146 q 344 85 288 85 q 469 148 431 85 q 507 336 507 211 q 497 422 507 382 q 467 493 488 463 q 417 542 447 524 q 344 560 386 560 z "},"ñ":{"ha":701,"x_min":99,"x_max":606,"o":"m 397 760 q 553 697 501 760 q 606 500 606 633 l 606 0 l 490 0 l 490 482 q 463 614 490 569 q 375 658 436 658 q 251 593 288 658 q 214 388 214 528 l 214 0 l 99 0 l 99 746 l 192 746 l 206 644 l 213 644 q 260 708 232 682 q 324 747 288 733 q 397 760 360 760 m 139 840 q 151 907 142 876 q 175 962 160 938 q 213 999 190 986 q 265 1013 235 1013 q 317 1001 292 1013 q 365 973 342 989 q 410 945 389 957 q 453 933 432 933 q 490 955 476 933 q 510 1014 503 976 l 579 1014 q 540 887 574 932 q 454 842 507 842 q 403 854 428 842 q 353 882 378 867 q 308 910 329 897 q 268 922 288 922 q 231 901 246 922 q 208 840 217 881 l 139 840 z "},"ò":{"ha":685,"x_min":64,"x_max":621,"o":"m 621 374 q 603 214 621 285 q 550 92 585 143 q 463 13 515 40 q 340 -14 410 -14 q 224 13 275 -14 q 136 91 172 40 q 82 213 100 142 q 64 374 64 285 q 95 583 64 497 q 189 715 126 669 q 343 760 251 760 q 492 715 429 760 q 588 585 554 671 q 621 374 621 500 m 182 374 q 199 216 182 281 q 252 119 217 151 q 343 86 288 86 q 434 119 399 86 q 487 216 469 151 q 504 374 504 281 q 487 531 504 468 q 434 627 469 594 q 343 660 399 660 q 220 587 258 660 q 182 374 182 514 m 315 1064 q 353 994 331 1032 q 399 919 375 956 q 442 857 422 883 l 442 842 l 367 842 q 319 887 346 860 q 264 944 292 914 q 214 1001 236 974 q 178 1051 192 1029 l 178 1064 l 315 1064 z "},"ó":{"ha":685,"x_min":64,"x_max":621,"o":"m 621 374 q 603 214 621 285 q 550 92 585 143 q 463 13 515 40 q 340 -14 410 -14 q 224 13 275 -14 q 136 91 172 40 q 82 213 100 142 q 64 374 64 285 q 95 583 64 497 q 189 715 126 669 q 343 760 251 760 q 492 715 429 760 q 588 585 554 671 q 621 374 621 500 m 182 374 q 199 216 182 281 q 252 119 217 151 q 343 86 288 86 q 434 119 399 86 q 487 216 469 151 q 504 374 504 281 q 487 531 504 468 q 434 627 469 594 q 343 660 399 660 q 220 587 258 660 q 182 374 182 514 m 529 1051 q 494 1001 517 1029 q 444 944 471 974 q 390 888 417 914 q 340 842 363 861 l 265 842 l 265 857 q 313 927 290 892 q 356 998 336 963 q 392 1064 376 1033 l 529 1064 l 529 1051 z "},"ô":{"ha":685,"x_min":64,"x_max":621,"o":"m 621 374 q 603 214 621 285 q 550 92 585 143 q 463 13 515 40 q 340 -14 410 -14 q 224 13 275 -14 q 136 91 172 40 q 82 213 100 142 q 64 374 64 285 q 95 583 64 497 q 189 715 126 669 q 343 760 251 760 q 492 715 429 760 q 588 585 554 671 q 621 374 621 500 m 182 374 q 199 216 182 281 q 252 119 217 151 q 343 86 288 86 q 434 119 399 86 q 487 216 469 151 q 504 374 504 281 q 487 531 504 468 q 434 627 469 594 q 343 660 399 660 q 220 587 258 660 q 182 374 182 514 m 397 1064 q 437 996 413 1033 q 489 922 461 958 q 540 856 517 885 l 540 842 l 471 842 q 407 901 439 868 q 342 971 375 935 q 275 900 308 935 q 213 842 242 865 l 144 842 l 144 856 q 197 926 169 889 q 247 999 224 963 q 285 1064 271 1035 l 397 1064 z "},"õ":{"ha":685,"x_min":64,"x_max":621,"o":"m 621 374 q 603 214 621 285 q 550 92 585 143 q 463 13 515 40 q 340 -14 410 -14 q 224 13 275 -14 q 136 91 172 40 q 82 213 100 142 q 64 374 64 285 q 95 583 64 497 q 189 715 126 669 q 343 760 251 760 q 492 715 429 760 q 588 585 554 671 q 621 374 621 500 m 182 374 q 199 216 182 281 q 252 119 217 151 q 343 86 288 86 q 434 119 399 86 q 487 216 469 151 q 504 374 504 281 q 487 531 504 468 q 434 627 469 594 q 343 660 399 660 q 220 587 258 660 q 182 374 182 514 m 122 840 q 134 907 125 876 q 158 962 143 938 q 196 999 174 986 q 249 1013 218 1013 q 300 1001 275 1013 q 349 973 325 989 q 394 945 372 957 q 436 933 415 933 q 473 955 460 933 q 493 1014 486 976 l 563 1014 q 524 887 557 932 q 438 842 490 842 q 386 854 411 842 q 337 882 361 867 q 292 910 313 897 q 251 922 271 922 q 215 901 229 922 q 192 840 200 881 l 122 840 z "},"ö":{"ha":685,"x_min":64,"x_max":621,"o":"m 621 374 q 603 214 621 285 q 550 92 585 143 q 463 13 515 40 q 340 -14 410 -14 q 224 13 275 -14 q 136 91 172 40 q 82 213 100 142 q 64 374 64 285 q 95 583 64 497 q 189 715 126 669 q 343 760 251 760 q 492 715 429 760 q 588 585 554 671 q 621 374 621 500 m 182 374 q 199 216 182 281 q 252 119 217 151 q 343 86 288 86 q 434 119 399 86 q 487 216 469 151 q 504 374 504 281 q 487 531 504 468 q 434 627 469 594 q 343 660 399 660 q 220 587 258 660 q 182 374 182 514 m 163 933 q 180 986 163 969 q 224 1003 197 1003 q 266 985 249 1003 q 283 933 283 968 q 266 879 283 897 q 224 861 249 861 q 180 879 197 861 q 163 933 163 897 m 399 933 q 417 986 399 969 q 460 1003 435 1003 q 503 985 485 1003 q 521 933 521 968 q 503 879 521 897 q 460 861 485 861 q 416 879 433 861 q 399 933 399 897 z "},"÷":{"ha":657,"x_min":50,"x_max":604,"o":"m 50 442 l 50 538 l 604 538 l 604 442 l 50 442 m 329 160 q 275 181 294 160 q 256 244 256 201 q 275 310 256 289 q 329 331 294 331 q 380 310 361 331 q 399 244 399 289 q 379 181 399 201 q 329 160 360 160 m 329 649 q 275 669 294 649 q 256 735 256 690 q 275 799 256 779 q 329 819 294 819 q 380 799 361 819 q 399 735 399 779 q 379 669 399 690 q 329 649 360 649 z "},"ø":{"ha":685,"x_min":63,"x_max":621,"o":"m 621 374 q 588 163 621 250 q 492 31 554 76 q 339 -14 429 -14 q 263 -3 299 -14 q 199 28 228 8 l 143 -78 l 71 -39 l 139 86 q 82 210 101 139 q 63 374 63 282 q 135 661 63 563 q 343 760 208 760 q 421 747 385 760 q 488 710 457 735 l 540 806 l 613 767 l 550 651 q 602 531 583 600 q 621 374 621 461 m 179 374 q 185 276 179 319 q 203 199 190 232 l 440 619 q 397 651 422 642 q 342 661 372 661 q 218 588 257 661 q 179 374 179 515 m 506 374 q 500 465 506 424 q 485 536 494 506 l 249 118 q 290 92 267 101 q 342 82 314 82 q 434 115 397 82 q 488 214 471 149 q 506 374 506 279 z "},"ù":{"ha":701,"x_min":94,"x_max":603,"o":"m 603 746 l 603 0 l 508 0 l 494 100 l 488 100 q 441 37 469 63 q 378 -1 413 11 q 304 -14 343 -14 q 184 19 231 -14 q 116 112 138 51 q 94 258 94 172 l 94 746 l 210 746 l 210 276 q 238 134 210 181 q 324 88 265 88 q 420 117 385 88 q 471 204 456 146 q 486 351 486 263 l 486 746 l 603 746 m 325 1064 q 363 994 340 1032 q 408 919 385 956 q 451 857 432 883 l 451 842 l 376 842 q 328 887 356 860 q 274 944 301 914 q 224 1001 246 974 q 188 1051 201 1029 l 188 1064 l 325 1064 z "},"ú":{"ha":701,"x_min":94,"x_max":603,"o":"m 603 746 l 603 0 l 508 0 l 494 100 l 488 100 q 441 37 469 63 q 378 -1 413 11 q 304 -14 343 -14 q 184 19 231 -14 q 116 112 138 51 q 94 258 94 172 l 94 746 l 210 746 l 210 276 q 238 134 210 181 q 324 88 265 88 q 420 117 385 88 q 471 204 456 146 q 486 351 486 263 l 486 746 l 603 746 m 539 1051 q 503 1001 526 1029 q 453 944 481 974 q 399 888 426 914 q 350 842 372 861 l 275 842 l 275 857 q 323 927 300 892 q 366 998 346 963 q 401 1064 386 1033 l 539 1064 l 539 1051 z "},"û":{"ha":701,"x_min":94,"x_max":603,"o":"m 603 746 l 603 0 l 508 0 l 494 100 l 488 100 q 441 37 469 63 q 378 -1 413 11 q 304 -14 343 -14 q 184 19 231 -14 q 116 112 138 51 q 94 258 94 172 l 94 746 l 210 746 l 210 276 q 238 134 210 181 q 324 88 265 88 q 420 117 385 88 q 471 204 456 146 q 486 351 486 263 l 486 746 l 603 746 m 407 1064 q 447 996 422 1033 q 499 922 471 958 q 550 856 526 885 l 550 842 l 481 842 q 417 901 449 868 q 351 971 385 935 q 285 900 318 935 q 222 842 251 865 l 154 842 l 154 856 q 206 926 179 889 q 257 999 233 963 q 294 1064 281 1035 l 407 1064 z "},"ü":{"ha":701,"x_min":94,"x_max":603,"o":"m 603 746 l 603 0 l 508 0 l 494 100 l 488 100 q 441 37 469 63 q 378 -1 413 11 q 304 -14 343 -14 q 184 19 231 -14 q 116 112 138 51 q 94 258 94 172 l 94 746 l 210 746 l 210 276 q 238 134 210 181 q 324 88 265 88 q 420 117 385 88 q 471 204 456 146 q 486 351 486 263 l 486 746 l 603 746 m 172 933 q 190 986 172 969 q 233 1003 207 1003 q 276 985 258 1003 q 293 933 293 968 q 276 879 293 897 q 233 861 258 861 q 190 879 207 861 q 172 933 172 897 m 408 933 q 426 986 408 969 q 469 1003 444 1003 q 513 985 494 1003 q 531 933 531 968 q 513 879 531 897 q 469 861 494 861 q 426 879 443 861 q 408 933 408 897 z "},"ý":{"ha":572,"x_min":4,"x_max":568,"o":"m 4 746 l 125 746 l 244 322 q 260 263 253 293 q 274 203 267 233 q 286 143 281 174 l 292 143 q 308 227 297 181 q 333 324 319 274 l 449 746 l 568 746 l 318 -110 q 266 -233 296 -183 q 195 -308 236 -283 q 97 -333 154 -333 q 56 -331 75 -333 q 18 -322 38 -328 l 18 -224 q 49 -229 32 -226 q 81 -232 65 -232 q 135 -218 113 -232 q 174 -174 157 -204 q 204 -93 190 -143 l 232 3 l 4 746 m 474 1051 q 438 1001 461 1029 q 388 944 415 974 q 334 888 361 914 q 285 842 307 861 l 210 842 l 210 857 q 258 927 235 892 q 301 998 281 963 q 336 1064 321 1033 l 474 1064 l 474 1051 z "},"þ":{"ha":706,"x_min":99,"x_max":643,"o":"m 643 374 q 614 163 643 250 q 531 31 585 76 q 403 -14 478 -14 q 324 0 360 -14 q 260 39 288 14 q 214 99 232 64 l 207 99 q 210 63 208 82 q 214 26 213 44 q 215 -7 215 8 l 215 -333 l 99 -333 l 99 1056 l 214 1056 l 214 753 q 213 698 214 726 q 210 644 213 669 l 214 644 q 263 708 236 682 q 322 747 289 733 q 397 760 356 760 q 578 661 514 760 q 643 374 643 563 m 524 374 q 488 590 524 521 q 374 660 451 660 q 253 596 290 660 q 214 397 215 532 l 214 369 q 251 156 214 225 q 375 86 289 86 q 464 124 432 86 q 510 226 496 161 q 524 374 524 292 z "},"ÿ":{"ha":572,"x_min":4,"x_max":568,"o":"m 4 746 l 125 746 l 244 322 q 260 263 253 293 q 274 203 267 233 q 286 143 281 174 l 292 143 q 308 227 297 181 q 333 324 319 274 l 449 746 l 568 746 l 318 -110 q 266 -233 296 -183 q 195 -308 236 -283 q 97 -333 154 -333 q 56 -331 75 -333 q 18 -322 38 -328 l 18 -224 q 49 -229 32 -226 q 81 -232 65 -232 q 135 -218 113 -232 q 174 -174 157 -204 q 204 -93 190 -143 l 232 3 l 4 746 m 107 933 q 124 986 107 969 q 168 1003 142 1003 q 210 985 193 1003 q 228 933 228 968 q 210 879 228 897 q 168 861 193 861 q 124 879 142 861 q 107 933 107 897 m 343 933 q 361 986 343 969 q 404 1003 379 1003 q 447 985 429 1003 q 465 933 465 968 q 447 879 465 897 q 404 861 429 861 q 360 879 378 861 q 343 933 343 897 z "},"Ā":{"ha":704,"x_min":0,"x_max":703,"o":"m 578 0 l 492 308 l 211 308 l 125 0 l 0 0 l 285 993 l 417 993 l 703 0 l 578 0 m 381 736 q 369 783 376 757 q 358 835 363 808 q 349 881 353 861 q 341 832 346 857 q 331 783 336 807 q 319 736 325 760 l 236 418 l 465 418 l 381 736 m 529 1185 l 529 1096 l 169 1096 l 169 1185 l 529 1185 z "},"ā":{"ha":638,"x_min":53,"x_max":543,"o":"m 326 758 q 492 694 442 758 q 543 504 543 629 l 543 0 l 456 0 l 438 104 l 433 104 q 383 38 411 64 q 320 -1 356 13 q 239 -14 285 -14 q 137 15 179 -14 q 74 94 94 44 q 53 208 53 144 q 124 380 53 319 q 332 446 194 440 l 429 450 l 429 499 q 400 625 429 586 q 313 664 371 664 q 233 651 274 664 q 151 615 193 639 l 115 701 q 214 744 160 729 q 326 758 268 758 m 350 364 q 213 321 254 360 q 171 210 171 282 q 199 111 171 143 q 275 79 226 79 q 387 135 344 79 q 429 296 429 192 l 429 368 l 350 364 m 504 939 l 504 850 l 144 850 l 144 939 l 504 939 z "},"Ă":{"ha":704,"x_min":0,"x_max":703,"o":"m 578 0 l 492 308 l 211 308 l 125 0 l 0 0 l 285 993 l 417 993 l 703 0 l 578 0 m 381 736 q 369 783 376 757 q 358 835 363 808 q 349 881 353 861 q 341 832 346 857 q 331 783 336 807 q 319 736 325 760 l 236 418 l 465 418 l 381 736 m 533 1275 q 508 1176 532 1218 q 444 1111 485 1133 q 347 1089 403 1089 q 217 1136 263 1089 q 167 1275 171 1183 l 240 1275 q 258 1219 244 1240 q 294 1188 271 1197 q 350 1178 318 1178 q 404 1188 381 1178 q 442 1219 428 1199 q 460 1275 457 1240 l 533 1275 z "},"ă":{"ha":638,"x_min":53,"x_max":543,"o":"m 326 758 q 492 694 442 758 q 543 504 543 629 l 543 0 l 456 0 l 438 104 l 433 104 q 383 38 411 64 q 320 -1 356 13 q 239 -14 285 -14 q 137 15 179 -14 q 74 94 94 44 q 53 208 53 144 q 124 380 53 319 q 332 446 194 440 l 429 450 l 429 499 q 400 625 429 586 q 313 664 371 664 q 233 651 274 664 q 151 615 193 639 l 115 701 q 214 744 160 729 q 326 758 268 758 m 350 364 q 213 321 254 360 q 171 210 171 282 q 199 111 171 143 q 275 79 226 79 q 387 135 344 79 q 429 296 429 192 l 429 368 l 350 364 m 508 1029 q 483 930 507 972 q 419 865 460 888 q 322 843 378 843 q 192 890 238 843 q 142 1029 146 938 l 215 1029 q 233 973 219 994 q 269 942 246 951 q 325 932 293 932 q 379 942 356 932 q 417 974 403 953 q 435 1029 432 994 l 508 1029 z "},"Ą":{"ha":704,"x_min":0,"x_max":703,"o":"m 578 0 l 492 308 l 211 308 l 125 0 l 0 0 l 285 993 l 417 993 l 703 0 l 578 0 m 381 736 q 369 783 376 757 q 358 835 363 808 q 349 881 353 861 q 341 832 346 857 q 331 783 336 807 q 319 736 325 760 l 236 418 l 465 418 l 381 736 m 578 -162 q 594 -212 578 -194 q 640 -229 611 -229 q 671 -226 658 -229 q 692 -221 683 -222 l 692 -299 q 660 -307 678 -304 q 619 -310 643 -310 q 517 -276 551 -310 q 483 -181 483 -243 q 499 -108 483 -143 q 541 -40 514 -72 q 600 18 568 -7 l 665 0 q 598 -83 618 -46 q 578 -162 578 -121 z "},"ą":{"ha":638,"x_min":53,"x_max":563,"o":"m 326 758 q 492 694 442 758 q 543 504 543 629 l 543 0 l 456 0 l 438 104 l 433 104 q 383 38 411 64 q 320 -1 356 13 q 239 -14 285 -14 q 137 15 179 -14 q 74 94 94 44 q 53 208 53 144 q 124 380 53 319 q 332 446 194 440 l 429 450 l 429 499 q 400 625 429 586 q 313 664 371 664 q 233 651 274 664 q 151 615 193 639 l 115 701 q 214 744 160 729 q 326 758 268 758 m 350 364 q 213 321 254 360 q 171 210 171 282 q 199 111 171 143 q 275 79 226 79 q 387 135 344 79 q 429 296 429 192 l 429 368 l 350 364 m 449 -162 q 465 -212 449 -194 q 511 -229 482 -229 q 542 -226 529 -229 q 563 -221 554 -222 l 563 -299 q 531 -307 549 -304 q 490 -310 514 -310 q 388 -276 422 -310 q 354 -181 354 -243 q 369 -108 354 -143 q 412 -40 385 -72 q 471 18 439 -7 l 536 0 q 469 -83 489 -46 q 449 -162 449 -121 z "},"Ć":{"ha":697,"x_min":74,"x_max":661,"o":"m 451 900 q 340 869 388 900 q 261 782 293 838 q 214 653 229 726 q 199 496 199 581 q 228 281 199 372 q 317 142 258 190 q 456 93 375 93 q 549 103 506 93 q 632 131 592 114 l 632 25 q 546 -4 592 6 q 442 -14 500 -14 q 243 48 325 -14 q 117 224 161 110 q 74 497 74 339 q 97 697 74 604 q 168 860 121 790 q 286 968 215 929 q 449 1007 357 1007 q 560 994 507 1007 q 661 954 614 981 l 617 853 q 540 887 582 874 q 451 900 499 900 m 615 1297 q 580 1247 603 1275 q 530 1190 557 1219 q 476 1133 503 1160 q 426 1088 449 1107 l 351 1088 l 351 1103 q 399 1173 376 1138 q 442 1244 422 1208 q 478 1310 463 1279 l 615 1310 l 615 1297 z "},"ć":{"ha":538,"x_min":65,"x_max":508,"o":"m 340 -14 q 191 28 253 -14 q 97 155 129 69 q 65 368 65 240 q 98 582 65 494 q 193 715 131 669 q 344 760 256 760 q 433 750 393 760 q 503 724 472 740 l 468 628 q 408 649 439 640 q 349 657 378 657 q 256 625 293 657 q 201 528 219 593 q 183 369 183 464 q 201 213 183 276 q 257 118 219 150 q 349 86 294 86 q 424 97 388 86 q 493 124 460 107 l 493 25 q 422 -3 463 7 q 340 -14 382 -14 m 508 1051 q 473 1001 496 1029 q 423 944 450 974 q 369 888 396 914 q 319 842 342 861 l 244 842 l 244 857 q 292 927 269 892 q 335 998 315 963 q 371 1064 356 1033 l 508 1064 l 508 1051 z "},"Ĉ":{"ha":697,"x_min":74,"x_max":661,"o":"m 451 900 q 340 869 388 900 q 261 782 293 838 q 214 653 229 726 q 199 496 199 581 q 228 281 199 372 q 317 142 258 190 q 456 93 375 93 q 549 103 506 93 q 632 131 592 114 l 632 25 q 546 -4 592 6 q 442 -14 500 -14 q 243 48 325 -14 q 117 224 161 110 q 74 497 74 339 q 97 697 74 604 q 168 860 121 790 q 286 968 215 929 q 449 1007 357 1007 q 560 994 507 1007 q 661 954 614 981 l 617 853 q 540 887 582 874 q 451 900 499 900 m 482 1310 q 522 1242 497 1279 q 574 1167 546 1204 q 625 1101 601 1131 l 625 1088 l 556 1088 q 492 1147 524 1114 q 426 1217 460 1181 q 360 1146 393 1181 q 297 1088 326 1111 l 229 1088 l 229 1101 q 281 1172 254 1135 q 332 1244 308 1208 q 369 1310 356 1281 l 482 1310 z "},"ĉ":{"ha":538,"x_min":65,"x_max":518,"o":"m 340 -14 q 191 28 253 -14 q 97 155 129 69 q 65 368 65 240 q 98 582 65 494 q 193 715 131 669 q 344 760 256 760 q 433 750 393 760 q 503 724 472 740 l 468 628 q 408 649 439 640 q 349 657 378 657 q 256 625 293 657 q 201 528 219 593 q 183 369 183 464 q 201 213 183 276 q 257 118 219 150 q 349 86 294 86 q 424 97 388 86 q 493 124 460 107 l 493 25 q 422 -3 463 7 q 340 -14 382 -14 m 375 1064 q 415 996 390 1033 q 467 922 439 958 q 518 856 494 885 l 518 842 l 449 842 q 385 901 417 868 q 319 971 353 935 q 253 900 286 935 q 190 842 219 865 l 122 842 l 122 856 q 174 926 147 889 q 225 999 201 963 q 263 1064 249 1035 l 375 1064 z "},"Ċ":{"ha":697,"x_min":74,"x_max":661,"o":"m 451 900 q 340 869 388 900 q 261 782 293 838 q 214 653 229 726 q 199 496 199 581 q 228 281 199 372 q 317 142 258 190 q 456 93 375 93 q 549 103 506 93 q 632 131 592 114 l 632 25 q 546 -4 592 6 q 442 -14 500 -14 q 243 48 325 -14 q 117 224 161 110 q 74 497 74 339 q 97 697 74 604 q 168 860 121 790 q 286 968 215 929 q 449 1007 357 1007 q 560 994 507 1007 q 661 954 614 981 l 617 853 q 540 887 582 874 q 451 900 499 900 m 429 1271 q 478 1251 460 1271 q 496 1192 496 1231 q 478 1133 496 1154 q 429 1113 460 1113 q 380 1133 399 1113 q 361 1192 361 1154 q 379 1251 361 1232 q 429 1271 397 1271 z "},"ċ":{"ha":538,"x_min":65,"x_max":503,"o":"m 340 -14 q 191 28 253 -14 q 97 155 129 69 q 65 368 65 240 q 98 582 65 494 q 193 715 131 669 q 344 760 256 760 q 433 750 393 760 q 503 724 472 740 l 468 628 q 408 649 439 640 q 349 657 378 657 q 256 625 293 657 q 201 528 219 593 q 183 369 183 464 q 201 213 183 276 q 257 118 219 150 q 349 86 294 86 q 424 97 388 86 q 493 124 460 107 l 493 25 q 422 -3 463 7 q 340 -14 382 -14 m 322 1025 q 371 1005 353 1025 q 389 946 389 985 q 371 888 389 908 q 322 867 353 867 q 273 888 292 867 q 254 946 254 908 q 272 1006 254 986 q 322 1025 290 1025 z "},"Č":{"ha":697,"x_min":74,"x_max":661,"o":"m 451 900 q 340 869 388 900 q 261 782 293 838 q 214 653 229 726 q 199 496 199 581 q 228 281 199 372 q 317 142 258 190 q 456 93 375 93 q 549 103 506 93 q 632 131 592 114 l 632 25 q 546 -4 592 6 q 442 -14 500 -14 q 243 48 325 -14 q 117 224 161 110 q 74 497 74 339 q 97 697 74 604 q 168 860 121 790 q 286 968 215 929 q 449 1007 357 1007 q 560 994 507 1007 q 661 954 614 981 l 617 853 q 540 887 582 874 q 451 900 499 900 m 369 1088 q 331 1155 354 1118 q 281 1228 307 1192 q 229 1294 254 1264 l 229 1310 l 297 1310 q 361 1251 328 1286 q 426 1181 394 1217 q 491 1249 463 1221 q 556 1310 519 1278 l 625 1310 l 625 1294 q 575 1231 603 1267 q 522 1157 547 1194 q 482 1088 497 1119 l 369 1088 z "},"č":{"ha":538,"x_min":65,"x_max":518,"o":"m 340 -14 q 191 28 253 -14 q 97 155 129 69 q 65 368 65 240 q 98 582 65 494 q 193 715 131 669 q 344 760 256 760 q 433 750 393 760 q 503 724 472 740 l 468 628 q 408 649 439 640 q 349 657 378 657 q 256 625 293 657 q 201 528 219 593 q 183 369 183 464 q 201 213 183 276 q 257 118 219 150 q 349 86 294 86 q 424 97 388 86 q 493 124 460 107 l 493 25 q 422 -3 463 7 q 340 -14 382 -14 m 263 842 q 224 909 247 872 q 174 982 200 946 q 122 1049 147 1018 l 122 1064 l 190 1064 q 254 1006 221 1040 q 319 935 288 971 q 384 1003 356 975 q 449 1064 413 1032 l 518 1064 l 518 1049 q 468 985 496 1021 q 415 911 440 949 q 375 842 390 874 l 263 842 z "},"Ď":{"ha":806,"x_min":111,"x_max":733,"o":"m 733 507 q 687 228 733 340 q 551 58 640 115 q 335 0 463 0 l 111 0 l 111 992 l 349 992 q 558 937 472 992 q 688 774 643 882 q 733 507 733 667 m 607 503 q 576 717 607 632 q 487 844 546 801 q 340 886 428 886 l 231 886 l 231 106 l 326 106 q 539 206 471 106 q 607 503 607 306 m 339 1088 q 300 1155 324 1118 q 250 1228 276 1192 q 199 1294 224 1264 l 199 1310 l 267 1310 q 331 1251 297 1286 q 396 1181 364 1217 q 460 1249 432 1221 q 525 1310 489 1278 l 594 1310 l 594 1294 q 544 1231 572 1267 q 492 1157 517 1194 q 451 1088 467 1119 l 339 1088 z "},"ď":{"ha":706,"x_min":64,"x_max":818,"o":"m 818 1042 q 797 974 813 1014 q 763 897 782 935 q 728 833 744 858 l 664 833 l 664 849 q 674 890 668 863 q 685 948 679 917 q 694 1008 690 979 q 700 1056 699 1038 l 818 1056 l 818 1042 m 308 -14 q 128 84 192 -14 q 64 372 64 182 q 128 660 64 560 q 306 760 192 760 q 381 747 347 760 q 444 709 415 733 q 492 650 472 685 l 497 650 q 494 705 496 678 q 492 754 492 732 l 492 1056 l 608 1056 l 608 0 l 515 0 l 499 96 l 492 96 q 446 38 472 63 q 385 -1 419 13 q 308 -14 351 -14 m 332 83 q 454 147 415 83 q 493 342 493 211 l 493 378 q 456 589 493 519 q 331 658 418 658 q 218 583 254 658 q 182 371 182 508 q 219 157 182 231 q 332 83 256 83 z "},"Đ":{"ha":806,"x_min":33,"x_max":732,"o":"m 347 992 q 556 937 471 992 q 687 774 642 882 q 732 507 732 667 q 685 228 732 340 q 550 58 639 115 q 333 0 461 0 l 114 0 l 114 454 l 33 454 l 33 553 l 114 553 l 114 992 l 347 992 m 340 886 l 233 886 l 233 553 l 401 553 l 401 454 l 233 454 l 233 106 l 326 106 q 539 206 471 106 q 607 503 607 306 q 576 717 607 632 q 487 844 546 801 q 340 886 428 886 z "},"đ":{"ha":706,"x_min":64,"x_max":696,"o":"m 308 -14 q 128 84 192 -14 q 64 368 64 182 q 128 653 64 556 q 306 751 192 751 q 381 738 347 751 q 444 701 415 725 q 492 642 472 676 l 497 642 q 494 697 496 668 q 492 747 492 725 l 492 844 l 293 844 l 293 932 l 492 932 l 492 1056 l 608 1056 l 608 932 l 696 932 l 696 844 l 608 844 l 608 0 l 514 0 l 499 97 l 490 97 q 444 37 471 63 q 385 -1 418 11 q 308 -14 351 -14 m 333 83 q 454 148 415 83 q 493 346 493 213 l 493 374 q 456 582 493 514 q 331 650 418 650 q 219 577 254 650 q 183 367 183 504 q 219 156 183 228 q 333 83 256 83 z "},"Ē":{"ha":622,"x_min":111,"x_max":554,"o":"m 554 0 l 111 0 l 111 992 l 554 992 l 554 886 l 231 886 l 231 571 l 535 571 l 535 465 l 231 465 l 231 107 l 554 107 l 554 0 m 517 1185 l 517 1096 l 157 1096 l 157 1185 l 517 1185 z "},"ē":{"ha":642,"x_min":65,"x_max":581,"o":"m 331 758 q 468 715 413 758 q 552 597 524 672 q 581 428 581 522 l 581 350 l 181 350 q 230 151 183 218 q 367 85 276 85 q 461 97 417 85 q 551 136 506 110 l 551 33 q 460 -2 507 10 q 357 -14 414 -14 q 194 35 260 -14 q 97 169 129 83 q 65 368 65 254 q 97 580 65 493 q 188 713 128 667 q 331 758 247 758 m 331 664 q 226 608 264 664 q 182 442 189 553 l 469 442 q 455 554 469 504 q 409 634 440 604 q 331 664 378 664 m 504 939 l 504 850 l 144 850 l 144 939 l 504 939 z "},"Ĕ":{"ha":622,"x_min":111,"x_max":554,"o":"m 554 0 l 111 0 l 111 992 l 554 992 l 554 886 l 231 886 l 231 571 l 535 571 l 535 465 l 231 465 l 231 107 l 554 107 l 554 0 m 519 1275 q 494 1176 518 1218 q 430 1111 471 1133 q 333 1089 389 1089 q 203 1136 249 1089 q 153 1275 157 1183 l 226 1275 q 244 1219 231 1240 q 281 1188 257 1197 q 336 1178 304 1178 q 390 1188 367 1178 q 428 1219 414 1199 q 446 1275 443 1240 l 519 1275 z "},"ĕ":{"ha":642,"x_min":65,"x_max":581,"o":"m 331 758 q 468 715 413 758 q 552 597 524 672 q 581 428 581 522 l 581 350 l 181 350 q 230 151 183 218 q 367 85 276 85 q 461 97 417 85 q 551 136 506 110 l 551 33 q 460 -2 507 10 q 357 -14 414 -14 q 194 35 260 -14 q 97 169 129 83 q 65 368 65 254 q 97 580 65 493 q 188 713 128 667 q 331 758 247 758 m 331 664 q 226 608 264 664 q 182 442 189 553 l 469 442 q 455 554 469 504 q 409 634 440 604 q 331 664 378 664 m 508 1029 q 483 930 507 972 q 419 865 460 888 q 322 843 378 843 q 192 890 238 843 q 142 1029 146 938 l 215 1029 q 233 973 219 994 q 269 942 246 951 q 325 932 293 932 q 379 942 356 932 q 417 974 403 953 q 435 1029 432 994 l 508 1029 z "},"Ė":{"ha":622,"x_min":111,"x_max":554,"o":"m 554 0 l 111 0 l 111 992 l 554 992 l 554 886 l 231 886 l 231 571 l 535 571 l 535 465 l 231 465 l 231 107 l 554 107 l 554 0 m 338 1271 q 386 1251 368 1271 q 404 1192 404 1231 q 386 1133 404 1154 q 338 1113 368 1113 q 288 1133 307 1113 q 269 1192 269 1154 q 288 1251 269 1232 q 338 1271 306 1271 z "},"ė":{"ha":642,"x_min":65,"x_max":581,"o":"m 331 758 q 468 715 413 758 q 552 597 524 672 q 581 428 581 522 l 581 350 l 181 350 q 230 151 183 218 q 367 85 276 85 q 461 97 417 85 q 551 136 506 110 l 551 33 q 460 -2 507 10 q 357 -14 414 -14 q 194 35 260 -14 q 97 169 129 83 q 65 368 65 254 q 97 580 65 493 q 188 713 128 667 q 331 758 247 758 m 331 664 q 226 608 264 664 q 182 442 189 553 l 469 442 q 455 554 469 504 q 409 634 440 604 q 331 664 378 664 m 326 1025 q 375 1005 357 1025 q 393 946 393 985 q 375 888 393 908 q 326 867 357 867 q 277 888 296 867 q 258 946 258 908 q 276 1006 258 986 q 326 1025 294 1025 z "},"Ę":{"ha":622,"x_min":111,"x_max":554,"o":"m 554 0 l 111 0 l 111 992 l 554 992 l 554 886 l 231 886 l 231 571 l 535 571 l 535 465 l 231 465 l 231 107 l 554 107 l 554 0 m 432 -162 q 449 -212 432 -194 q 494 -229 465 -229 q 525 -226 513 -229 q 546 -221 538 -222 l 546 -299 q 515 -307 532 -304 q 474 -310 497 -310 q 372 -276 406 -310 q 338 -181 338 -243 q 353 -108 338 -143 q 395 -40 368 -72 q 454 18 422 -7 l 519 0 q 452 -83 472 -46 q 432 -162 432 -121 z "},"ę":{"ha":642,"x_min":65,"x_max":581,"o":"m 432 -162 q 448 -210 432 -193 q 493 -226 464 -226 q 523 -224 510 -226 q 546 -218 536 -221 l 546 -297 q 512 -306 531 -303 q 471 -308 493 -308 q 369 -275 401 -308 q 336 -178 336 -242 q 351 -107 336 -142 q 392 -43 367 -72 q 446 7 417 -14 l 551 33 q 483 -38 510 -4 q 444 -103 457 -72 q 432 -162 432 -133 m 331 758 q 468 715 413 758 q 552 597 524 672 q 581 428 581 522 l 581 350 l 181 350 q 230 151 183 218 q 367 85 276 85 q 461 97 417 85 q 551 136 506 110 l 551 33 q 460 -2 507 10 q 357 -14 414 -14 q 194 35 260 -14 q 97 169 129 83 q 65 368 65 254 q 97 580 65 493 q 188 713 128 667 q 331 758 247 758 m 331 664 q 226 608 264 664 q 182 442 189 553 l 469 442 q 455 554 469 504 q 409 634 440 604 q 331 664 378 664 z "},"Ě":{"ha":622,"x_min":111,"x_max":554,"o":"m 554 0 l 111 0 l 111 992 l 554 992 l 554 886 l 231 886 l 231 571 l 535 571 l 535 465 l 231 465 l 231 107 l 554 107 l 554 0 m 279 1088 q 240 1155 264 1118 q 190 1228 217 1192 q 139 1294 164 1264 l 139 1310 l 207 1310 q 271 1251 238 1286 q 336 1181 304 1217 q 401 1249 372 1221 q 465 1310 429 1278 l 535 1310 l 535 1294 q 485 1231 513 1267 q 432 1157 457 1194 q 392 1088 407 1119 l 279 1088 z "},"ě":{"ha":642,"x_min":65,"x_max":581,"o":"m 331 758 q 468 715 413 758 q 552 597 524 672 q 581 428 581 522 l 581 350 l 181 350 q 230 151 183 218 q 367 85 276 85 q 461 97 417 85 q 551 136 506 110 l 551 33 q 460 -2 507 10 q 357 -14 414 -14 q 194 35 260 -14 q 97 169 129 83 q 65 368 65 254 q 97 580 65 493 q 188 713 128 667 q 331 758 247 758 m 331 664 q 226 608 264 664 q 182 442 189 553 l 469 442 q 455 554 469 504 q 409 634 440 604 q 331 664 378 664 m 267 842 q 228 909 251 872 q 178 982 204 946 q 126 1049 151 1018 l 126 1064 l 194 1064 q 258 1006 225 1040 q 324 935 292 971 q 388 1003 360 975 q 453 1064 417 1032 l 522 1064 l 522 1049 q 472 985 500 1021 q 419 911 444 949 q 379 842 394 874 l 267 842 z "},"Ĝ":{"ha":833,"x_min":74,"x_max":750,"o":"m 469 524 l 750 524 l 750 36 q 613 -1 683 11 q 464 -14 542 -14 q 246 52 332 -14 q 117 233 160 118 q 74 497 74 349 q 121 763 74 649 q 260 941 168 876 q 490 1006 353 1006 q 622 990 560 1006 q 738 943 683 974 l 694 842 q 596 885 647 869 q 490 900 544 900 q 332 853 397 900 q 233 715 267 806 q 199 496 199 625 q 227 289 199 381 q 317 145 256 197 q 479 93 379 93 q 564 99 526 93 q 632 114 601 104 l 632 418 l 469 418 l 469 524 m 524 1310 q 563 1242 539 1279 q 615 1167 588 1204 q 667 1101 643 1131 l 667 1088 l 597 1088 q 533 1147 565 1114 q 468 1217 501 1181 q 401 1146 435 1181 q 339 1088 368 1111 l 271 1088 l 271 1101 q 323 1172 296 1135 q 374 1244 350 1208 q 411 1310 397 1281 l 524 1310 z "},"ĝ":{"ha":706,"x_min":64,"x_max":608,"o":"m 308 760 q 413 733 367 760 q 492 647 458 706 l 499 647 l 513 746 l 608 746 l 608 -10 q 577 -185 608 -112 q 480 -296 546 -258 q 310 -333 414 -333 q 200 -322 250 -333 q 107 -289 150 -311 l 107 -181 q 206 -220 156 -207 q 311 -233 257 -233 q 447 -185 400 -233 q 493 -31 493 -136 l 493 -7 q 494 45 493 15 q 497 103 496 75 l 492 103 q 414 15 460 43 q 306 -14 368 -14 q 128 85 192 -14 q 64 369 64 183 q 129 660 64 560 q 308 760 194 760 m 329 658 q 247 625 281 658 q 198 527 214 592 q 182 368 182 463 q 219 154 182 224 q 333 85 257 85 q 403 101 374 85 q 453 148 433 117 q 483 228 474 179 q 493 340 493 276 l 493 374 q 476 536 493 474 q 422 628 458 599 q 329 658 386 658 m 411 1064 q 451 996 426 1033 q 503 922 475 958 q 554 856 531 885 l 554 842 l 485 842 q 421 901 453 868 q 356 971 389 935 q 289 900 322 935 q 226 842 256 865 l 158 842 l 158 856 q 210 926 183 889 q 261 999 238 963 q 299 1064 285 1035 l 411 1064 z "},"Ğ":{"ha":833,"x_min":74,"x_max":750,"o":"m 469 524 l 750 524 l 750 36 q 613 -1 683 11 q 464 -14 542 -14 q 246 52 332 -14 q 117 233 160 118 q 74 497 74 349 q 121 763 74 649 q 260 941 168 876 q 490 1006 353 1006 q 622 990 560 1006 q 738 943 683 974 l 694 842 q 596 885 647 869 q 490 900 544 900 q 332 853 397 900 q 233 715 267 806 q 199 496 199 625 q 227 289 199 381 q 317 145 256 197 q 479 93 379 93 q 564 99 526 93 q 632 114 601 104 l 632 418 l 469 418 l 469 524 m 651 1275 q 626 1176 650 1218 q 562 1111 603 1133 q 465 1089 521 1089 q 335 1136 381 1089 q 285 1275 289 1183 l 358 1275 q 376 1219 363 1240 q 413 1188 389 1197 q 468 1178 436 1178 q 522 1188 499 1178 q 560 1219 546 1199 q 578 1275 575 1240 l 651 1275 z "},"ğ":{"ha":706,"x_min":64,"x_max":608,"o":"m 308 760 q 413 733 367 760 q 492 647 458 706 l 499 647 l 513 746 l 608 746 l 608 -10 q 577 -185 608 -112 q 480 -296 546 -258 q 310 -333 414 -333 q 200 -322 250 -333 q 107 -289 150 -311 l 107 -181 q 206 -220 156 -207 q 311 -233 257 -233 q 447 -185 400 -233 q 493 -31 493 -136 l 493 -7 q 494 45 493 15 q 497 103 496 75 l 492 103 q 414 15 460 43 q 306 -14 368 -14 q 128 85 192 -14 q 64 369 64 183 q 129 660 64 560 q 308 760 194 760 m 329 658 q 247 625 281 658 q 198 527 214 592 q 182 368 182 463 q 219 154 182 224 q 333 85 257 85 q 403 101 374 85 q 453 148 433 117 q 483 228 474 179 q 493 340 493 276 l 493 374 q 476 536 493 474 q 422 628 458 599 q 329 658 386 658 m 539 1029 q 514 930 538 972 q 449 865 490 888 q 353 843 408 843 q 222 890 268 843 q 172 1029 176 938 l 246 1029 q 263 973 250 994 q 300 942 276 951 q 356 932 324 932 q 410 942 386 932 q 448 974 433 953 q 465 1029 463 994 l 539 1029 z "},"Ġ":{"ha":833,"x_min":74,"x_max":750,"o":"m 469 524 l 750 524 l 750 36 q 613 -1 683 11 q 464 -14 542 -14 q 246 52 332 -14 q 117 233 160 118 q 74 497 74 349 q 121 763 74 649 q 260 941 168 876 q 490 1006 353 1006 q 622 990 560 1006 q 738 943 683 974 l 694 842 q 596 885 647 869 q 490 900 544 900 q 332 853 397 900 q 233 715 267 806 q 199 496 199 625 q 227 289 199 381 q 317 145 256 197 q 479 93 379 93 q 564 99 526 93 q 632 114 601 104 l 632 418 l 469 418 l 469 524 m 469 1271 q 518 1251 500 1271 q 536 1192 536 1231 q 518 1133 536 1154 q 469 1113 500 1113 q 420 1133 439 1113 q 401 1192 401 1154 q 419 1251 401 1232 q 469 1271 438 1271 z "},"ġ":{"ha":706,"x_min":64,"x_max":608,"o":"m 308 760 q 413 733 367 760 q 492 647 458 706 l 499 647 l 513 746 l 608 746 l 608 -10 q 577 -185 608 -112 q 480 -296 546 -258 q 310 -333 414 -333 q 200 -322 250 -333 q 107 -289 150 -311 l 107 -181 q 206 -220 156 -207 q 311 -233 257 -233 q 447 -185 400 -233 q 493 -31 493 -136 l 493 -7 q 494 45 493 15 q 497 103 496 75 l 492 103 q 414 15 460 43 q 306 -14 368 -14 q 128 85 192 -14 q 64 369 64 183 q 129 660 64 560 q 308 760 194 760 m 329 658 q 247 625 281 658 q 198 527 214 592 q 182 368 182 463 q 219 154 182 224 q 333 85 257 85 q 403 101 374 85 q 453 148 433 117 q 483 228 474 179 q 493 340 493 276 l 493 374 q 476 536 493 474 q 422 628 458 599 q 329 658 386 658 m 357 1025 q 406 1005 388 1025 q 424 946 424 985 q 406 888 424 908 q 357 867 388 867 q 308 888 326 867 q 289 946 289 908 q 307 1006 289 986 q 357 1025 325 1025 z "},"Ģ":{"ha":833,"x_min":74,"x_max":750,"o":"m 469 524 l 750 524 l 750 36 q 613 -1 683 11 q 464 -14 542 -14 q 246 52 332 -14 q 117 233 160 118 q 74 497 74 349 q 121 763 74 649 q 260 941 168 876 q 490 1006 353 1006 q 622 990 560 1006 q 738 943 683 974 l 694 842 q 596 885 647 869 q 490 900 544 900 q 332 853 397 900 q 233 715 267 806 q 199 496 199 625 q 227 289 199 381 q 317 145 256 197 q 479 93 379 93 q 564 99 526 93 q 632 114 601 104 l 632 418 l 469 418 l 469 524 m 551 -99 q 527 -167 543 -129 q 492 -242 511 -206 q 451 -307 472 -278 l 386 -307 l 386 -292 q 406 -229 396 -267 q 424 -152 415 -192 q 435 -85 432 -112 l 551 -85 l 551 -99 z "},"ģ":{"ha":706,"x_min":64,"x_max":608,"o":"m 435 1049 q 413 985 425 1024 q 392 908 401 947 q 381 842 383 869 l 264 842 l 264 856 q 286 924 271 886 q 324 999 301 963 q 369 1064 346 1036 l 435 1064 l 435 1049 m 308 760 q 413 733 367 760 q 492 647 458 706 l 499 647 l 513 746 l 608 746 l 608 -10 q 577 -185 608 -112 q 480 -296 546 -258 q 310 -333 414 -333 q 200 -322 250 -333 q 107 -289 150 -311 l 107 -181 q 206 -220 156 -207 q 311 -233 257 -233 q 447 -185 400 -233 q 493 -31 493 -136 l 493 -7 q 494 45 493 15 q 497 103 496 75 l 492 103 q 414 15 460 43 q 306 -14 368 -14 q 128 85 192 -14 q 64 369 64 183 q 129 660 64 560 q 308 760 194 760 m 329 658 q 247 625 281 658 q 198 527 214 592 q 182 368 182 463 q 219 154 182 224 q 333 85 257 85 q 403 101 374 85 q 453 148 433 117 q 483 228 474 179 q 493 340 493 276 l 493 374 q 476 536 493 474 q 422 628 458 599 q 329 658 386 658 z "},"Ĥ":{"ha":826,"x_min":111,"x_max":717,"o":"m 717 0 l 597 0 l 597 464 l 231 464 l 231 0 l 111 0 l 111 992 l 231 992 l 231 571 l 597 571 l 597 992 l 717 992 l 717 0 m 469 1310 q 509 1242 485 1279 q 561 1167 533 1204 q 613 1101 589 1131 l 613 1088 l 543 1088 q 479 1147 511 1114 q 414 1217 447 1181 q 347 1146 381 1181 q 285 1088 314 1111 l 217 1088 l 217 1101 q 269 1172 242 1135 q 319 1244 296 1208 q 357 1310 343 1281 l 469 1310 z "},"ĥ":{"ha":701,"x_min":-40,"x_max":606,"o":"m 214 754 q 212 697 214 725 q 206 644 210 669 l 214 644 q 259 707 231 682 q 322 745 288 732 q 396 758 357 758 q 514 730 468 758 q 583 644 560 701 q 606 500 606 586 l 606 0 l 490 0 l 490 482 q 463 616 490 575 q 375 657 436 657 q 281 628 317 657 q 230 538 246 599 q 214 386 214 478 l 214 0 l 99 0 l 99 1056 l 214 1056 l 214 754 m 213 1374 q 252 1306 228 1343 q 304 1231 276 1268 q 356 1165 332 1194 l 356 1151 l 286 1151 q 222 1211 254 1178 q 157 1281 190 1244 q 90 1210 124 1244 q 28 1151 57 1175 l -40 1151 l -40 1165 q 12 1235 -15 1199 q 63 1308 39 1272 q 100 1374 86 1344 l 213 1374 z "},"Ħ":{"ha":826,"x_min":-1,"x_max":828,"o":"m 110 0 l 110 733 l -1 733 l -1 826 l 110 826 l 110 992 l 229 992 l 229 826 l 596 826 l 596 992 l 715 992 l 715 826 l 828 826 l 828 733 l 715 733 l 715 0 l 596 0 l 596 464 l 229 464 l 229 0 l 110 0 m 231 572 l 597 572 l 597 733 l 231 733 l 231 572 z "},"ħ":{"ha":701,"x_min":11,"x_max":606,"o":"m 214 1056 l 214 929 l 414 929 l 414 840 l 214 840 l 214 729 q 212 680 214 706 q 206 631 210 654 l 214 631 q 259 692 231 667 q 322 731 288 718 q 396 744 357 744 q 514 716 468 744 q 583 629 560 688 q 606 485 606 571 l 606 0 l 490 0 l 490 467 q 463 601 490 558 q 374 643 436 643 q 281 614 317 643 q 229 526 246 585 q 213 372 213 467 l 213 0 l 99 0 l 99 840 l 11 840 l 11 929 l 99 929 l 99 1056 l 214 1056 z "},"Ĩ":{"ha":417,"x_min":-11,"x_max":429,"o":"m 365 0 l 50 0 l 50 68 l 147 93 l 147 899 l 50 924 l 50 992 l 365 992 l 365 924 l 267 899 l 267 93 l 365 68 l 365 0 m -11 1086 q 1 1153 -8 1122 q 25 1208 10 1183 q 63 1245 40 1232 q 115 1258 85 1258 q 167 1247 142 1258 q 215 1219 192 1235 q 260 1191 239 1203 q 303 1179 282 1179 q 340 1201 326 1179 q 360 1260 353 1222 l 429 1260 q 390 1133 424 1178 q 304 1088 357 1088 q 253 1100 278 1088 q 203 1128 228 1113 q 158 1156 179 1143 q 118 1168 138 1168 q 81 1147 96 1168 q 58 1086 67 1126 l -11 1086 z "},"ĩ":{"ha":313,"x_min":-64,"x_max":378,"o":"m 214 0 l 99 0 l 99 746 l 214 746 l 214 0 m -64 840 q -52 907 -61 876 q -28 962 -43 938 q 10 999 -12 986 q 63 1013 32 1013 q 114 1001 89 1013 q 163 973 139 989 q 208 945 186 957 q 250 933 229 933 q 287 955 274 933 q 307 1014 300 976 l 376 1014 q 338 887 371 932 q 251 842 304 842 q 200 854 225 842 q 151 882 175 867 q 106 910 126 897 q 65 922 85 922 q 28 901 43 922 q 6 840 14 881 l -64 840 z "},"Ī":{"ha":417,"x_min":28,"x_max":388,"o":"m 365 0 l 50 0 l 50 68 l 147 93 l 147 899 l 50 924 l 50 992 l 365 992 l 365 924 l 267 899 l 267 93 l 365 68 l 365 0 m 388 1185 l 388 1096 l 28 1096 l 28 1185 l 388 1185 z "},"ī":{"ha":313,"x_min":-25,"x_max":335,"o":"m 214 0 l 99 0 l 99 746 l 214 746 l 214 0 m 335 939 l 335 850 l -25 850 l -25 939 l 335 939 z "},"Ĭ":{"ha":417,"x_min":25,"x_max":392,"o":"m 365 0 l 50 0 l 50 68 l 147 93 l 147 899 l 50 924 l 50 992 l 365 992 l 365 924 l 267 899 l 267 93 l 365 68 l 365 0 m 392 1275 q 367 1176 390 1218 q 302 1111 343 1133 q 206 1089 261 1089 q 75 1136 121 1089 q 25 1275 29 1183 l 99 1275 q 116 1219 103 1240 q 153 1188 129 1197 q 208 1178 176 1178 q 263 1188 239 1178 q 301 1219 286 1199 q 318 1275 315 1240 l 392 1275 z "},"ĭ":{"ha":313,"x_min":-28,"x_max":339,"o":"m 214 0 l 99 0 l 99 746 l 214 746 l 214 0 m 339 1029 q 314 930 338 972 q 249 865 290 888 q 153 843 208 843 q 22 890 68 843 q -28 1029 -24 938 l 46 1029 q 63 973 50 994 q 100 942 76 951 q 156 932 124 932 q 210 942 186 932 q 248 974 233 953 q 265 1029 263 994 l 339 1029 z "},"Į":{"ha":417,"x_min":50,"x_max":365,"o":"m 365 0 l 50 0 l 50 68 l 147 93 l 147 899 l 50 924 l 50 992 l 365 992 l 365 924 l 267 899 l 267 93 l 365 68 l 365 0 m 243 -162 q 260 -212 243 -194 q 306 -229 276 -229 q 336 -226 324 -229 q 357 -221 349 -222 l 357 -299 q 326 -307 343 -304 q 285 -310 308 -310 q 183 -276 217 -310 q 149 -181 149 -243 q 164 -108 149 -143 q 206 -40 179 -72 q 265 18 233 -7 l 331 0 q 263 -83 283 -46 q 243 -162 243 -121 z "},"į":{"ha":313,"x_min":22,"x_max":231,"o":"m 214 746 l 214 0 l 99 0 l 99 746 l 214 746 m 158 1025 q 206 1005 189 1025 q 224 946 224 985 q 206 888 224 908 q 158 867 189 867 q 109 888 128 867 q 90 946 90 908 q 108 1006 90 986 q 158 1025 126 1025 m 117 -162 q 133 -212 117 -194 q 179 -229 150 -229 q 210 -226 197 -229 q 231 -221 222 -222 l 231 -299 q 199 -307 217 -304 q 158 -310 182 -310 q 56 -276 90 -310 q 22 -181 22 -243 q 38 -108 22 -143 q 80 -40 53 -72 q 139 18 107 -7 l 204 0 q 137 -83 157 -46 q 117 -162 117 -121 z "},"İ":{"ha":417,"x_min":50,"x_max":365,"o":"m 365 0 l 50 0 l 50 68 l 147 93 l 147 899 l 50 924 l 50 992 l 365 992 l 365 924 l 267 899 l 267 93 l 365 68 l 365 0 m 208 1271 q 257 1251 239 1271 q 275 1192 275 1231 q 257 1133 275 1154 q 208 1113 239 1113 q 159 1133 178 1113 q 140 1192 140 1154 q 158 1251 140 1232 q 208 1271 176 1271 z "},"Ĳ":{"ha":732,"x_min":50,"x_max":625,"o":"m 365 0 l 50 0 l 50 68 l 147 93 l 147 899 l 50 924 l 50 992 l 365 992 l 365 924 l 267 899 l 267 93 l 365 68 l 365 0 m 413 -267 q 361 -263 385 -267 q 318 -251 338 -260 l 318 -146 q 358 -156 338 -151 q 403 -160 379 -160 q 458 -144 435 -160 q 493 -92 481 -128 q 506 7 506 -56 l 506 992 l 624 992 l 624 4 q 599 -153 624 -93 q 526 -240 574 -212 q 413 -267 479 -267 z "},"ĳ":{"ha":625,"x_min":90,"x_max":536,"o":"m 214 746 l 214 0 l 99 0 l 99 746 l 214 746 m 158 1025 q 206 1005 189 1025 q 224 946 224 985 q 206 888 224 908 q 158 867 189 867 q 109 888 128 867 q 90 946 90 908 q 108 1006 90 986 q 158 1025 126 1025 m 357 -333 q 313 -329 333 -333 q 276 -319 293 -325 l 276 -219 q 307 -228 292 -225 q 339 -232 322 -232 q 392 -205 374 -232 q 411 -115 411 -178 l 411 746 l 526 746 l 526 -112 q 508 -235 526 -186 q 451 -308 489 -285 q 357 -333 414 -332 m 403 946 q 421 1006 403 986 q 471 1025 439 1025 q 519 1005 501 1025 q 536 946 536 985 q 519 888 536 908 q 471 867 501 867 q 422 888 440 867 q 403 946 403 908 z "},"Ĵ":{"ha":332,"x_min":-81,"x_max":364,"o":"m 14 -267 q -37 -263 -14 -267 q -81 -251 -61 -260 l -81 -146 q -40 -156 -61 -151 q 4 -160 -19 -160 q 59 -144 36 -160 q 94 -92 82 -128 q 107 7 107 -56 l 107 992 l 225 992 l 225 4 q 200 -153 225 -93 q 128 -240 175 -212 q 14 -267 81 -267 m 221 1310 q 260 1242 236 1279 q 313 1167 285 1204 q 364 1101 340 1131 l 364 1088 l 294 1088 q 231 1147 263 1114 q 165 1217 199 1181 q 99 1146 132 1181 q 36 1088 65 1111 l -32 1088 l -32 1101 q 20 1172 -7 1135 q 71 1244 47 1208 q 108 1310 94 1281 l 221 1310 z "},"ĵ":{"ha":313,"x_min":-42,"x_max":354,"o":"m 44 -333 q -1 -329 21 -333 q -36 -319 -22 -325 l -36 -219 q -6 -228 -21 -225 q 26 -232 10 -232 q 80 -205 61 -232 q 99 -117 99 -178 l 99 746 l 214 746 l 214 -112 q 195 -234 214 -185 q 139 -308 176 -283 q 44 -333 101 -333 m 211 1064 q 251 996 226 1033 q 303 922 275 958 q 354 856 331 885 l 354 842 l 285 842 q 221 901 253 868 q 156 971 189 935 q 89 900 122 935 q 26 842 56 865 l -42 842 l -42 856 q 10 926 -17 889 q 61 999 38 963 q 99 1064 85 1035 l 211 1064 z "},"Ķ":{"ha":693,"x_min":111,"x_max":696,"o":"m 696 0 l 561 0 l 311 463 l 231 378 l 231 0 l 111 0 l 111 992 l 231 992 l 231 497 q 275 565 249 525 q 335 654 301 604 l 551 992 l 683 992 l 393 554 l 696 0 m 465 -99 q 441 -167 457 -129 q 406 -242 425 -206 q 365 -307 386 -278 l 300 -307 l 300 -292 q 319 -229 310 -267 q 338 -152 329 -192 q 349 -85 346 -112 l 465 -85 l 465 -99 z "},"ķ":{"ha":610,"x_min":99,"x_max":603,"o":"m 214 524 q 212 453 214 490 q 207 383 210 417 l 213 383 q 231 414 221 397 q 252 447 242 431 q 272 476 263 464 l 460 746 l 588 746 l 371 449 l 603 0 l 474 0 l 293 363 l 214 275 l 214 0 l 99 0 l 99 1056 l 214 1056 l 214 524 m 403 -99 q 378 -167 394 -129 q 343 -242 363 -206 q 303 -307 324 -278 l 238 -307 l 238 -292 q 257 -229 247 -267 q 275 -152 267 -192 q 286 -85 283 -112 l 403 -85 l 403 -99 z "},"ĸ":{"ha":610,"x_min":99,"x_max":603,"o":"m 588 746 l 376 446 l 603 0 l 475 0 l 297 358 l 217 272 l 217 0 l 99 0 l 99 746 l 217 746 l 217 538 q 214 450 217 492 q 208 378 211 408 l 214 378 q 235 415 224 396 q 256 449 246 433 l 458 746 l 588 746 z "},"Ĺ":{"ha":579,"x_min":93,"x_max":551,"o":"m 111 0 l 111 992 l 231 992 l 231 107 l 551 107 l 551 0 l 111 0 m 357 1297 q 322 1247 344 1275 q 272 1190 299 1219 q 217 1133 244 1160 q 168 1088 190 1107 l 93 1088 l 93 1103 q 141 1173 118 1138 q 184 1244 164 1208 q 219 1310 204 1279 l 357 1310 l 357 1297 z "},"ĺ":{"ha":311,"x_min":81,"x_max":344,"o":"m 214 0 l 99 0 l 99 1056 l 214 1056 l 214 0 m 344 1361 q 309 1311 332 1339 q 259 1253 286 1283 q 205 1197 232 1224 q 156 1151 178 1171 l 81 1151 l 81 1167 q 128 1237 106 1201 q 172 1308 151 1272 q 207 1374 192 1343 l 344 1374 l 344 1361 z "},"Ļ":{"ha":579,"x_min":111,"x_max":551,"o":"m 111 0 l 111 992 l 231 992 l 231 107 l 551 107 l 551 0 l 111 0 m 418 -99 q 394 -167 410 -129 q 358 -242 378 -206 q 318 -307 339 -278 l 253 -307 l 253 -292 q 272 -229 263 -267 q 290 -152 282 -192 q 301 -85 299 -112 l 418 -85 l 418 -99 z "},"ļ":{"ha":311,"x_min":75,"x_max":240,"o":"m 214 0 l 99 0 l 99 1056 l 214 1056 l 214 0 m 240 -99 q 216 -167 232 -129 q 181 -242 200 -206 q 140 -307 161 -278 l 75 -307 l 75 -292 q 94 -229 85 -267 q 113 -152 104 -192 q 124 -85 121 -112 l 240 -85 l 240 -99 z "},"Ľ":{"ha":579,"x_min":111,"x_max":572,"o":"m 572 978 q 551 910 567 950 q 517 833 536 871 q 482 769 499 794 l 418 769 l 418 785 q 428 826 422 799 q 439 884 433 853 q 449 944 444 915 q 454 992 453 974 l 572 992 l 572 978 m 111 0 l 111 992 l 231 992 l 231 107 l 551 107 l 551 0 l 111 0 z "},"ľ":{"ha":311,"x_min":99,"x_max":424,"o":"m 424 1042 q 402 974 418 1014 q 368 897 386 935 q 333 833 350 858 l 269 833 l 269 849 q 279 890 274 863 q 290 948 285 917 q 299 1008 294 979 q 304 1056 304 1038 l 424 1056 l 424 1042 m 214 0 l 99 0 l 99 1056 l 214 1056 l 214 0 z "},"Ŀ":{"ha":579,"x_min":111,"x_max":551,"o":"m 111 0 l 111 992 l 231 992 l 231 107 l 551 107 l 551 0 l 111 0 m 449 607 q 497 587 479 607 q 515 528 515 567 q 497 469 515 490 q 449 449 479 449 q 399 469 418 449 q 381 528 381 490 q 399 588 381 568 q 449 607 417 607 z "},"ŀ":{"ha":374,"x_min":99,"x_max":411,"o":"m 214 0 l 99 0 l 99 1056 l 214 1056 l 214 0 m 344 626 q 393 606 375 626 q 411 547 411 586 q 393 489 411 510 q 344 468 375 468 q 295 489 314 468 q 276 547 276 510 q 294 607 276 588 q 344 626 313 626 z "},"Ł":{"ha":586,"x_min":-1,"x_max":557,"o":"m 117 0 l 117 339 l 51 299 l -1 376 l 117 454 l 117 992 l 236 992 l 236 532 l 400 632 l 451 553 l 236 418 l 236 107 l 557 107 l 557 0 l 117 0 z "},"ł":{"ha":328,"x_min":-24,"x_max":354,"o":"m 103 0 l 103 410 l 29 357 l -24 433 l 103 526 l 103 1056 l 219 1056 l 219 607 l 299 665 l 354 589 l 219 490 l 219 0 l 103 0 z "},"Ń":{"ha":869,"x_min":111,"x_max":760,"o":"m 760 0 l 617 0 l 219 813 l 214 813 q 219 739 217 776 q 222 665 221 701 q 224 592 224 628 l 224 0 l 111 0 l 111 992 l 254 992 l 650 189 l 654 189 q 651 262 653 224 q 648 338 649 300 q 647 407 647 376 l 647 992 l 760 992 l 760 0 m 622 1297 q 587 1247 610 1275 q 537 1190 564 1219 q 483 1133 510 1160 q 433 1088 456 1107 l 358 1088 l 358 1103 q 406 1173 383 1138 q 449 1244 429 1208 q 485 1310 469 1279 l 622 1310 l 622 1297 z "},"ń":{"ha":701,"x_min":99,"x_max":606,"o":"m 397 760 q 553 697 501 760 q 606 500 606 633 l 606 0 l 490 0 l 490 482 q 463 614 490 569 q 375 658 436 658 q 251 593 288 658 q 214 388 214 528 l 214 0 l 99 0 l 99 746 l 192 746 l 206 644 l 213 644 q 260 708 232 682 q 324 747 288 733 q 397 760 360 760 m 546 1051 q 510 1001 533 1029 q 460 944 488 974 q 406 888 433 914 q 357 842 379 861 l 282 842 l 282 857 q 330 927 307 892 q 373 998 353 963 q 408 1064 393 1033 l 546 1064 l 546 1051 z "},"Ņ":{"ha":869,"x_min":111,"x_max":760,"o":"m 760 0 l 617 0 l 219 813 l 214 813 q 219 739 217 776 q 222 665 221 701 q 224 592 224 628 l 224 0 l 111 0 l 111 992 l 254 992 l 650 189 l 654 189 q 651 262 653 224 q 648 338 649 300 q 647 407 647 376 l 647 992 l 760 992 l 760 0 m 518 -99 q 494 -167 510 -129 q 458 -242 478 -206 q 418 -307 439 -278 l 353 -307 l 353 -292 q 372 -229 363 -267 q 390 -152 382 -192 q 401 -85 399 -112 l 518 -85 l 518 -99 z "},"ņ":{"ha":701,"x_min":99,"x_max":606,"o":"m 397 760 q 553 697 501 760 q 606 500 606 633 l 606 0 l 490 0 l 490 482 q 463 614 490 569 q 375 658 436 658 q 251 593 288 658 q 214 388 214 528 l 214 0 l 99 0 l 99 746 l 192 746 l 206 644 l 213 644 q 260 708 232 682 q 324 747 288 733 q 397 760 360 760 m 435 -99 q 410 -167 426 -129 q 375 -242 394 -206 q 335 -307 356 -278 l 269 -307 l 269 -292 q 289 -229 279 -267 q 307 -152 299 -192 q 318 -85 315 -112 l 435 -85 l 435 -99 z "},"Ň":{"ha":869,"x_min":111,"x_max":760,"o":"m 760 0 l 617 0 l 219 813 l 214 813 q 219 739 217 776 q 222 665 221 701 q 224 592 224 628 l 224 0 l 111 0 l 111 992 l 254 992 l 650 189 l 654 189 q 651 262 653 224 q 648 338 649 300 q 647 407 647 376 l 647 992 l 760 992 l 760 0 m 376 1088 q 338 1155 361 1118 q 288 1228 314 1192 q 236 1294 261 1264 l 236 1310 l 304 1310 q 368 1251 335 1286 q 433 1181 401 1217 q 498 1249 469 1221 q 563 1310 526 1278 l 632 1310 l 632 1294 q 582 1231 610 1267 q 529 1157 554 1194 q 489 1088 504 1119 l 376 1088 z "},"ň":{"ha":701,"x_min":99,"x_max":606,"o":"m 397 760 q 553 697 501 760 q 606 500 606 633 l 606 0 l 490 0 l 490 482 q 463 614 490 569 q 375 658 436 658 q 251 593 288 658 q 214 388 214 528 l 214 0 l 99 0 l 99 746 l 192 746 l 206 644 l 213 644 q 260 708 232 682 q 324 747 288 733 q 397 760 360 760 m 300 842 q 261 909 285 872 q 211 982 238 946 q 160 1049 185 1018 l 160 1064 l 228 1064 q 292 1006 258 1040 q 357 935 325 971 q 422 1003 393 975 q 486 1064 450 1032 l 556 1064 l 556 1049 q 506 985 533 1021 q 453 911 478 949 q 413 842 428 874 l 300 842 z "},"ŉ":{"ha":796,"x_min":0,"x_max":701,"o":"m 493 760 q 649 697 597 760 q 701 500 701 633 l 701 0 l 586 0 l 586 482 q 559 614 586 569 q 471 658 532 658 q 347 593 383 658 q 310 388 310 528 l 310 0 l 194 0 l 194 746 l 288 746 l 301 644 l 308 644 q 356 708 328 682 q 419 747 383 733 q 493 760 456 760 m 197 976 q 167 866 185 922 q 130 756 150 810 q 88 650 110 703 l 0 650 q 21 736 11 692 q 39 826 31 781 q 54 913 47 871 q 65 992 61 956 l 188 992 l 197 976 z "},"Ŋ":{"ha":869,"x_min":111,"x_max":760,"o":"m 550 -267 q 499 -263 522 -267 q 456 -251 475 -260 l 456 -146 q 495 -156 474 -151 q 542 -160 517 -160 q 597 -144 574 -160 q 633 -94 619 -129 q 647 1 647 -58 l 219 819 l 214 819 q 219 747 217 786 q 222 669 221 708 q 224 594 224 629 l 224 0 l 111 0 l 111 992 l 254 992 l 650 232 l 654 232 q 651 306 653 268 q 648 382 649 344 q 647 454 647 419 l 647 992 l 760 992 l 760 7 q 735 -147 760 -86 q 665 -237 711 -207 q 550 -267 618 -267 z "},"ŋ":{"ha":701,"x_min":99,"x_max":606,"o":"m 439 -333 q 398 -329 417 -333 q 363 -319 379 -325 l 363 -219 q 392 -228 378 -225 q 422 -232 407 -232 q 472 -205 454 -232 q 490 -115 490 -178 l 490 482 q 462 613 490 569 q 372 656 433 656 q 281 628 315 656 q 230 542 246 600 q 214 388 214 483 l 214 0 l 99 0 l 99 746 l 192 746 l 206 644 l 213 644 q 258 706 231 681 q 322 746 286 732 q 397 760 358 760 q 518 728 472 760 q 585 635 564 696 q 606 486 606 574 l 606 -112 q 588 -230 606 -181 q 533 -306 569 -279 q 439 -333 497 -333 z "},"Ō":{"ha":860,"x_min":74,"x_max":788,"o":"m 788 497 q 767 294 788 388 q 702 132 746 201 q 591 24 658 63 q 431 -14 524 -14 q 268 26 336 -14 q 157 134 200 65 q 94 297 114 203 q 74 499 74 390 q 113 776 74 663 q 233 947 153 889 q 432 1006 313 1006 q 634 939 556 1006 q 750 758 713 872 q 788 497 788 643 m 199 497 q 224 276 199 367 q 301 140 250 186 q 431 93 353 93 q 559 139 508 93 q 635 275 610 185 q 661 497 661 365 q 605 797 661 694 q 432 899 549 899 q 301 853 353 899 q 224 717 249 807 q 199 497 199 628 m 610 1185 l 610 1096 l 250 1096 l 250 1185 l 610 1185 z "},"ō":{"ha":685,"x_min":64,"x_max":621,"o":"m 621 374 q 603 214 621 285 q 550 92 585 143 q 463 13 515 40 q 340 -14 410 -14 q 224 13 275 -14 q 136 91 172 40 q 82 213 100 142 q 64 374 64 285 q 95 583 64 497 q 189 715 126 669 q 343 760 251 760 q 492 715 429 760 q 588 585 554 671 q 621 374 621 500 m 182 374 q 199 216 182 281 q 252 119 217 151 q 343 86 288 86 q 434 119 399 86 q 487 216 469 151 q 504 374 504 281 q 487 531 504 468 q 434 627 469 594 q 343 660 399 660 q 220 587 258 660 q 182 374 182 514 m 521 939 l 521 850 l 161 850 l 161 939 l 521 939 z "},"Ŏ":{"ha":860,"x_min":74,"x_max":788,"o":"m 788 497 q 767 294 788 388 q 702 132 746 201 q 591 24 658 63 q 431 -14 524 -14 q 268 26 336 -14 q 157 134 200 65 q 94 297 114 203 q 74 499 74 390 q 113 776 74 663 q 233 947 153 889 q 432 1006 313 1006 q 634 939 556 1006 q 750 758 713 872 q 788 497 788 643 m 199 497 q 224 276 199 367 q 301 140 250 186 q 431 93 353 93 q 559 139 508 93 q 635 275 610 185 q 661 497 661 365 q 605 797 661 694 q 432 899 549 899 q 301 853 353 899 q 224 717 249 807 q 199 497 199 628 m 614 1275 q 589 1176 613 1218 q 524 1111 565 1133 q 428 1089 483 1089 q 297 1136 343 1089 q 247 1275 251 1183 l 321 1275 q 338 1219 325 1240 q 375 1188 351 1197 q 431 1178 399 1178 q 485 1188 461 1178 q 523 1219 508 1199 q 540 1275 538 1240 l 614 1275 z "},"ŏ":{"ha":685,"x_min":64,"x_max":621,"o":"m 621 374 q 603 214 621 285 q 550 92 585 143 q 463 13 515 40 q 340 -14 410 -14 q 224 13 275 -14 q 136 91 172 40 q 82 213 100 142 q 64 374 64 285 q 95 583 64 497 q 189 715 126 669 q 343 760 251 760 q 492 715 429 760 q 588 585 554 671 q 621 374 621 500 m 182 374 q 199 216 182 281 q 252 119 217 151 q 343 86 288 86 q 434 119 399 86 q 487 216 469 151 q 504 374 504 281 q 487 531 504 468 q 434 627 469 594 q 343 660 399 660 q 220 587 258 660 q 182 374 182 514 m 525 1029 q 500 930 524 972 q 435 865 476 888 q 339 843 394 843 q 208 890 254 843 q 158 1029 163 938 l 232 1029 q 249 973 236 994 q 286 942 263 951 q 342 932 310 932 q 396 942 372 932 q 434 974 419 953 q 451 1029 449 994 l 525 1029 z "},"Ő":{"ha":860,"x_min":74,"x_max":788,"o":"m 788 497 q 767 294 788 388 q 702 132 746 201 q 591 24 658 63 q 431 -14 524 -14 q 268 26 336 -14 q 157 134 200 65 q 94 297 114 203 q 74 499 74 390 q 113 776 74 663 q 233 947 153 889 q 432 1006 313 1006 q 634 939 556 1006 q 750 758 713 872 q 788 497 788 643 m 199 497 q 224 276 199 367 q 301 140 250 186 q 431 93 353 93 q 559 139 508 93 q 635 275 610 185 q 661 497 661 365 q 605 797 661 694 q 432 899 549 899 q 301 853 353 899 q 224 717 249 807 q 199 497 199 628 m 654 1297 q 622 1247 643 1276 q 576 1188 601 1218 q 525 1132 550 1158 q 479 1088 500 1106 l 419 1088 l 419 1103 q 461 1172 439 1132 q 503 1249 483 1211 q 532 1310 522 1286 l 654 1310 l 654 1297 m 440 1297 q 408 1247 428 1275 q 365 1190 389 1219 q 315 1135 342 1161 q 264 1088 289 1108 l 206 1088 l 206 1103 q 248 1173 226 1135 q 288 1248 269 1211 q 318 1310 307 1285 l 440 1310 l 440 1297 z "},"ő":{"ha":685,"x_min":64,"x_max":621,"o":"m 621 374 q 603 214 621 285 q 550 92 585 143 q 463 13 515 40 q 340 -14 410 -14 q 224 13 275 -14 q 136 91 172 40 q 82 213 100 142 q 64 374 64 285 q 95 583 64 497 q 189 715 126 669 q 343 760 251 760 q 492 715 429 760 q 588 585 554 671 q 621 374 621 500 m 182 374 q 199 216 182 281 q 252 119 217 151 q 343 86 288 86 q 434 119 399 86 q 487 216 469 151 q 504 374 504 281 q 487 531 504 468 q 434 627 469 594 q 343 660 399 660 q 220 587 258 660 q 182 374 182 514 m 565 1051 q 533 1001 554 1031 q 487 942 513 972 q 436 886 461 913 q 390 842 411 860 l 331 842 l 331 857 q 372 926 350 886 q 414 1003 394 965 q 443 1064 433 1040 l 565 1064 l 565 1051 m 351 1051 q 319 1001 339 1029 q 276 944 300 974 q 226 889 253 915 q 175 842 200 863 l 117 842 l 117 857 q 159 927 138 889 q 199 1002 181 965 q 229 1064 218 1039 l 351 1064 l 351 1051 z "},"Œ":{"ha":1015,"x_min":74,"x_max":946,"o":"m 446 1001 q 497 999 472 1001 q 546 992 522 996 l 946 992 l 946 886 l 632 886 l 632 571 l 926 571 l 926 465 l 632 465 l 632 107 l 946 107 l 946 0 l 549 0 q 499 -6 525 -3 q 446 -8 474 -8 q 237 52 319 -8 q 114 226 154 113 q 74 499 74 340 q 115 769 74 657 q 238 942 156 882 q 446 1001 321 1001 m 450 894 q 331 865 379 893 q 254 785 283 838 q 212 660 225 733 q 199 497 199 588 q 223 286 199 375 q 303 149 247 197 q 451 99 358 100 q 485 101 469 99 q 513 107 501 103 l 513 883 q 484 892 500 889 q 450 894 468 894 z "},"œ":{"ha":1069,"x_min":64,"x_max":1007,"o":"m 761 758 q 899 715 844 758 q 980 597 953 672 q 1007 428 1007 522 l 1007 350 l 613 350 q 660 149 614 215 q 794 83 706 83 q 888 96 844 83 q 978 133 932 108 l 978 33 q 888 -2 933 10 q 788 -14 843 -14 q 650 22 708 -14 q 556 126 592 57 q 468 22 522 57 q 338 -14 414 -14 q 191 32 253 -14 q 97 165 129 78 q 64 374 64 251 q 95 583 64 497 q 188 714 126 669 q 342 758 250 758 q 467 724 414 758 q 554 619 519 689 q 606 697 576 665 q 675 743 636 728 q 761 758 714 758 m 340 660 q 219 588 256 660 q 182 374 182 517 q 199 215 182 279 q 252 117 217 150 q 340 85 288 85 q 430 116 396 85 q 481 211 464 147 q 497 372 497 275 q 481 532 497 468 q 429 628 464 596 q 340 660 394 660 m 758 663 q 658 608 694 663 q 614 442 621 554 l 896 442 q 881 555 896 504 q 837 634 867 606 q 758 663 807 663 z "},"Ŕ":{"ha":707,"x_min":111,"x_max":689,"o":"m 315 992 q 494 960 425 992 q 598 867 564 929 q 632 711 632 806 q 613 590 632 642 q 556 503 593 539 q 467 444 519 468 l 689 0 l 554 0 l 358 414 l 231 414 l 231 0 l 111 0 l 111 992 l 315 992 m 315 885 l 231 885 l 231 514 l 325 514 q 463 562 417 514 q 510 706 510 610 q 489 810 510 771 q 425 867 468 849 q 315 885 382 885 m 543 1297 q 508 1247 531 1275 q 458 1190 485 1219 q 403 1133 431 1160 q 354 1088 376 1107 l 279 1088 l 279 1103 q 327 1173 304 1138 q 370 1244 350 1208 q 406 1310 390 1279 l 543 1310 l 543 1297 z "},"ŕ":{"ha":468,"x_min":99,"x_max":460,"o":"m 382 760 q 417 758 399 760 q 453 750 436 756 l 436 635 q 406 642 422 640 q 374 644 390 644 q 311 626 340 644 q 260 573 282 607 q 226 492 238 539 q 214 392 214 446 l 214 0 l 99 0 l 99 746 l 190 746 l 204 615 l 211 615 q 256 691 231 658 q 313 742 281 724 q 382 760 344 760 m 458 1051 q 423 1001 446 1029 q 373 944 400 974 q 319 888 346 914 q 269 842 292 861 l 194 842 l 194 857 q 242 927 219 892 q 285 998 265 963 q 321 1064 306 1033 l 458 1064 l 458 1051 z "},"Ŗ":{"ha":707,"x_min":111,"x_max":689,"o":"m 315 992 q 494 960 425 992 q 598 867 564 929 q 632 711 632 806 q 613 590 632 642 q 556 503 593 539 q 467 444 519 468 l 689 0 l 554 0 l 358 414 l 231 414 l 231 0 l 111 0 l 111 992 l 315 992 m 315 885 l 231 885 l 231 514 l 325 514 q 463 562 417 514 q 510 706 510 610 q 489 810 510 771 q 425 867 468 849 q 315 885 382 885 m 454 -99 q 430 -167 446 -129 q 394 -242 414 -206 q 354 -307 375 -278 l 289 -307 l 289 -292 q 308 -229 299 -267 q 326 -152 318 -192 q 338 -85 335 -112 l 454 -85 l 454 -99 z "},"ŗ":{"ha":468,"x_min":78,"x_max":453,"o":"m 382 760 q 417 758 399 760 q 453 750 436 756 l 436 635 q 406 642 422 640 q 374 644 390 644 q 311 626 340 644 q 260 573 282 607 q 226 492 238 539 q 214 392 214 446 l 214 0 l 99 0 l 99 746 l 190 746 l 204 615 l 211 615 q 256 691 231 658 q 313 742 281 724 q 382 760 344 760 m 243 -99 q 219 -167 235 -129 q 183 -242 203 -206 q 143 -307 164 -278 l 78 -307 l 78 -292 q 97 -229 88 -267 q 115 -152 107 -192 q 126 -85 124 -112 l 243 -85 l 243 -99 z "},"Ř":{"ha":707,"x_min":111,"x_max":689,"o":"m 315 992 q 494 960 425 992 q 598 867 564 929 q 632 711 632 806 q 613 590 632 642 q 556 503 593 539 q 467 444 519 468 l 689 0 l 554 0 l 358 414 l 231 414 l 231 0 l 111 0 l 111 992 l 315 992 m 315 885 l 231 885 l 231 514 l 325 514 q 463 562 417 514 q 510 706 510 610 q 489 810 510 771 q 425 867 468 849 q 315 885 382 885 m 299 1088 q 260 1155 283 1118 q 210 1228 236 1192 q 158 1294 183 1264 l 158 1310 l 226 1310 q 290 1251 257 1286 q 356 1181 324 1217 q 420 1249 392 1221 q 485 1310 449 1278 l 554 1310 l 554 1294 q 504 1231 532 1267 q 451 1157 476 1194 q 411 1088 426 1119 l 299 1088 z "},"ř":{"ha":468,"x_min":74,"x_max":469,"o":"m 382 760 q 417 758 399 760 q 453 750 436 756 l 436 635 q 406 642 422 640 q 374 644 390 644 q 311 626 340 644 q 260 573 282 607 q 226 492 238 539 q 214 392 214 446 l 214 0 l 99 0 l 99 746 l 190 746 l 204 615 l 211 615 q 256 691 231 658 q 313 742 281 724 q 382 760 344 760 m 214 842 q 175 909 199 872 q 125 982 151 946 q 74 1049 99 1018 l 74 1064 l 142 1064 q 206 1006 172 1040 q 271 935 239 971 q 335 1003 307 975 q 400 1064 364 1032 l 469 1064 l 469 1049 q 419 985 447 1021 q 367 911 392 949 q 326 842 342 874 l 214 842 z "},"Ś":{"ha":631,"x_min":58,"x_max":574,"o":"m 574 271 q 538 122 574 185 q 438 22 503 58 q 285 -14 372 -14 q 199 -9 240 -14 q 123 6 158 -4 q 58 31 88 17 l 58 151 q 166 110 106 125 q 283 96 226 96 q 376 117 339 96 q 434 176 414 139 q 454 260 454 214 q 438 342 454 308 q 382 403 421 375 q 276 460 343 431 q 188 510 226 483 q 122 569 149 536 q 81 645 94 601 q 67 747 67 689 q 101 883 65 825 q 198 974 136 942 q 339 1006 260 1007 q 460 991 404 1006 q 561 956 517 976 l 522 849 q 432 883 478 871 q 340 896 386 896 q 257 877 290 896 q 206 826 224 858 q 188 750 188 793 q 203 667 188 700 q 258 608 219 633 q 360 550 296 582 q 478 478 431 518 q 550 388 526 439 q 574 271 574 338 m 517 1297 q 481 1247 504 1275 q 431 1190 458 1219 q 377 1133 404 1160 q 328 1088 350 1107 l 253 1088 l 253 1103 q 301 1173 278 1138 q 344 1244 324 1208 q 379 1310 364 1279 l 517 1310 l 517 1297 z "},"ś":{"ha":529,"x_min":53,"x_max":479,"o":"m 479 201 q 451 84 479 132 q 369 11 422 36 q 242 -14 317 -14 q 136 -2 183 -14 q 54 29 89 10 l 54 144 q 139 103 89 121 q 240 86 189 86 q 335 115 303 86 q 367 196 367 144 q 354 247 367 224 q 312 291 342 269 q 232 338 282 313 q 138 395 178 365 q 75 465 97 425 q 53 563 53 506 q 117 707 53 654 q 283 760 181 760 q 384 747 338 760 q 474 710 431 733 l 432 618 q 360 650 397 638 q 282 663 322 663 q 195 637 226 663 q 164 567 164 611 q 177 515 164 538 q 222 473 190 493 q 304 426 253 453 q 397 369 357 399 q 458 299 436 339 q 479 201 479 260 m 461 1051 q 426 1001 449 1029 q 376 944 403 974 q 322 888 349 914 q 272 842 294 861 l 197 842 l 197 857 q 245 927 222 892 q 288 998 268 963 q 324 1064 308 1033 l 461 1064 l 461 1051 z "},"Ŝ":{"ha":631,"x_min":58,"x_max":574,"o":"m 574 271 q 538 122 574 185 q 438 22 503 58 q 285 -14 372 -14 q 199 -9 240 -14 q 123 6 158 -4 q 58 31 88 17 l 58 151 q 166 110 106 125 q 283 96 226 96 q 376 117 339 96 q 434 176 414 139 q 454 260 454 214 q 438 342 454 308 q 382 403 421 375 q 276 460 343 431 q 188 510 226 483 q 122 569 149 536 q 81 645 94 601 q 67 747 67 689 q 101 883 65 825 q 198 974 136 942 q 339 1006 260 1007 q 460 991 404 1006 q 561 956 517 976 l 522 849 q 432 883 478 871 q 340 896 386 896 q 257 877 290 896 q 206 826 224 858 q 188 750 188 793 q 203 667 188 700 q 258 608 219 633 q 360 550 296 582 q 478 478 431 518 q 550 388 526 439 q 574 271 574 338 m 383 1310 q 423 1242 399 1279 q 475 1167 447 1204 q 526 1101 503 1131 l 526 1088 l 457 1088 q 393 1147 425 1114 q 328 1217 361 1181 q 261 1146 294 1181 q 199 1088 228 1111 l 131 1088 l 131 1101 q 183 1172 156 1135 q 233 1244 210 1208 q 271 1310 257 1281 l 383 1310 z "},"ŝ":{"ha":529,"x_min":53,"x_max":479,"o":"m 479 201 q 451 84 479 132 q 369 11 422 36 q 242 -14 317 -14 q 136 -2 183 -14 q 54 29 89 10 l 54 144 q 139 103 89 121 q 240 86 189 86 q 335 115 303 86 q 367 196 367 144 q 354 247 367 224 q 312 291 342 269 q 232 338 282 313 q 138 395 178 365 q 75 465 97 425 q 53 563 53 506 q 117 707 53 654 q 283 760 181 760 q 384 747 338 760 q 474 710 431 733 l 432 618 q 360 650 397 638 q 282 663 322 663 q 195 637 226 663 q 164 567 164 611 q 177 515 164 538 q 222 473 190 493 q 304 426 253 453 q 397 369 357 399 q 458 299 436 339 q 479 201 479 260 m 329 1064 q 369 996 344 1033 q 421 922 393 958 q 472 856 449 885 l 472 842 l 403 842 q 339 901 371 868 q 274 971 307 935 q 207 900 240 935 q 144 842 174 865 l 76 842 l 76 856 q 128 926 101 889 q 179 999 156 963 q 217 1064 203 1035 l 329 1064 z "},"Ş":{"ha":631,"x_min":58,"x_max":574,"o":"m 574 271 q 538 122 574 185 q 438 22 503 58 q 285 -14 372 -14 q 199 -9 240 -14 q 123 6 158 -4 q 58 31 88 17 l 58 151 q 166 110 106 125 q 283 96 226 96 q 376 117 339 96 q 434 176 414 139 q 454 260 454 214 q 438 342 454 308 q 382 403 421 375 q 276 460 343 431 q 188 510 226 483 q 122 569 149 536 q 81 645 94 601 q 67 747 67 689 q 101 883 65 825 q 198 974 136 942 q 339 1006 260 1007 q 460 991 404 1006 q 561 956 517 976 l 522 849 q 432 883 478 871 q 340 896 386 896 q 257 877 290 896 q 206 826 224 858 q 188 750 188 793 q 203 667 188 700 q 258 608 219 633 q 360 550 296 582 q 478 478 431 518 q 550 388 526 439 q 574 271 574 338 m 422 -192 q 377 -297 422 -260 q 246 -333 332 -333 q 203 -331 222 -333 q 171 -325 185 -329 l 171 -250 q 201 -256 185 -254 q 235 -258 218 -258 q 303 -241 281 -258 q 326 -192 326 -224 q 297 -137 326 -156 q 215 -112 267 -119 l 267 0 l 338 0 l 306 -71 q 368 -94 342 -78 q 408 -134 394 -110 q 422 -192 422 -158 z "},"ş":{"ha":529,"x_min":53,"x_max":479,"o":"m 479 201 q 451 84 479 132 q 369 11 422 36 q 242 -14 317 -14 q 136 -2 183 -14 q 54 29 89 10 l 54 144 q 139 103 89 121 q 240 86 189 86 q 335 115 303 86 q 367 196 367 144 q 354 247 367 224 q 312 291 342 269 q 232 338 282 313 q 138 395 178 365 q 75 465 97 425 q 53 563 53 506 q 117 707 53 654 q 283 760 181 760 q 384 747 338 760 q 474 710 431 733 l 432 618 q 360 650 397 638 q 282 663 322 663 q 195 637 226 663 q 164 567 164 611 q 177 515 164 538 q 222 473 190 493 q 304 426 253 453 q 397 369 357 399 q 458 299 436 339 q 479 201 479 260 m 379 -192 q 334 -297 379 -260 q 203 -333 289 -333 q 160 -331 179 -333 q 128 -325 142 -329 l 128 -250 q 158 -256 142 -254 q 192 -258 175 -258 q 260 -241 238 -258 q 283 -192 283 -224 q 253 -137 283 -156 q 172 -112 224 -119 l 224 0 l 294 0 l 263 -71 q 325 -94 299 -78 q 365 -134 351 -110 q 379 -192 379 -158 z "},"Š":{"ha":631,"x_min":58,"x_max":574,"o":"m 574 271 q 538 122 574 185 q 438 22 503 58 q 285 -14 372 -14 q 199 -9 240 -14 q 123 6 158 -4 q 58 31 88 17 l 58 151 q 166 110 106 125 q 283 96 226 96 q 376 117 339 96 q 434 176 414 139 q 454 260 454 214 q 438 342 454 308 q 382 403 421 375 q 276 460 343 431 q 188 510 226 483 q 122 569 149 536 q 81 645 94 601 q 67 747 67 689 q 101 883 65 825 q 198 974 136 942 q 339 1006 260 1007 q 460 991 404 1006 q 561 956 517 976 l 522 849 q 432 883 478 871 q 340 896 386 896 q 257 877 290 896 q 206 826 224 858 q 188 750 188 793 q 203 667 188 700 q 258 608 219 633 q 360 550 296 582 q 478 478 431 518 q 550 388 526 439 q 574 271 574 338 m 271 1088 q 232 1155 256 1118 q 182 1228 208 1192 q 131 1294 156 1264 l 131 1310 l 199 1310 q 263 1251 229 1286 q 328 1181 296 1217 q 392 1249 364 1221 q 457 1310 421 1278 l 526 1310 l 526 1294 q 476 1231 504 1267 q 424 1157 449 1194 q 383 1088 399 1119 l 271 1088 z "},"š":{"ha":529,"x_min":53,"x_max":479,"o":"m 479 201 q 451 84 479 132 q 369 11 422 36 q 242 -14 317 -14 q 136 -2 183 -14 q 54 29 89 10 l 54 144 q 139 103 89 121 q 240 86 189 86 q 335 115 303 86 q 367 196 367 144 q 354 247 367 224 q 312 291 342 269 q 232 338 282 313 q 138 395 178 365 q 75 465 97 425 q 53 563 53 506 q 117 707 53 654 q 283 760 181 760 q 384 747 338 760 q 474 710 431 733 l 432 618 q 360 650 397 638 q 282 663 322 663 q 195 637 226 663 q 164 567 164 611 q 177 515 164 538 q 222 473 190 493 q 304 426 253 453 q 397 369 357 399 q 458 299 436 339 q 479 201 479 260 m 217 842 q 178 909 201 872 q 128 982 154 946 q 76 1049 101 1018 l 76 1064 l 144 1064 q 208 1006 175 1040 q 274 935 242 971 q 338 1003 310 975 q 403 1064 367 1032 l 472 1064 l 472 1049 q 422 985 450 1021 q 369 911 394 949 q 329 842 344 874 l 217 842 z "},"Ț":{"ha":601,"x_min":14,"x_max":586,"o":"m 360 0 l 240 0 l 240 885 l 14 885 l 14 992 l 586 992 l 586 885 l 360 885 l 360 0 m 385 -99 q 360 -167 376 -129 q 325 -242 344 -206 q 285 -307 306 -278 l 219 -307 l 219 -292 q 239 -229 229 -267 q 257 -152 249 -192 q 268 -85 265 -112 l 385 -85 l 385 -99 z "},"ț":{"ha":403,"x_min":24,"x_max":379,"o":"m 301 86 q 342 90 321 86 q 379 100 363 94 l 379 8 q 330 -8 358 -1 q 269 -14 301 -14 q 181 8 218 -14 q 123 75 143 29 q 103 194 103 121 l 103 651 l 24 651 l 24 711 l 108 747 l 143 914 l 219 914 l 219 746 l 371 746 l 371 651 l 219 651 l 219 204 q 239 116 219 146 q 301 86 258 86 m 326 -99 q 302 -167 318 -129 q 267 -242 286 -206 q 226 -307 247 -278 l 161 -307 l 161 -292 q 181 -229 171 -267 q 199 -152 190 -192 q 210 -85 207 -112 l 326 -85 l 326 -99 z "},"Ť":{"ha":601,"x_min":14,"x_max":586,"o":"m 360 0 l 240 0 l 240 885 l 14 885 l 14 992 l 586 992 l 586 885 l 360 885 l 360 0 m 244 1088 q 206 1155 229 1118 q 156 1228 182 1192 q 104 1294 129 1264 l 104 1310 l 172 1310 q 236 1251 203 1286 q 301 1181 269 1217 q 366 1249 338 1221 q 431 1310 394 1278 l 500 1310 l 500 1294 q 450 1231 478 1267 q 397 1157 422 1194 q 357 1088 372 1119 l 244 1088 z "},"ť":{"ha":403,"x_min":24,"x_max":547,"o":"m 547 1042 q 526 974 542 1014 q 493 897 511 935 q 457 833 475 858 l 393 833 l 393 849 q 403 890 397 863 q 414 948 408 917 q 424 1008 419 979 q 429 1056 428 1038 l 547 1056 l 547 1042 m 301 86 q 342 90 321 86 q 379 100 363 94 l 379 8 q 330 -8 358 -1 q 269 -14 301 -14 q 181 8 218 -14 q 123 75 143 29 q 103 194 103 121 l 103 651 l 24 651 l 24 711 l 108 747 l 143 914 l 219 914 l 219 746 l 371 746 l 371 651 l 219 651 l 219 204 q 239 116 219 146 q 301 86 258 86 z "},"Ŧ":{"ha":601,"x_min":14,"x_max":586,"o":"m 240 0 l 240 451 l 81 451 l 81 549 l 240 549 l 240 883 l 14 883 l 14 992 l 586 992 l 586 883 l 360 883 l 360 549 l 519 549 l 519 451 l 360 451 l 360 0 l 240 0 z "},"ŧ":{"ha":403,"x_min":24,"x_max":379,"o":"m 28 382 l 28 469 l 364 469 l 364 382 l 28 382 m 301 86 q 342 90 321 86 q 379 100 363 94 l 379 8 q 330 -8 358 -1 q 269 -14 301 -14 q 181 8 218 -14 q 123 75 143 29 q 103 194 103 121 l 103 651 l 24 651 l 24 711 l 108 747 l 143 914 l 219 914 l 219 746 l 371 746 l 371 651 l 219 651 l 219 204 q 239 116 219 146 q 301 86 258 86 z "},"Ũ":{"ha":813,"x_min":103,"x_max":708,"o":"m 708 322 q 675 138 708 213 q 574 25 642 64 q 406 -14 507 -14 q 181 72 258 -14 q 103 322 103 157 l 103 992 l 222 992 l 222 321 q 269 149 222 204 q 407 93 317 93 q 510 118 469 93 q 569 194 550 143 q 589 322 589 244 l 589 992 l 708 992 l 708 322 m 188 1086 q 199 1153 190 1122 q 224 1208 208 1183 q 261 1245 239 1232 q 314 1258 283 1258 q 365 1247 340 1258 q 414 1219 390 1235 q 459 1191 438 1203 q 501 1179 481 1179 q 538 1201 525 1179 q 558 1260 551 1222 l 628 1260 q 589 1133 622 1178 q 503 1088 556 1088 q 451 1100 476 1088 q 402 1128 426 1113 q 357 1156 378 1143 q 317 1168 336 1168 q 280 1147 294 1168 q 257 1086 265 1126 l 188 1086 z "},"ũ":{"ha":701,"x_min":94,"x_max":603,"o":"m 603 746 l 603 0 l 508 0 l 494 100 l 488 100 q 441 37 469 63 q 378 -1 413 11 q 304 -14 343 -14 q 184 19 231 -14 q 116 112 138 51 q 94 258 94 172 l 94 746 l 210 746 l 210 276 q 238 134 210 181 q 324 88 265 88 q 420 117 385 88 q 471 204 456 146 q 486 351 486 263 l 486 746 l 603 746 m 132 840 q 144 907 135 876 q 168 962 153 938 q 206 999 183 986 q 258 1013 228 1013 q 310 1001 285 1013 q 358 973 335 989 q 403 945 382 957 q 446 933 425 933 q 483 955 469 933 q 503 1014 496 976 l 572 1014 q 533 887 567 932 q 447 842 500 842 q 396 854 421 842 q 347 882 371 867 q 301 910 322 897 q 261 922 281 922 q 224 901 239 922 q 201 840 210 881 l 132 840 z "},"Ū":{"ha":813,"x_min":103,"x_max":708,"o":"m 708 322 q 675 138 708 213 q 574 25 642 64 q 406 -14 507 -14 q 181 72 258 -14 q 103 322 103 157 l 103 992 l 222 992 l 222 321 q 269 149 222 204 q 407 93 317 93 q 510 118 469 93 q 569 194 550 143 q 589 322 589 244 l 589 992 l 708 992 l 708 322 m 585 1185 l 585 1096 l 225 1096 l 225 1185 l 585 1185 z "},"ū":{"ha":701,"x_min":94,"x_max":603,"o":"m 603 746 l 603 0 l 508 0 l 494 100 l 488 100 q 441 37 469 63 q 378 -1 413 11 q 304 -14 343 -14 q 184 19 231 -14 q 116 112 138 51 q 94 258 94 172 l 94 746 l 210 746 l 210 276 q 238 134 210 181 q 324 88 265 88 q 420 117 385 88 q 471 204 456 146 q 486 351 486 263 l 486 746 l 603 746 m 531 939 l 531 850 l 171 850 l 171 939 l 531 939 z "},"Ŭ":{"ha":813,"x_min":103,"x_max":708,"o":"m 708 322 q 675 138 708 213 q 574 25 642 64 q 406 -14 507 -14 q 181 72 258 -14 q 103 322 103 157 l 103 992 l 222 992 l 222 321 q 269 149 222 204 q 407 93 317 93 q 510 118 469 93 q 569 194 550 143 q 589 322 589 244 l 589 992 l 708 992 l 708 322 m 589 1275 q 564 1176 588 1218 q 499 1111 540 1133 q 403 1089 458 1089 q 272 1136 318 1089 q 222 1275 226 1183 l 296 1275 q 313 1219 300 1240 q 350 1188 326 1197 q 406 1178 374 1178 q 460 1188 436 1178 q 498 1219 483 1199 q 515 1275 513 1240 l 589 1275 z "},"ŭ":{"ha":701,"x_min":94,"x_max":603,"o":"m 603 746 l 603 0 l 508 0 l 494 100 l 488 100 q 441 37 469 63 q 378 -1 413 11 q 304 -14 343 -14 q 184 19 231 -14 q 116 112 138 51 q 94 258 94 172 l 94 746 l 210 746 l 210 276 q 238 134 210 181 q 324 88 265 88 q 420 117 385 88 q 471 204 456 146 q 486 351 486 263 l 486 746 l 603 746 m 535 1029 q 510 930 533 972 q 445 865 486 888 q 349 843 404 843 q 218 890 264 843 q 168 1029 172 938 l 242 1029 q 259 973 246 994 q 296 942 272 951 q 351 932 319 932 q 406 942 382 932 q 444 974 429 953 q 461 1029 458 994 l 535 1029 z "},"Ů":{"ha":813,"x_min":103,"x_max":708,"o":"m 708 322 q 675 138 708 213 q 574 25 642 64 q 406 -14 507 -14 q 181 72 258 -14 q 103 322 103 157 l 103 992 l 222 992 l 222 321 q 269 149 222 204 q 407 93 317 93 q 510 118 469 93 q 569 194 550 143 q 589 322 589 244 l 589 992 l 708 992 l 708 322 m 406 1090 q 298 1128 338 1090 q 258 1232 258 1167 q 298 1335 258 1297 q 406 1374 338 1374 q 512 1336 469 1374 q 554 1235 554 1299 q 513 1129 554 1168 q 406 1090 472 1090 m 407 1158 q 460 1178 439 1158 q 482 1232 482 1199 q 462 1286 482 1265 q 407 1307 442 1307 q 352 1286 374 1307 q 331 1232 331 1265 q 350 1178 331 1199 q 407 1158 369 1158 z "},"ů":{"ha":701,"x_min":94,"x_max":603,"o":"m 603 746 l 603 0 l 508 0 l 494 100 l 488 100 q 441 37 469 63 q 378 -1 413 11 q 304 -14 343 -14 q 184 19 231 -14 q 116 112 138 51 q 94 258 94 172 l 94 746 l 210 746 l 210 276 q 238 134 210 181 q 324 88 265 88 q 420 117 385 88 q 471 204 456 146 q 486 351 486 263 l 486 746 l 603 746 m 350 844 q 242 883 282 844 q 203 986 203 921 q 242 1090 203 1051 q 350 1128 282 1128 q 456 1090 414 1128 q 499 989 499 1053 q 458 883 499 922 q 350 844 417 844 m 351 913 q 405 933 383 913 q 426 986 426 953 q 406 1040 426 1019 q 351 1061 386 1061 q 297 1040 318 1061 q 275 986 275 1019 q 294 933 275 953 q 351 913 314 913 z "},"Ű":{"ha":813,"x_min":103,"x_max":708,"o":"m 708 322 q 675 138 708 213 q 574 25 642 64 q 406 -14 507 -14 q 181 72 258 -14 q 103 322 103 157 l 103 992 l 222 992 l 222 321 q 269 149 222 204 q 407 93 317 93 q 510 118 469 93 q 569 194 550 143 q 589 322 589 244 l 589 992 l 708 992 l 708 322 m 631 1297 q 599 1247 619 1276 q 552 1188 578 1218 q 501 1132 526 1158 q 456 1088 476 1106 l 396 1088 l 396 1103 q 438 1172 415 1132 q 479 1249 460 1211 q 508 1310 499 1286 l 631 1310 l 631 1297 m 417 1297 q 385 1247 404 1275 q 342 1190 365 1219 q 292 1135 318 1161 q 240 1088 265 1108 l 182 1088 l 182 1103 q 224 1173 203 1135 q 265 1248 246 1211 q 294 1310 283 1285 l 417 1310 l 417 1297 z "},"ű":{"ha":701,"x_min":94,"x_max":603,"o":"m 603 746 l 603 0 l 508 0 l 494 100 l 488 100 q 441 37 469 63 q 378 -1 413 11 q 304 -14 343 -14 q 184 19 231 -14 q 116 112 138 51 q 94 258 94 172 l 94 746 l 210 746 l 210 276 q 238 134 210 181 q 324 88 265 88 q 420 117 385 88 q 471 204 456 146 q 486 351 486 263 l 486 746 l 603 746 m 575 1051 q 543 1001 564 1031 q 497 942 522 972 q 446 886 471 913 q 400 842 421 860 l 340 842 l 340 857 q 382 926 360 886 q 424 1003 404 965 q 453 1064 443 1040 l 575 1064 l 575 1051 m 361 1051 q 329 1001 349 1029 q 286 944 310 974 q 236 889 263 915 q 185 842 210 863 l 126 842 l 126 857 q 169 927 147 889 q 209 1002 190 965 q 239 1064 228 1039 l 361 1064 l 361 1051 z "},"Ų":{"ha":813,"x_min":103,"x_max":708,"o":"m 489 -160 q 505 -211 489 -194 q 550 -228 521 -228 q 581 -225 567 -228 q 603 -219 594 -222 l 603 -299 q 569 -307 588 -304 q 528 -310 550 -310 q 426 -276 460 -310 q 393 -176 393 -242 q 410 -103 393 -139 q 452 -37 426 -68 q 506 17 478 -6 l 617 60 q 540 -31 568 8 q 500 -100 511 -69 q 489 -160 489 -131 m 708 322 q 675 138 708 213 q 574 25 642 64 q 406 -14 507 -14 q 181 72 258 -14 q 103 322 103 157 l 103 992 l 222 992 l 222 321 q 269 149 222 204 q 407 93 317 93 q 510 118 469 93 q 569 194 550 143 q 589 322 589 244 l 589 992 l 708 992 l 708 322 z "},"ų":{"ha":701,"x_min":94,"x_max":613,"o":"m 603 746 l 603 0 l 508 0 l 494 100 l 488 100 q 441 37 469 63 q 378 -1 413 11 q 304 -14 343 -14 q 184 19 231 -14 q 116 112 138 51 q 94 258 94 172 l 94 746 l 210 746 l 210 276 q 238 134 210 181 q 324 88 265 88 q 420 117 385 88 q 471 204 456 146 q 486 351 486 263 l 486 746 l 603 746 m 499 -162 q 515 -212 499 -194 q 561 -229 532 -229 q 592 -226 579 -229 q 613 -221 604 -222 l 613 -299 q 581 -307 599 -304 q 540 -310 564 -310 q 438 -276 472 -310 q 404 -181 404 -243 q 419 -108 404 -143 q 462 -40 435 -72 q 521 18 489 -7 l 586 0 q 519 -83 539 -46 q 499 -162 499 -121 z "},"Ŵ":{"ha":1086,"x_min":8,"x_max":1078,"o":"m 1078 992 l 857 0 l 722 0 l 575 638 q 567 677 572 654 q 558 725 563 700 q 550 778 554 750 q 542 832 546 806 q 537 791 540 814 q 529 742 533 768 q 519 689 525 715 q 508 638 514 663 l 365 0 l 232 0 l 8 992 l 131 992 l 261 385 q 274 315 268 349 q 286 249 281 281 q 296 190 292 218 q 301 139 300 163 q 310 200 306 169 q 322 262 315 231 q 333 324 328 293 q 346 385 339 356 l 485 992 l 600 992 l 740 383 q 752 326 746 356 q 764 265 758 296 q 774 203 769 235 q 783 139 779 172 q 795 224 789 182 q 809 306 801 265 q 825 385 817 347 l 957 992 l 1078 992 m 599 1310 q 638 1242 614 1279 q 690 1167 663 1204 q 742 1101 718 1131 l 742 1088 l 672 1088 q 608 1147 640 1114 q 543 1217 576 1181 q 476 1146 510 1181 q 414 1088 443 1111 l 346 1088 l 346 1101 q 398 1172 371 1135 q 449 1244 425 1208 q 486 1310 472 1281 l 599 1310 z "},"ŵ":{"ha":915,"x_min":14,"x_max":903,"o":"m 493 442 q 483 488 488 465 q 474 534 478 511 q 466 577 469 557 q 460 617 463 597 l 456 617 q 449 576 453 597 q 442 532 446 554 q 433 487 438 510 q 422 442 428 464 l 318 0 l 186 0 l 14 746 l 131 746 l 214 367 q 229 288 221 328 q 244 208 238 247 q 256 133 250 169 l 260 133 q 267 182 263 156 q 277 238 272 208 q 288 296 282 267 q 301 356 294 325 l 394 746 l 522 746 l 614 354 q 628 292 621 328 q 643 217 636 257 q 656 133 650 176 l 660 133 q 667 181 663 153 q 678 242 671 208 q 692 311 685 275 l 788 746 l 903 746 l 725 0 l 592 0 l 493 442 m 513 1064 q 552 996 528 1033 q 604 922 576 958 q 656 856 632 885 l 656 842 l 586 842 q 522 901 554 868 q 457 971 490 935 q 390 900 424 935 q 328 842 357 865 l 260 842 l 260 856 q 312 926 285 889 q 363 999 339 963 q 400 1064 386 1035 l 513 1064 z "},"Ŷ":{"ha":617,"x_min":0,"x_max":617,"o":"m 310 519 l 490 992 l 617 992 l 368 386 l 368 0 l 249 0 l 249 382 l 0 992 l 126 992 l 310 519 m 364 1310 q 403 1242 379 1279 q 456 1167 428 1204 q 507 1101 483 1131 l 507 1088 l 438 1088 q 374 1147 406 1114 q 308 1217 342 1181 q 242 1146 275 1181 q 179 1088 208 1111 l 111 1088 l 111 1101 q 163 1172 136 1135 q 214 1244 190 1208 q 251 1310 238 1281 l 364 1310 z "},"ŷ":{"ha":572,"x_min":4,"x_max":568,"o":"m 4 746 l 125 746 l 244 322 q 260 263 253 293 q 274 203 267 233 q 286 143 281 174 l 292 143 q 308 227 297 181 q 333 324 319 274 l 449 746 l 568 746 l 318 -110 q 266 -233 296 -183 q 195 -308 236 -283 q 97 -333 154 -333 q 56 -331 75 -333 q 18 -322 38 -328 l 18 -224 q 49 -229 32 -226 q 81 -232 65 -232 q 135 -218 113 -232 q 174 -174 157 -204 q 204 -93 190 -143 l 232 3 l 4 746 m 342 1064 q 381 996 357 1033 q 433 922 406 958 q 485 856 461 885 l 485 842 l 415 842 q 351 901 383 868 q 286 971 319 935 q 219 900 253 935 q 157 842 186 865 l 89 842 l 89 856 q 141 926 114 889 q 192 999 168 963 q 229 1064 215 1035 l 342 1064 z "},"Ÿ":{"ha":617,"x_min":0,"x_max":617,"o":"m 310 519 l 490 992 l 617 992 l 368 386 l 368 0 l 249 0 l 249 382 l 0 992 l 126 992 l 310 519 m 129 1179 q 147 1232 129 1215 q 190 1249 164 1249 q 233 1231 215 1249 q 250 1179 250 1214 q 233 1125 250 1143 q 190 1107 215 1107 q 147 1125 164 1107 q 129 1179 129 1143 m 365 1179 q 383 1232 365 1215 q 426 1249 401 1249 q 469 1231 451 1249 q 488 1179 488 1214 q 469 1125 488 1143 q 426 1107 451 1107 q 383 1125 400 1107 q 365 1179 365 1143 z "},"Ź":{"ha":589,"x_min":42,"x_max":554,"o":"m 554 0 l 42 0 l 42 92 l 410 885 l 50 885 l 50 992 l 543 992 l 543 899 l 174 107 l 554 107 l 554 0 m 485 1297 q 449 1247 472 1275 q 399 1190 426 1219 q 345 1133 372 1160 q 296 1088 318 1107 l 221 1088 l 221 1103 q 269 1173 246 1138 q 312 1244 292 1208 q 347 1310 332 1279 l 485 1310 l 485 1297 z "},"ź":{"ha":490,"x_min":40,"x_max":454,"o":"m 454 0 l 40 0 l 40 78 l 317 650 l 57 650 l 57 746 l 444 746 l 444 661 l 169 96 l 454 96 l 454 0 m 439 1051 q 403 1001 426 1029 q 353 944 381 974 q 299 888 326 914 q 250 842 272 861 l 175 842 l 175 857 q 223 927 200 892 q 266 998 246 963 q 301 1064 286 1033 l 439 1064 l 439 1051 z "},"Ż":{"ha":589,"x_min":42,"x_max":554,"o":"m 554 0 l 42 0 l 42 92 l 410 885 l 50 885 l 50 992 l 543 992 l 543 899 l 174 107 l 554 107 l 554 0 m 297 1271 q 346 1251 328 1271 q 364 1192 364 1231 q 346 1133 364 1154 q 297 1113 328 1113 q 248 1133 267 1113 q 229 1192 229 1154 q 247 1251 229 1232 q 297 1271 265 1271 z "},"ż":{"ha":490,"x_min":40,"x_max":454,"o":"m 454 0 l 40 0 l 40 78 l 317 650 l 57 650 l 57 746 l 444 746 l 444 661 l 169 96 l 454 96 l 454 0 m 253 1025 q 301 1005 283 1025 q 319 946 319 985 q 301 888 319 908 q 253 867 283 867 q 203 888 222 867 q 185 946 185 908 q 203 1006 185 986 q 253 1025 221 1025 z "},"Ž":{"ha":589,"x_min":42,"x_max":554,"o":"m 554 0 l 42 0 l 42 92 l 410 885 l 50 885 l 50 992 l 543 992 l 543 899 l 174 107 l 554 107 l 554 0 m 239 1088 q 200 1155 224 1118 q 150 1228 176 1192 q 99 1294 124 1264 l 99 1310 l 167 1310 q 231 1251 197 1286 q 296 1181 264 1217 q 360 1249 332 1221 q 425 1310 389 1278 l 494 1310 l 494 1294 q 444 1231 472 1267 q 392 1157 417 1194 q 351 1088 367 1119 l 239 1088 z "},"ž":{"ha":490,"x_min":40,"x_max":454,"o":"m 454 0 l 40 0 l 40 78 l 317 650 l 57 650 l 57 746 l 444 746 l 444 661 l 169 96 l 454 96 l 454 0 m 194 842 q 156 909 179 872 q 106 982 132 946 q 54 1049 79 1018 l 54 1064 l 122 1064 q 186 1006 153 1040 q 251 935 219 971 q 316 1003 288 975 q 381 1064 344 1032 l 450 1064 l 450 1049 q 400 985 428 1021 q 347 911 372 949 q 307 842 322 874 l 194 842 z "},"ſ":{"ha":357,"x_min":103,"x_max":415,"o":"m 306 963 q 239 926 258 963 q 219 799 219 889 l 219 0 l 103 0 l 103 796 q 123 944 103 885 q 185 1033 143 1003 q 296 1063 228 1063 q 358 1056 329 1063 q 415 1039 388 1050 l 385 947 q 346 958 367 954 q 306 963 325 963 z "},"ƒ":{"ha":511,"x_min":-8,"x_max":551,"o":"m 176 -336 q 40 -288 89 -336 q -8 -156 -8 -240 q -6 -122 -8 -137 q 0 -96 -4 -107 l 99 -117 q 96 -131 97 -122 q 94 -154 94 -140 q 115 -215 94 -193 q 168 -236 135 -236 q 219 -211 200 -236 q 239 -135 239 -186 l 239 651 l 136 651 l 136 710 l 239 750 l 239 793 q 258 942 239 882 q 318 1032 276 1001 q 431 1063 360 1063 q 494 1056 465 1063 q 551 1039 522 1050 l 521 947 q 481 959 501 954 q 440 964 460 964 q 374 926 393 964 q 354 796 356 889 l 354 746 l 493 746 l 493 651 l 354 651 l 354 -128 q 333 -240 354 -193 q 271 -312 311 -287 q 176 -336 231 -336 z "},"Ǻ":{"ha":704,"x_min":0,"x_max":704,"o":"m 269 865 q 219 907 238 879 q 201 975 201 935 q 242 1079 201 1040 q 349 1118 282 1118 q 456 1080 414 1118 q 499 978 499 1042 q 481 908 499 936 q 432 865 463 879 l 704 0 l 578 0 l 499 261 l 203 261 l 126 0 l 0 0 l 269 865 m 232 369 l 471 369 l 381 675 q 369 724 375 699 q 358 772 363 749 q 350 811 354 794 q 344 783 347 799 q 338 753 340 768 q 331 724 335 739 q 325 697 328 710 l 232 369 m 350 903 q 404 922 383 903 q 425 976 425 942 q 405 1030 425 1010 q 350 1050 385 1050 q 296 1030 317 1050 q 275 976 275 1010 q 294 922 275 942 q 350 903 313 903 m 281 1165 q 337 1235 314 1206 q 374 1288 360 1265 q 399 1332 389 1311 l 540 1332 l 540 1321 q 509 1283 529 1304 q 463 1238 489 1261 q 410 1192 438 1214 q 361 1153 383 1169 l 281 1153 l 281 1165 z "},"ǻ":{"ha":638,"x_min":53,"x_max":543,"o":"m 326 758 q 492 694 442 758 q 543 504 543 629 l 543 0 l 456 0 l 438 104 l 433 104 q 383 38 411 64 q 320 -1 356 13 q 239 -14 285 -14 q 137 15 179 -14 q 74 94 94 44 q 53 208 53 144 q 124 380 53 319 q 332 446 194 440 l 429 450 l 429 499 q 400 625 429 586 q 313 664 371 664 q 233 651 274 664 q 151 615 193 639 l 115 701 q 214 744 160 729 q 326 758 268 758 m 350 364 q 213 321 254 360 q 171 210 171 282 q 199 111 171 143 q 275 79 226 79 q 387 135 344 79 q 429 296 429 192 l 429 368 l 350 364 m 328 1042 q 274 1022 296 1042 q 251 968 251 1001 q 271 915 251 935 q 328 894 290 894 q 382 915 361 894 q 403 968 403 935 q 383 1022 403 1001 q 328 1042 363 1042 m 328 1110 q 404 1092 371 1110 q 457 1044 438 1075 q 476 969 476 1014 q 435 865 476 904 q 328 826 394 826 q 220 865 260 826 q 181 968 181 903 q 221 1072 181 1033 q 328 1110 261 1110 m 529 1319 q 477 1263 513 1296 q 403 1198 442 1229 q 340 1149 365 1167 l 258 1149 l 258 1161 q 308 1224 286 1196 q 347 1279 329 1253 q 376 1329 364 1306 l 529 1329 l 529 1319 z "},"Ǽ":{"ha":965,"x_min":-3,"x_max":896,"o":"m 896 0 l 465 0 l 465 308 l 232 308 l 125 0 l -3 0 l 347 992 l 896 992 l 896 885 l 585 885 l 585 571 l 875 571 l 875 465 l 585 465 l 585 107 l 896 107 l 896 0 m 267 418 l 467 418 l 467 883 l 425 883 l 267 418 m 701 1297 q 666 1247 689 1275 q 616 1190 643 1219 q 562 1133 589 1160 q 513 1088 535 1107 l 438 1088 l 438 1103 q 485 1173 463 1138 q 528 1244 508 1208 q 564 1310 549 1279 l 701 1310 l 701 1297 z "},"ǽ":{"ha":990,"x_min":53,"x_max":928,"o":"m 683 758 q 818 715 764 758 q 900 598 872 672 q 928 428 928 524 l 928 351 l 538 351 q 585 149 540 215 q 715 83 629 83 q 809 96 764 83 q 899 133 854 108 l 899 33 q 808 -2 854 10 q 707 -14 763 -14 q 609 3 656 -14 q 528 55 563 21 q 469 138 493 89 q 412 53 444 88 q 338 3 379 19 q 244 -14 297 -14 q 140 15 183 -14 q 74 94 96 44 q 53 208 53 144 q 83 334 53 282 q 176 415 114 386 q 326 446 238 443 l 422 450 l 422 499 q 393 624 422 585 q 306 664 364 664 q 228 651 268 664 q 146 615 188 639 l 108 701 q 203 742 150 726 q 315 758 256 758 q 428 733 383 758 q 494 653 472 707 q 574 731 526 704 q 683 758 621 758 m 344 364 q 212 322 253 360 q 171 210 171 285 q 198 111 171 143 q 272 79 225 79 q 351 104 318 79 q 403 178 385 129 q 422 296 422 226 l 422 368 l 344 364 m 682 664 q 583 609 619 664 q 540 442 546 554 l 817 442 q 803 556 817 506 q 759 635 789 606 q 682 664 729 664 m 692 1051 q 656 1001 679 1029 q 606 944 633 974 q 552 888 579 914 q 503 842 525 861 l 428 842 l 428 857 q 476 927 453 892 q 519 998 499 963 q 554 1064 539 1033 l 692 1064 l 692 1051 z "},"Ǿ":{"ha":860,"x_min":74,"x_max":788,"o":"m 788 497 q 765 281 788 376 q 697 120 742 186 q 585 20 651 54 q 431 -14 518 -14 q 322 3 372 -14 q 232 50 272 19 l 172 -60 l 97 -21 l 169 114 q 97 281 121 185 q 74 499 74 376 q 114 776 74 663 q 233 947 154 889 q 432 1006 313 1006 q 540 988 490 1006 q 631 936 590 971 l 692 1044 l 767 1003 l 693 871 q 764 712 740 806 q 788 497 788 618 m 663 497 q 624 746 663 651 l 288 153 q 351 107 315 122 q 431 92 386 92 q 560 138 508 92 q 638 274 613 183 q 663 497 663 365 m 197 497 q 208 350 197 415 q 239 238 218 285 l 576 833 q 513 883 549 867 q 432 900 478 900 q 301 853 353 900 q 223 717 249 807 q 197 497 197 628 m 621 1297 q 585 1247 608 1275 q 535 1190 563 1219 q 481 1133 508 1160 q 432 1088 454 1107 l 357 1088 l 357 1103 q 405 1173 382 1138 q 448 1244 428 1208 q 483 1310 468 1279 l 621 1310 l 621 1297 z "},"ǿ":{"ha":685,"x_min":63,"x_max":621,"o":"m 621 374 q 588 163 621 250 q 492 31 554 76 q 339 -14 429 -14 q 263 -3 299 -14 q 199 28 228 8 l 143 -78 l 71 -39 l 139 86 q 82 210 101 139 q 63 374 63 282 q 135 661 63 563 q 343 760 208 760 q 421 747 385 760 q 488 710 457 735 l 540 806 l 613 767 l 550 651 q 602 531 583 600 q 621 374 621 461 m 179 374 q 185 276 179 319 q 203 199 190 232 l 440 619 q 397 651 422 642 q 342 661 372 661 q 218 588 257 661 q 179 374 179 515 m 506 374 q 500 465 506 424 q 485 536 494 506 l 249 118 q 290 92 267 101 q 342 82 314 82 q 434 115 397 82 q 488 214 471 149 q 506 374 506 279 m 531 1051 q 495 1001 518 1029 q 445 944 472 974 q 391 888 418 914 q 342 842 364 861 l 267 842 l 267 857 q 315 927 292 892 q 358 998 338 963 q 393 1064 378 1033 l 531 1064 l 531 1051 z "},"Ș":{"ha":631,"x_min":58,"x_max":574,"o":"m 574 271 q 538 122 574 185 q 438 22 503 58 q 285 -14 372 -14 q 199 -9 240 -14 q 123 6 158 -4 q 58 31 88 17 l 58 151 q 166 110 106 125 q 283 96 226 96 q 376 117 339 96 q 434 176 414 139 q 454 260 454 214 q 438 342 454 308 q 382 403 421 375 q 276 460 343 431 q 188 510 226 483 q 122 569 149 536 q 81 645 94 601 q 67 747 67 689 q 101 883 65 825 q 198 974 136 942 q 339 1006 260 1007 q 460 991 404 1006 q 561 956 517 976 l 522 849 q 432 883 478 871 q 340 896 386 896 q 257 877 290 896 q 206 826 224 858 q 188 750 188 793 q 203 667 188 700 q 258 608 219 633 q 360 550 296 582 q 478 478 431 518 q 550 388 526 439 q 574 271 574 338 m 379 -99 q 355 -167 371 -129 q 319 -242 339 -206 q 279 -307 300 -278 l 214 -307 l 214 -292 q 233 -229 224 -267 q 251 -152 243 -192 q 263 -85 260 -112 l 379 -85 l 379 -99 z "},"ș":{"ha":529,"x_min":53,"x_max":479,"o":"m 479 201 q 451 84 479 132 q 369 11 422 36 q 242 -14 317 -14 q 136 -2 183 -14 q 54 29 89 10 l 54 144 q 139 103 89 121 q 240 86 189 86 q 335 115 303 86 q 367 196 367 144 q 354 247 367 224 q 312 291 342 269 q 232 338 282 313 q 138 395 178 365 q 75 465 97 425 q 53 563 53 506 q 117 707 53 654 q 283 760 181 760 q 384 747 338 760 q 474 710 431 733 l 432 618 q 360 650 397 638 q 282 663 322 663 q 195 637 226 663 q 164 567 164 611 q 177 515 164 538 q 222 473 190 493 q 304 426 253 453 q 397 369 357 399 q 458 299 436 339 q 479 201 479 260 m 336 -99 q 312 -167 328 -129 q 276 -242 296 -206 q 236 -307 257 -278 l 171 -307 l 171 -292 q 190 -229 181 -267 q 208 -152 200 -192 q 219 -85 217 -112 l 336 -85 l 336 -99 z "},"ˆ":{"ha":507,"x_min":56,"x_max":451,"o":"m 308 1064 q 348 996 324 1033 q 400 922 372 958 q 451 856 428 885 l 451 842 l 382 842 q 318 901 350 868 q 253 971 286 935 q 186 900 219 935 q 124 842 153 865 l 56 842 l 56 856 q 108 926 81 889 q 158 999 135 963 q 196 1064 182 1035 l 308 1064 z "},"ˇ":{"ha":507,"x_min":56,"x_max":451,"o":"m 196 842 q 157 909 181 872 q 107 982 133 946 q 56 1049 81 1018 l 56 1064 l 124 1064 q 188 1006 154 1040 q 253 935 221 971 q 317 1003 289 975 q 382 1064 346 1032 l 451 1064 l 451 1049 q 401 985 429 1021 q 349 911 374 949 q 308 842 324 874 l 196 842 z "},"ˉ":{"ha":471,"x_min":56,"x_max":415,"o":"m 415 939 l 415 850 l 56 850 l 56 939 l 415 939 z "},"˘":{"ha":478,"x_min":56,"x_max":422,"o":"m 422 1029 q 397 930 421 972 q 333 865 374 888 q 236 843 292 843 q 106 890 151 843 q 56 1029 60 938 l 129 1029 q 147 973 133 994 q 183 942 160 951 q 239 932 207 932 q 293 942 269 932 q 331 974 317 953 q 349 1029 346 994 l 422 1029 z "},"˙":{"ha":246,"x_min":56,"x_max":190,"o":"m 124 1025 q 172 1005 154 1025 q 190 946 190 985 q 172 888 190 908 q 124 867 154 867 q 74 888 93 867 q 56 946 56 908 q 74 1006 56 986 q 124 1025 92 1025 z "},"˚":{"ha":407,"x_min":56,"x_max":351,"o":"m 203 844 q 95 883 135 844 q 56 986 56 921 q 95 1090 56 1051 q 203 1128 135 1128 q 309 1090 267 1128 q 351 989 351 1053 q 310 883 351 922 q 203 844 269 844 m 204 913 q 258 933 236 913 q 279 986 279 953 q 259 1040 279 1019 q 204 1061 239 1061 q 149 1040 171 1061 q 128 986 128 1019 q 147 933 128 953 q 204 913 167 913 z "},"˛":{"ha":319,"x_min":56,"x_max":264,"o":"m 150 -162 q 167 -212 150 -194 q 213 -229 183 -229 q 243 -226 231 -229 q 264 -221 256 -222 l 264 -299 q 233 -307 250 -304 q 192 -310 215 -310 q 90 -276 124 -310 q 56 -181 56 -243 q 71 -108 56 -143 q 113 -40 86 -72 q 172 18 140 -7 l 238 0 q 170 -83 190 -46 q 150 -162 150 -121 z "},"˜":{"ha":551,"x_min":56,"x_max":496,"o":"m 56 840 q 67 907 58 876 q 92 962 76 938 q 129 999 107 986 q 182 1013 151 1013 q 233 1001 208 1013 q 282 973 258 989 q 327 945 306 957 q 369 933 349 933 q 406 955 393 933 q 426 1014 419 976 l 496 1014 q 457 887 490 932 q 371 842 424 842 q 319 854 344 842 q 270 882 294 867 q 225 910 246 897 q 185 922 204 922 q 148 901 163 922 q 125 840 133 881 l 56 840 z "},"˝":{"ha":560,"x_min":56,"x_max":504,"o":"m 504 1051 q 472 1001 493 1031 q 426 942 451 972 q 375 886 400 913 q 329 842 350 860 l 269 842 l 269 857 q 311 926 289 886 q 353 1003 333 965 q 382 1064 372 1040 l 504 1064 l 504 1051 m 290 1051 q 258 1001 278 1029 q 215 944 239 974 q 165 889 192 915 q 114 842 139 863 l 56 842 l 56 857 q 98 927 76 889 q 138 1002 119 965 q 168 1064 157 1039 l 290 1064 l 290 1051 z "},"΄":{"ha":317,"x_min":56,"x_max":261,"o":"m 56 842 l 56 857 l 124 1078 l 261 1078 l 261 1065 l 131 842 l 56 842 z "},"΅":{"ha":857,"x_min":196,"x_max":661,"o":"m 351 842 l 351 857 l 406 1078 l 543 1078 l 543 1065 l 426 842 l 351 842 m 257 861 q 213 879 231 861 q 196 933 196 897 q 213 986 196 969 q 257 1003 231 1003 q 299 985 282 1003 q 317 933 317 968 q 299 879 317 897 q 257 861 282 861 m 599 861 q 555 879 572 861 q 538 933 538 897 q 556 986 538 969 q 600 1003 574 1003 q 643 985 625 1003 q 661 933 661 968 q 643 879 661 897 q 599 861 625 861 z "},"Ά":{"ha":793,"x_min":14,"x_max":792,"o":"m 667 0 l 581 308 l 300 308 l 214 0 l 89 0 l 374 993 l 506 993 l 792 0 l 667 0 m 469 736 q 458 783 465 757 q 447 835 451 808 q 438 881 442 861 q 430 832 435 857 q 419 783 425 807 q 408 736 414 760 l 325 418 l 554 418 l 469 736 m 14 756 l 14 771 l 82 992 l 219 992 l 219 979 l 89 756 l 14 756 z "},"·":{"ha":332,"x_min":88,"x_max":244,"o":"m 88 664 q 108 732 88 710 q 165 754 129 754 q 222 733 200 754 q 244 664 244 713 q 222 595 244 617 q 165 574 200 574 q 109 596 131 574 q 88 664 88 618 z "},"Έ":{"ha":843,"x_min":14,"x_max":774,"o":"m 774 0 l 331 0 l 331 992 l 774 992 l 774 886 l 450 886 l 450 571 l 754 571 l 754 465 l 450 465 l 450 107 l 774 107 l 774 0 m 14 756 l 14 771 l 82 992 l 219 992 l 219 979 l 89 756 l 14 756 z "},"Ή":{"ha":1047,"x_min":14,"x_max":936,"o":"m 936 0 l 817 0 l 817 464 l 450 464 l 450 0 l 331 0 l 331 992 l 450 992 l 450 571 l 817 571 l 817 992 l 936 992 l 936 0 m 14 756 l 14 771 l 82 992 l 219 992 l 219 979 l 89 756 l 14 756 z "},"Ί":{"ha":664,"x_min":14,"x_max":613,"o":"m 613 0 l 297 0 l 297 68 l 394 93 l 394 899 l 297 924 l 297 992 l 613 992 l 613 924 l 514 899 l 514 93 l 613 68 l 613 0 m 14 756 l 14 771 l 82 992 l 219 992 l 219 979 l 89 756 l 14 756 z "},"Ό":{"ha":1011,"x_min":14,"x_max":938,"o":"m 938 497 q 917 294 938 388 q 852 132 896 201 q 741 24 808 63 q 581 -14 674 -14 q 418 26 486 -14 q 307 134 350 65 q 244 297 264 203 q 224 499 224 390 q 263 776 224 663 q 383 947 303 889 q 582 1006 463 1006 q 784 939 706 1006 q 900 758 863 872 q 938 497 938 643 m 349 497 q 374 276 349 367 q 451 140 400 186 q 581 93 503 93 q 709 139 658 93 q 785 275 760 185 q 811 497 811 365 q 755 797 811 694 q 582 899 699 899 q 451 853 503 899 q 374 717 399 807 q 349 497 349 628 m 14 756 l 14 771 l 82 992 l 219 992 l 219 979 l 89 756 l 14 756 z "},"Ύ":{"ha":907,"x_min":14,"x_max":907,"o":"m 599 519 l 779 992 l 906 992 l 657 386 l 657 0 l 538 0 l 538 382 l 289 992 l 415 992 l 599 519 m 14 756 l 14 771 l 82 992 l 219 992 l 219 979 l 89 756 l 14 756 z "},"Ώ":{"ha":943,"x_min":14,"x_max":917,"o":"m 190 0 l 190 107 l 363 107 q 274 215 311 150 q 217 363 236 281 q 197 542 197 446 q 239 792 197 688 q 360 951 281 896 q 556 1006 440 1006 q 749 950 671 1006 q 868 790 828 894 q 908 543 908 686 q 889 362 908 446 q 833 214 869 278 q 743 107 796 150 l 915 107 l 915 0 l 617 0 l 617 94 q 716 215 679 151 q 769 357 753 278 q 786 535 786 436 q 761 728 786 646 q 685 854 736 810 q 556 899 635 899 q 424 856 476 899 q 347 731 372 813 q 321 535 321 649 q 336 357 321 436 q 388 215 351 278 q 489 94 425 151 l 489 0 l 190 0 m 14 756 l 14 771 l 82 992 l 219 992 l 219 979 l 89 756 l 14 756 z "},"ΐ":{"ha":369,"x_min":-29,"x_max":436,"o":"m 267 -14 q 173 11 211 -12 q 116 84 135 35 q 97 207 97 133 l 97 746 l 213 746 l 213 204 q 231 115 213 142 q 285 88 250 88 q 317 91 301 88 q 347 100 332 94 l 347 0 q 312 -10 332 -6 q 267 -14 292 -14 m 128 842 l 128 857 l 182 1078 l 319 1078 l 319 1065 l 203 842 l 128 842 m 33 861 q -10 879 7 861 q -28 933 -28 897 q -10 986 -28 969 q 33 1003 7 1003 q 76 985 58 1003 q 93 933 93 968 q 76 879 93 897 q 33 861 58 861 m 375 861 q 331 879 349 861 q 314 933 314 897 q 332 986 314 969 q 376 1003 350 1003 q 419 985 401 1003 q 438 933 438 968 q 419 879 438 897 q 375 861 401 861 z "},"Α":{"ha":704,"x_min":0,"x_max":703,"o":"m 578 0 l 492 308 l 211 308 l 125 0 l 0 0 l 285 993 l 417 993 l 703 0 l 578 0 m 381 736 q 369 783 376 757 q 358 835 363 808 q 349 881 353 861 q 341 832 346 857 q 331 783 336 807 q 319 736 325 760 l 236 418 l 465 418 l 381 736 z "},"Β":{"ha":735,"x_min":111,"x_max":674,"o":"m 350 992 q 574 933 499 992 q 650 751 650 875 q 632 642 650 689 q 579 566 614 596 q 493 525 544 536 l 493 519 q 592 479 551 508 q 653 402 632 450 q 674 283 674 354 q 641 133 674 197 q 546 35 608 69 q 394 0 483 0 l 111 0 l 111 992 l 350 992 m 357 568 q 489 610 450 568 q 528 739 528 653 q 484 853 528 815 q 350 890 440 890 l 231 890 l 231 568 l 357 568 m 231 467 l 231 103 l 378 103 q 509 151 468 103 q 550 290 550 200 q 530 387 550 347 q 469 447 510 426 q 365 467 428 467 l 231 467 z "},"Γ":{"ha":568,"x_min":111,"x_max":536,"o":"m 111 0 l 111 992 l 536 992 l 536 886 l 231 886 l 231 0 l 111 0 z "},"Δ":{"ha":714,"x_min":14,"x_max":699,"o":"m 14 0 l 14 78 l 289 993 l 421 993 l 699 78 l 699 0 l 14 0 m 147 110 l 565 110 l 390 736 q 378 783 385 757 q 365 835 371 808 q 354 881 358 861 q 345 832 351 857 q 333 783 339 807 q 321 736 326 760 l 147 110 z "},"Ε":{"ha":622,"x_min":111,"x_max":554,"o":"m 554 0 l 111 0 l 111 992 l 554 992 l 554 886 l 231 886 l 231 571 l 535 571 l 535 465 l 231 465 l 231 107 l 554 107 l 554 0 z "},"Ζ":{"ha":589,"x_min":42,"x_max":554,"o":"m 554 0 l 42 0 l 42 92 l 410 885 l 50 885 l 50 992 l 543 992 l 543 899 l 174 107 l 554 107 l 554 0 z "},"Η":{"ha":826,"x_min":111,"x_max":717,"o":"m 717 0 l 597 0 l 597 464 l 231 464 l 231 0 l 111 0 l 111 992 l 231 992 l 231 571 l 597 571 l 597 992 l 717 992 l 717 0 z "},"Θ":{"ha":860,"x_min":74,"x_max":788,"o":"m 283 453 l 283 557 l 576 557 l 576 453 l 283 453 m 788 497 q 767 294 788 388 q 702 132 746 201 q 591 24 658 63 q 431 -14 524 -14 q 268 26 336 -14 q 157 134 200 65 q 94 297 114 203 q 74 499 74 390 q 113 776 74 663 q 233 947 153 889 q 432 1006 313 1006 q 634 939 556 1006 q 750 758 713 872 q 788 497 788 643 m 199 497 q 224 276 199 367 q 301 140 250 186 q 431 93 353 93 q 559 139 508 93 q 635 275 610 185 q 661 497 661 365 q 605 797 661 694 q 432 899 549 899 q 301 853 353 899 q 224 717 249 807 q 199 497 199 628 z "},"Ι":{"ha":417,"x_min":50,"x_max":365,"o":"m 365 0 l 50 0 l 50 68 l 147 93 l 147 899 l 50 924 l 50 992 l 365 992 l 365 924 l 267 899 l 267 93 l 365 68 l 365 0 z "},"Κ":{"ha":693,"x_min":111,"x_max":696,"o":"m 696 0 l 561 0 l 311 463 l 231 378 l 231 0 l 111 0 l 111 992 l 231 992 l 231 497 q 275 565 249 525 q 335 654 301 604 l 551 992 l 683 992 l 393 554 l 696 0 z "},"Λ":{"ha":692,"x_min":0,"x_max":690,"o":"m 0 0 l 278 993 l 410 993 l 690 0 l 565 0 l 374 736 q 363 783 369 757 q 352 835 357 808 q 343 881 347 861 q 335 832 340 857 q 325 783 331 807 q 314 736 319 760 l 125 0 l 0 0 z "},"Μ":{"ha":1076,"x_min":111,"x_max":967,"o":"m 483 0 l 221 843 l 215 843 q 220 763 218 803 q 223 689 222 724 q 224 626 224 654 l 224 0 l 111 0 l 111 992 l 282 992 l 536 181 l 540 181 l 794 992 l 967 992 l 967 0 l 850 0 l 850 626 q 851 690 850 656 q 853 763 851 724 q 857 843 856 801 l 851 843 l 588 0 l 483 0 z "},"Ν":{"ha":869,"x_min":111,"x_max":760,"o":"m 760 0 l 617 0 l 219 813 l 214 813 q 219 739 217 776 q 222 665 221 701 q 224 592 224 628 l 224 0 l 111 0 l 111 992 l 254 992 l 650 189 l 654 189 q 651 262 653 224 q 648 338 649 300 q 647 407 647 376 l 647 992 l 760 992 l 760 0 z "},"Ξ":{"ha":697,"x_min":68,"x_max":629,"o":"m 68 0 l 68 108 l 629 108 l 629 0 l 68 0 m 126 465 l 126 574 l 572 574 l 572 465 l 126 465 m 89 883 l 89 992 l 610 992 l 610 883 l 89 883 z "},"Ο":{"ha":860,"x_min":74,"x_max":788,"o":"m 788 497 q 767 294 788 388 q 702 132 746 201 q 591 24 658 63 q 431 -14 524 -14 q 268 26 336 -14 q 157 134 200 65 q 94 297 114 203 q 74 499 74 390 q 113 776 74 663 q 233 947 153 889 q 432 1006 313 1006 q 634 939 556 1006 q 750 758 713 872 q 788 497 788 643 m 199 497 q 224 276 199 367 q 301 140 250 186 q 431 93 353 93 q 559 139 508 93 q 635 275 610 185 q 661 497 661 365 q 605 797 661 694 q 432 899 549 899 q 301 853 353 899 q 224 717 249 807 q 199 497 199 628 z "},"Π":{"ha":822,"x_min":111,"x_max":713,"o":"m 111 0 l 111 992 l 713 992 l 713 0 l 593 0 l 593 885 l 231 885 l 231 0 l 111 0 z "},"Ρ":{"ha":683,"x_min":111,"x_max":632,"o":"m 318 992 q 556 918 479 992 q 632 699 632 844 q 613 569 632 628 q 555 470 594 511 q 455 408 515 429 q 310 386 394 386 l 231 386 l 231 0 l 111 0 l 111 992 l 318 992 m 313 888 l 231 888 l 231 490 l 297 490 q 417 511 371 490 q 486 578 464 532 q 508 696 508 624 q 461 842 508 797 q 313 888 414 888 z "},"Σ":{"ha":590,"x_min":42,"x_max":554,"o":"m 42 0 l 42 99 l 281 511 l 51 894 l 51 992 l 543 992 l 543 886 l 303 886 q 244 887 274 886 q 192 889 214 888 l 403 542 l 403 513 l 167 103 q 233 106 201 106 q 297 107 264 107 l 554 107 l 554 0 l 42 0 z "},"Τ":{"ha":601,"x_min":14,"x_max":586,"o":"m 360 0 l 240 0 l 240 885 l 14 885 l 14 992 l 586 992 l 586 885 l 360 885 l 360 0 z "},"Υ":{"ha":617,"x_min":0,"x_max":617,"o":"m 310 519 l 490 992 l 617 992 l 368 386 l 368 0 l 249 0 l 249 382 l 0 992 l 126 992 l 310 519 z "},"Φ":{"ha":994,"x_min":60,"x_max":936,"o":"m 440 0 l 440 135 q 265 165 338 136 q 148 247 193 194 q 81 369 103 300 q 60 517 60 439 q 82 660 60 593 q 149 778 104 728 q 267 858 194 829 q 440 888 339 888 l 440 992 l 557 992 l 557 888 q 731 859 660 888 q 848 780 803 831 q 915 662 893 729 q 936 517 936 594 q 915 369 936 439 q 849 248 894 300 q 731 166 803 196 q 557 135 658 136 l 557 0 l 440 0 m 440 236 l 440 785 q 288 751 346 783 q 206 660 231 719 q 181 517 181 600 q 208 366 181 428 q 292 271 235 304 q 440 236 349 238 m 557 236 q 707 272 650 238 q 790 368 764 306 q 817 517 817 431 q 791 663 817 603 q 708 753 765 722 q 557 785 651 783 l 557 236 z "},"Χ":{"ha":633,"x_min":8,"x_max":625,"o":"m 625 0 l 496 0 l 319 413 l 132 0 l 8 0 l 254 518 l 32 992 l 158 992 l 322 615 l 486 992 l 611 992 l 389 513 l 625 0 z "},"Ψ":{"ha":928,"x_min":103,"x_max":824,"o":"m 406 0 l 406 256 q 274 285 331 261 q 178 351 217 308 q 122 457 140 394 q 103 603 103 519 l 103 992 l 222 992 l 222 611 q 240 478 222 535 q 299 392 258 422 q 406 361 339 361 l 406 992 l 522 992 l 522 361 q 622 387 582 361 q 683 467 663 413 q 704 611 704 522 l 704 992 l 824 992 l 824 607 q 790 420 824 496 q 690 303 757 344 q 522 256 622 263 l 522 0 l 406 0 z "},"Ω":{"ha":779,"x_min":26,"x_max":751,"o":"m 26 0 l 26 107 l 199 107 q 110 215 147 150 q 53 363 72 281 q 33 542 33 446 q 75 792 33 688 q 197 951 117 896 q 392 1006 276 1006 q 585 950 507 1006 q 704 790 664 894 q 744 543 744 686 q 725 362 744 446 q 669 214 706 278 q 579 107 632 150 l 751 107 l 751 0 l 453 0 l 453 94 q 552 215 515 151 q 606 357 589 278 q 622 535 622 436 q 597 728 622 646 q 522 854 572 810 q 392 899 471 899 q 260 856 313 899 q 183 731 208 813 q 157 535 157 649 q 172 357 157 436 q 224 215 188 278 q 325 94 261 151 l 325 0 l 26 0 z "},"Ϊ":{"ha":417,"x_min":28,"x_max":388,"o":"m 365 0 l 50 0 l 50 68 l 147 93 l 147 899 l 50 924 l 50 992 l 365 992 l 365 924 l 267 899 l 267 93 l 365 68 l 365 0 m 29 1179 q 47 1232 29 1215 q 90 1249 64 1249 q 133 1231 115 1249 q 150 1179 150 1214 q 133 1125 150 1143 q 90 1107 115 1107 q 47 1125 64 1107 q 29 1179 29 1143 m 265 1179 q 283 1232 265 1215 q 326 1249 301 1249 q 369 1231 351 1249 q 388 1179 388 1214 q 369 1125 388 1143 q 326 1107 351 1107 q 283 1125 300 1107 q 265 1179 265 1143 z "},"Ϋ":{"ha":617,"x_min":0,"x_max":617,"o":"m 310 519 l 490 992 l 617 992 l 368 386 l 368 0 l 249 0 l 249 382 l 0 992 l 126 992 l 310 519 m 129 1179 q 147 1232 129 1215 q 190 1249 164 1249 q 233 1231 215 1249 q 250 1179 250 1214 q 233 1125 250 1143 q 190 1107 215 1107 q 147 1125 164 1107 q 129 1179 129 1143 m 365 1179 q 383 1232 365 1215 q 426 1249 401 1249 q 469 1231 451 1249 q 488 1179 488 1214 q 469 1125 488 1143 q 426 1107 451 1107 q 383 1125 400 1107 q 365 1179 365 1143 z "},"ά":{"ha":725,"x_min":64,"x_max":703,"o":"m 306 -14 q 176 30 231 -14 q 93 159 122 74 q 64 371 64 244 q 129 661 64 563 q 311 760 194 760 q 383 747 350 760 q 442 710 415 735 q 492 646 469 685 l 499 646 l 513 746 l 608 746 l 608 175 q 622 106 608 128 q 661 83 636 83 q 683 85 672 83 q 703 90 694 88 l 703 0 q 685 -6 696 -3 q 662 -12 675 -10 q 638 -14 649 -14 q 547 13 581 -14 q 500 103 514 39 l 492 103 q 444 40 472 67 q 382 0 417 14 q 306 -14 347 -14 m 335 86 q 423 115 388 86 q 476 202 458 143 q 493 351 493 261 l 493 371 q 456 588 493 517 q 332 658 418 658 q 218 584 254 658 q 182 369 182 510 q 220 155 182 224 q 335 86 258 86 m 301 842 l 301 857 l 369 1078 l 507 1078 l 507 1065 l 376 842 l 301 842 z "},"έ":{"ha":522,"x_min":51,"x_max":489,"o":"m 310 -14 q 114 47 176 -14 q 51 204 51 108 q 69 296 51 258 q 118 356 88 333 q 183 388 149 378 l 183 393 q 103 453 135 410 q 72 563 72 497 q 99 666 72 622 q 176 735 125 710 q 293 760 226 760 q 401 747 353 760 q 489 710 449 733 l 453 614 q 385 647 421 636 q 310 658 349 658 q 215 631 246 658 q 185 549 185 603 q 220 465 185 493 q 319 436 256 436 l 381 436 l 381 342 l 321 342 q 238 328 272 342 q 187 285 204 314 q 169 213 169 257 q 211 118 169 150 q 325 86 253 86 q 403 94 363 86 q 479 125 443 101 l 479 25 q 404 -6 450 3 q 310 -14 358 -14 m 261 842 l 261 857 l 329 1078 l 467 1078 l 467 1065 l 336 842 l 261 842 z "},"ή":{"ha":688,"x_min":99,"x_max":592,"o":"m 476 -333 l 476 482 q 449 615 476 569 q 363 660 421 660 q 276 631 310 660 q 228 541 243 601 q 214 388 214 481 l 214 0 l 99 0 l 99 746 l 192 746 l 206 644 l 213 644 q 258 708 232 682 q 319 747 285 733 q 390 760 353 760 q 503 731 460 760 q 569 644 547 701 q 592 500 592 586 l 592 -333 l 476 -333 m 256 842 l 256 857 l 324 1078 l 461 1078 l 461 1065 l 331 842 l 256 842 z "},"ί":{"ha":369,"x_min":97,"x_max":347,"o":"m 267 -14 q 173 11 211 -12 q 116 84 135 35 q 97 207 97 133 l 97 746 l 213 746 l 213 204 q 231 115 213 142 q 285 88 250 88 q 317 91 301 88 q 347 100 332 94 l 347 0 q 312 -10 332 -6 q 267 -14 292 -14 m 126 842 l 126 857 l 194 1078 l 332 1078 l 332 1065 l 201 842 l 126 842 z "},"ΰ":{"ha":671,"x_min":94,"x_max":592,"o":"m 313 -12 q 210 3 251 -12 q 142 53 168 19 q 106 140 117 88 q 94 263 94 192 l 94 746 l 210 746 l 210 275 q 216 172 210 214 q 246 109 222 131 q 318 88 269 88 q 404 119 371 88 q 454 216 438 150 q 471 383 471 282 q 461 567 471 482 q 431 746 451 653 l 544 746 q 569 621 560 676 q 583 510 578 565 q 588 383 588 456 q 517 86 588 185 q 313 -12 447 -12 m 283 842 l 283 857 l 338 1078 l 475 1078 l 475 1065 l 358 842 l 283 842 m 189 861 q 145 879 163 861 q 128 933 128 897 q 145 986 128 969 q 189 1003 163 1003 q 231 985 214 1003 q 249 933 249 968 q 231 879 249 897 q 189 861 214 861 m 531 861 q 487 879 504 861 q 469 933 469 897 q 488 986 469 969 q 532 1003 506 1003 q 575 985 557 1003 q 593 933 593 968 q 575 879 593 897 q 531 861 557 861 z "},"α":{"ha":725,"x_min":64,"x_max":703,"o":"m 306 -14 q 176 30 231 -14 q 93 159 122 74 q 64 371 64 244 q 129 661 64 563 q 311 760 194 760 q 383 747 350 760 q 442 710 415 735 q 492 646 469 685 l 499 646 l 513 746 l 608 746 l 608 175 q 622 106 608 128 q 661 83 636 83 q 683 85 672 83 q 703 90 694 88 l 703 0 q 685 -6 696 -3 q 662 -12 675 -10 q 638 -14 649 -14 q 547 13 581 -14 q 500 103 514 39 l 492 103 q 444 40 472 67 q 382 0 417 14 q 306 -14 347 -14 m 335 86 q 423 115 388 86 q 476 202 458 143 q 493 351 493 261 l 493 371 q 456 588 493 517 q 332 658 418 658 q 218 584 254 658 q 182 369 182 510 q 220 155 182 224 q 335 86 258 86 z "},"β":{"ha":704,"x_min":99,"x_max":640,"o":"m 99 -333 l 99 765 q 131 931 99 865 q 223 1029 164 996 q 360 1063 282 1063 q 493 1031 440 1063 q 572 940 546 999 q 599 803 599 882 q 580 681 599 731 q 526 601 561 631 q 439 563 490 572 l 439 557 q 550 514 506 547 q 617 423 594 481 q 640 281 640 365 q 609 121 640 186 q 521 21 578 56 q 385 -14 464 -14 q 318 -9 347 -14 q 264 7 289 -4 q 214 32 239 18 l 214 -333 l 99 -333 m 365 88 q 485 139 446 88 q 525 292 525 190 q 504 410 525 363 q 445 483 483 458 q 354 508 407 508 l 281 508 l 281 603 l 344 603 q 424 624 393 603 q 469 687 454 644 q 483 790 483 729 q 449 919 483 876 q 357 963 415 963 q 283 942 315 963 q 233 876 251 921 q 214 760 214 832 l 214 138 q 286 101 247 114 q 365 88 325 88 z "},"γ":{"ha":592,"x_min":4,"x_max":546,"o":"m 199 -292 l 199 10 l 4 746 l 122 746 l 228 304 q 245 235 236 269 q 262 169 254 200 q 272 117 269 139 l 278 117 q 365 301 332 204 q 415 509 399 399 q 431 746 431 619 l 546 746 q 523 475 546 601 q 449 233 500 349 q 314 3 397 117 l 314 -292 l 199 -292 z "},"δ":{"ha":671,"x_min":50,"x_max":607,"o":"m 328 -14 q 176 27 239 -14 q 82 140 114 68 q 50 303 50 211 q 76 449 50 383 q 151 564 101 515 q 269 640 200 613 q 200 708 231 674 q 152 780 169 742 q 135 865 135 818 q 163 967 135 922 q 242 1037 190 1011 q 365 1063 294 1063 q 453 1053 414 1063 q 523 1029 493 1043 q 569 1000 553 1015 l 525 906 q 451 948 492 932 q 367 964 410 964 q 299 951 326 964 q 260 915 272 938 q 247 867 247 893 q 263 808 247 836 q 312 749 279 779 q 392 679 344 718 q 515 565 468 622 q 585 446 563 507 q 607 313 607 385 q 573 139 607 213 q 476 26 539 65 q 328 -14 413 -14 m 329 85 q 418 112 382 85 q 473 191 454 139 q 492 314 492 243 q 474 418 492 369 q 424 508 457 467 q 343 582 392 550 q 267 540 300 567 q 213 478 235 514 q 179 400 190 443 q 168 308 168 357 q 188 188 168 238 q 243 111 207 138 q 329 85 279 85 z "},"ε":{"ha":522,"x_min":51,"x_max":489,"o":"m 310 -14 q 114 47 176 -14 q 51 204 51 108 q 69 296 51 258 q 118 356 88 333 q 183 388 149 378 l 183 393 q 103 453 135 410 q 72 563 72 497 q 99 666 72 622 q 176 735 125 710 q 293 760 226 760 q 401 747 353 760 q 489 710 449 733 l 453 614 q 385 647 421 636 q 310 658 349 658 q 215 631 246 658 q 185 549 185 603 q 220 465 185 493 q 319 436 256 436 l 381 436 l 381 342 l 321 342 q 238 328 272 342 q 187 285 204 314 q 169 213 169 257 q 211 118 169 150 q 325 86 253 86 q 403 94 363 86 q 479 125 443 101 l 479 25 q 404 -6 450 3 q 310 -14 358 -14 z "},"ζ":{"ha":500,"x_min":65,"x_max":507,"o":"m 331 -281 q 375 -187 361 -225 q 389 -112 389 -149 q 381 -67 389 -85 q 353 -37 374 -50 q 296 -15 333 -25 q 162 47 213 8 q 88 142 111 86 q 65 274 65 199 q 90 428 65 353 q 160 588 114 504 q 268 776 206 672 l 385 969 q 349 965 372 967 q 297 963 326 964 q 235 961 267 961 l 93 961 l 93 1056 l 507 1056 l 507 983 l 357 733 q 253 541 292 622 q 199 399 215 460 q 183 288 183 339 q 194 208 183 247 q 241 135 204 168 q 358 76 278 101 q 443 40 411 61 q 490 -11 475 19 q 504 -92 504 -42 q 497 -158 504 -125 q 475 -221 489 -190 q 444 -281 461 -251 l 331 -281 z "},"η":{"ha":688,"x_min":99,"x_max":592,"o":"m 476 -333 l 476 482 q 449 615 476 569 q 363 660 421 660 q 276 631 310 660 q 228 541 243 601 q 214 388 214 481 l 214 0 l 99 0 l 99 746 l 192 746 l 206 644 l 213 644 q 258 708 232 682 q 319 747 285 733 q 390 760 353 760 q 503 731 460 760 q 569 644 547 701 q 592 500 592 586 l 592 -333 l 476 -333 z "},"θ":{"ha":683,"x_min":64,"x_max":621,"o":"m 340 -14 q 185 47 247 -14 q 94 229 124 108 q 64 528 64 350 q 94 824 64 706 q 185 1002 124 943 q 342 1061 247 1061 q 498 1003 436 1061 q 590 826 560 944 q 621 529 621 708 q 590 230 621 350 q 499 48 560 110 q 340 -14 438 -14 m 340 83 q 429 124 394 83 q 483 253 464 164 q 504 492 501 343 l 178 492 q 198 255 181 344 q 251 124 215 165 q 340 83 286 83 m 179 586 l 504 586 q 483 799 501 715 q 430 923 465 882 q 342 964 394 964 q 253 924 288 964 q 201 799 219 883 q 179 586 183 715 z "},"ι":{"ha":369,"x_min":97,"x_max":347,"o":"m 267 -14 q 173 11 211 -12 q 116 84 135 35 q 97 207 97 133 l 97 746 l 213 746 l 213 204 q 231 115 213 142 q 285 88 250 88 q 317 91 301 88 q 347 100 332 94 l 347 0 q 312 -10 332 -6 q 267 -14 292 -14 z "},"κ":{"ha":610,"x_min":99,"x_max":603,"o":"m 588 746 l 376 446 l 603 0 l 475 0 l 297 358 l 217 272 l 217 0 l 99 0 l 99 746 l 217 746 l 217 538 q 214 450 217 492 q 208 378 211 408 l 214 378 q 235 415 224 396 q 256 449 246 433 l 458 746 l 588 746 z "},"λ":{"ha":603,"x_min":7,"x_max":599,"o":"m 533 -14 q 469 2 497 -14 q 424 51 442 18 q 392 138 406 85 l 319 408 q 309 450 315 428 q 297 496 303 472 q 287 542 292 519 q 278 582 282 564 l 272 582 q 260 517 269 551 q 243 453 251 483 l 128 0 l 7 0 l 228 738 l 192 858 q 145 940 175 919 q 76 961 115 961 q 43 958 60 961 q 15 953 26 956 l 15 1051 q 38 1057 25 1054 q 64 1061 50 1060 q 92 1063 78 1063 q 182 1044 140 1063 q 256 981 224 1025 q 308 861 289 936 l 496 171 q 513 122 504 140 q 533 95 521 103 q 560 88 544 88 q 581 90 571 88 q 599 94 592 92 l 599 -3 q 580 -8 590 -6 q 558 -12 569 -11 q 533 -14 546 -14 z "},"μ":{"ha":722,"x_min":99,"x_max":699,"o":"m 99 -333 l 99 746 l 214 746 l 214 268 q 242 133 214 179 q 329 88 271 88 q 453 154 418 88 q 489 357 489 221 l 489 746 l 604 746 l 604 175 q 618 106 604 128 q 657 83 632 83 q 679 85 668 83 q 699 90 690 88 l 699 0 q 682 -6 693 -3 q 658 -12 671 -10 q 633 -14 644 -14 q 544 13 578 -14 q 497 103 510 39 l 489 103 q 449 40 472 67 q 395 0 425 14 q 331 -14 365 -14 q 261 3 290 -14 q 213 53 232 19 l 208 53 q 211 6 210 31 q 213 -42 213 -18 q 214 -92 214 -67 l 214 -333 l 99 -333 z "},"ν":{"ha":592,"x_min":4,"x_max":546,"o":"m 200 0 l 4 746 l 122 746 l 228 304 q 245 235 236 269 q 262 169 254 200 q 272 117 269 139 l 278 117 q 365 301 332 204 q 415 509 399 399 q 431 746 431 619 l 546 746 q 522 473 546 600 q 447 230 499 346 q 313 0 396 114 l 200 0 z "},"ξ":{"ha":551,"x_min":65,"x_max":517,"o":"m 340 -281 q 384 -187 369 -225 q 399 -111 399 -150 q 390 -67 399 -85 q 361 -37 382 -50 q 297 -15 340 -25 q 168 44 219 7 q 91 140 117 82 q 65 281 65 199 q 91 416 65 360 q 160 506 117 472 q 251 551 203 540 l 251 558 q 173 593 207 569 q 119 658 139 617 q 99 760 99 699 q 120 855 99 813 q 176 926 142 897 q 251 968 211 954 q 221 965 239 967 q 183 963 203 964 q 142 961 163 961 l 93 961 l 93 1056 l 517 1056 l 517 965 l 458 965 q 360 953 406 965 q 282 918 315 942 q 231 856 249 894 q 213 767 213 818 q 231 682 213 719 q 294 624 249 644 q 414 603 339 603 l 493 603 l 493 508 l 407 508 q 278 481 328 508 q 206 407 229 454 q 183 297 183 360 q 196 208 183 250 q 247 133 208 167 q 364 75 286 99 q 453 38 421 60 q 500 -14 486 17 q 514 -92 514 -44 q 506 -156 514 -124 q 485 -219 499 -189 q 454 -281 471 -250 l 340 -281 z "},"ο":{"ha":685,"x_min":64,"x_max":621,"o":"m 621 374 q 603 214 621 285 q 550 92 585 143 q 463 13 515 40 q 340 -14 410 -14 q 224 13 275 -14 q 136 91 172 40 q 82 213 100 142 q 64 374 64 285 q 95 583 64 497 q 189 715 126 669 q 343 760 251 760 q 492 715 429 760 q 588 585 554 671 q 621 374 621 500 m 182 374 q 199 216 182 281 q 252 119 217 151 q 343 86 288 86 q 434 119 399 86 q 487 216 469 151 q 504 374 504 281 q 487 531 504 468 q 434 627 469 594 q 343 660 399 660 q 220 587 258 660 q 182 374 182 514 z "},"π":{"ha":746,"x_min":24,"x_max":722,"o":"m 626 -11 q 522 35 556 -11 q 488 176 488 82 l 488 651 l 258 651 l 258 0 l 143 0 l 143 651 l 24 651 l 24 746 l 722 746 l 722 651 l 603 651 l 603 181 q 617 110 603 131 q 660 89 632 89 q 687 92 672 89 q 711 100 701 94 l 711 6 q 676 -6 699 -1 q 626 -11 653 -11 z "},"ρ":{"ha":685,"x_min":78,"x_max":622,"o":"m 78 -333 l 78 383 q 108 590 78 506 q 197 717 138 674 q 346 760 257 760 q 497 715 435 760 q 590 583 558 671 q 622 363 622 496 q 590 163 622 247 q 497 32 557 78 q 354 -14 436 -14 q 263 2 304 -14 q 193 47 222 18 l 186 47 q 192 -41 190 7 q 193 -136 193 -89 l 193 -333 l 78 -333 m 346 86 q 435 117 400 86 q 487 210 469 149 q 504 363 504 272 q 464 588 504 517 q 342 660 424 660 q 230 594 267 660 q 193 392 193 529 l 193 146 q 263 101 221 115 q 346 86 304 86 z "},"σ":{"ha":707,"x_min":64,"x_max":671,"o":"m 338 -14 q 190 31 251 -14 q 97 159 129 76 q 64 354 64 242 q 102 575 64 489 q 215 703 140 661 q 399 746 290 746 l 671 746 l 671 651 l 517 651 q 576 565 556 613 q 606 463 597 518 q 615 343 615 407 q 597 200 615 265 q 543 87 579 135 q 456 13 507 39 q 338 -14 404 -14 m 340 85 q 430 117 394 85 q 483 208 465 149 q 500 350 500 268 q 493 460 500 406 q 467 565 486 515 q 414 651 449 614 l 389 651 q 272 620 318 651 q 203 524 225 589 q 181 357 181 460 q 198 211 181 272 q 251 117 215 150 q 340 85 286 85 z "},"τ":{"ha":529,"x_min":24,"x_max":492,"o":"m 358 -15 q 258 8 300 -15 q 194 81 215 31 q 172 214 172 131 l 172 651 l 24 651 l 24 746 l 492 746 l 492 651 l 288 651 l 288 222 q 299 144 288 175 q 331 99 310 113 q 382 85 351 85 q 428 89 404 85 q 471 99 451 93 l 471 6 q 422 -9 454 -3 q 358 -15 389 -15 z "},"υ":{"ha":671,"x_min":94,"x_max":588,"o":"m 313 -12 q 210 3 251 -12 q 142 53 168 19 q 106 140 117 88 q 94 263 94 192 l 94 746 l 210 746 l 210 275 q 216 172 210 214 q 246 109 222 131 q 318 88 269 88 q 404 119 371 88 q 454 216 438 150 q 471 383 471 282 q 461 567 471 482 q 431 746 451 653 l 544 746 q 569 621 560 676 q 583 510 578 565 q 588 383 588 456 q 517 86 588 185 q 313 -12 447 -12 z "},"φ":{"ha":840,"x_min":64,"x_max":778,"o":"m 365 -333 l 365 -10 q 203 46 271 -1 q 100 176 136 93 q 64 374 64 260 q 97 565 64 482 q 197 697 131 647 q 365 756 264 747 l 365 1056 l 478 1056 l 478 756 q 642 695 576 747 q 743 560 708 643 q 778 374 778 478 q 744 185 778 268 q 643 51 710 101 q 478 -10 576 0 l 478 -333 l 365 -333 m 365 85 l 365 661 q 264 619 306 654 q 202 522 222 583 q 182 374 182 460 q 201 231 182 294 q 261 130 221 168 q 365 85 301 92 m 478 85 q 581 131 542 92 q 640 233 621 171 q 660 374 660 296 q 613 576 660 501 q 478 661 565 650 l 478 85 z "},"χ":{"ha":674,"x_min":25,"x_max":667,"o":"m 585 -333 q 511 -319 540 -333 q 461 -271 482 -304 q 419 -182 440 -237 l 147 564 q 113 634 129 613 q 69 656 97 656 q 46 653 57 656 q 25 649 35 651 l 25 743 q 55 751 39 747 q 92 754 71 754 q 160 740 133 754 q 208 696 188 726 q 247 610 228 665 l 517 -126 q 544 -192 532 -168 q 571 -225 556 -215 q 610 -235 586 -235 q 635 -233 622 -235 q 657 -229 647 -231 l 657 -324 q 638 -329 649 -326 q 613 -333 626 -332 q 585 -333 600 -333 m 31 -333 l 311 246 l 357 124 l 147 -333 l 31 -333 m 376 128 l 332 250 l 550 746 l 667 746 l 376 128 z "},"ψ":{"ha":844,"x_min":94,"x_max":761,"o":"m 365 -333 l 365 -12 q 216 26 276 -10 q 125 138 156 63 q 94 333 94 214 l 94 746 l 210 746 l 210 336 q 226 197 210 250 q 277 119 243 144 q 365 88 311 93 l 365 1056 l 478 1056 l 478 89 q 575 128 539 94 q 628 229 611 163 q 644 397 644 296 q 634 569 644 485 q 601 746 624 654 l 715 746 q 750 565 739 650 q 761 396 761 481 q 728 174 761 263 q 633 39 696 85 q 478 -12 569 -7 l 478 -333 l 365 -333 z "},"ω":{"ha":886,"x_min":78,"x_max":808,"o":"m 282 -14 q 167 31 213 -14 q 99 160 121 75 q 78 361 78 244 q 103 573 78 472 q 182 746 129 674 l 294 746 q 240 640 263 701 q 205 508 217 579 q 193 361 193 436 q 217 157 193 225 q 293 89 242 89 q 346 113 325 89 q 377 181 367 136 q 388 289 388 225 l 388 492 l 499 492 l 499 289 q 510 178 499 222 q 542 113 521 135 q 593 89 563 90 q 649 119 626 89 q 682 210 671 150 q 693 361 693 271 q 683 504 693 433 q 649 637 672 575 q 592 746 626 699 l 704 746 q 765 635 742 697 q 798 504 788 574 q 808 361 808 435 q 786 160 808 244 q 717 31 764 75 q 601 -14 671 -14 q 502 20 542 -14 q 444 121 463 54 l 440 121 q 408 46 429 76 q 356 1 388 15 q 282 -14 324 -14 z "},"ϊ":{"ha":369,"x_min":-21,"x_max":347,"o":"m 267 -14 q 173 11 211 -12 q 116 84 135 35 q 97 207 97 133 l 97 746 l 213 746 l 213 204 q 231 115 213 142 q 285 88 250 88 q 317 91 301 88 q 347 100 332 94 l 347 0 q 312 -10 332 -6 q 267 -14 292 -14 m -21 933 q -3 986 -21 969 q 40 1003 14 1003 q 83 985 65 1003 q 100 933 100 968 q 83 879 100 897 q 40 861 65 861 q -3 879 14 861 q -21 933 -21 897 m 215 933 q 233 986 215 969 q 276 1003 251 1003 q 319 985 301 1003 q 338 933 338 968 q 319 879 338 897 q 276 861 301 861 q 233 879 250 861 q 215 933 215 897 z "},"ϋ":{"ha":671,"x_min":94,"x_max":588,"o":"m 313 -12 q 210 3 251 -12 q 142 53 168 19 q 106 140 117 88 q 94 263 94 192 l 94 746 l 210 746 l 210 275 q 216 172 210 214 q 246 109 222 131 q 318 88 269 88 q 404 119 371 88 q 454 216 438 150 q 471 383 471 282 q 461 567 471 482 q 431 746 451 653 l 544 746 q 569 621 560 676 q 583 510 578 565 q 588 383 588 456 q 517 86 588 185 q 313 -12 447 -12 m 136 933 q 153 986 136 969 q 197 1003 171 1003 q 240 985 222 1003 q 257 933 257 968 q 240 879 257 897 q 197 861 222 861 q 153 879 171 861 q 136 933 136 897 m 372 933 q 390 986 372 969 q 433 1003 408 1003 q 476 985 458 1003 q 494 933 494 968 q 476 879 494 897 q 433 861 458 861 q 390 879 407 861 q 372 933 372 897 z "},"ό":{"ha":685,"x_min":64,"x_max":621,"o":"m 621 374 q 603 214 621 285 q 550 92 585 143 q 463 13 515 40 q 340 -14 410 -14 q 224 13 275 -14 q 136 91 172 40 q 82 213 100 142 q 64 374 64 285 q 95 583 64 497 q 189 715 126 669 q 343 760 251 760 q 492 715 429 760 q 588 585 554 671 q 621 374 621 500 m 182 374 q 199 216 182 281 q 252 119 217 151 q 343 86 288 86 q 434 119 399 86 q 487 216 469 151 q 504 374 504 281 q 487 531 504 468 q 434 627 469 594 q 343 660 399 660 q 220 587 258 660 q 182 374 182 514 m 308 842 l 308 857 l 376 1078 l 514 1078 l 514 1065 l 383 842 l 308 842 z "},"ύ":{"ha":671,"x_min":94,"x_max":588,"o":"m 313 -12 q 210 3 251 -12 q 142 53 168 19 q 106 140 117 88 q 94 263 94 192 l 94 746 l 210 746 l 210 275 q 216 172 210 214 q 246 109 222 131 q 318 88 269 88 q 404 119 371 88 q 454 216 438 150 q 471 383 471 282 q 461 567 471 482 q 431 746 451 653 l 544 746 q 569 621 560 676 q 583 510 578 565 q 588 383 588 456 q 517 86 588 185 q 313 -12 447 -12 m 282 842 l 282 857 l 350 1078 l 488 1078 l 488 1065 l 357 842 l 282 842 z "},"ώ":{"ha":886,"x_min":78,"x_max":808,"o":"m 282 -14 q 167 31 213 -14 q 99 160 121 75 q 78 361 78 244 q 103 573 78 472 q 182 746 129 674 l 294 746 q 240 640 263 701 q 205 508 217 579 q 193 361 193 436 q 217 157 193 225 q 293 89 242 89 q 346 113 325 89 q 377 181 367 136 q 388 289 388 225 l 388 492 l 499 492 l 499 289 q 510 178 499 222 q 542 113 521 135 q 593 89 563 90 q 649 119 626 89 q 682 210 671 150 q 693 361 693 271 q 683 504 693 433 q 649 637 672 575 q 592 746 626 699 l 704 746 q 765 635 742 697 q 798 504 788 574 q 808 361 808 435 q 786 160 808 244 q 717 31 764 75 q 601 -14 671 -14 q 502 20 542 -14 q 444 121 463 54 l 440 121 q 408 46 429 76 q 356 1 388 15 q 282 -14 324 -14 m 411 842 l 411 857 l 479 1078 l 617 1078 l 617 1065 l 486 842 l 411 842 z "},"Ё":{"ha":622,"x_min":111,"x_max":554,"o":"m 111 0 l 111 992 l 554 992 l 554 886 l 231 886 l 231 571 l 535 571 l 535 465 l 231 465 l 231 107 l 554 107 l 554 0 l 111 0 m 231 1099 q 185 1119 201 1099 q 168 1175 168 1139 q 185 1233 168 1214 q 231 1253 201 1253 q 276 1233 260 1253 q 293 1175 293 1214 q 276 1119 293 1139 q 231 1099 260 1099 m 440 1099 q 395 1119 411 1099 q 379 1175 379 1139 q 396 1233 379 1214 q 442 1253 413 1253 q 488 1233 472 1253 q 504 1175 504 1214 q 488 1118 504 1138 q 440 1099 471 1099 z "},"Ђ":{"ha":810,"x_min":14,"x_max":754,"o":"m 507 -18 q 453 -13 479 -18 q 410 -3 426 -8 l 410 100 q 450 90 431 93 q 489 88 469 88 q 597 138 561 88 q 632 290 632 189 l 632 294 q 590 447 632 397 q 458 496 547 496 q 372 485 418 496 q 283 453 326 475 l 319 525 l 319 0 l 201 0 l 201 885 l 14 885 l 14 992 l 585 992 l 585 885 l 319 885 l 319 540 l 281 560 q 376 592 328 582 q 475 603 425 603 q 683 525 611 603 q 754 297 754 447 l 754 292 q 724 125 754 194 q 638 19 693 56 q 507 -18 582 -18 z "},"Ѓ":{"ha":582,"x_min":111,"x_max":547,"o":"m 111 0 l 111 992 l 547 992 l 547 885 l 231 885 l 231 0 l 111 0 m 276 1072 l 276 1088 l 404 1294 l 538 1294 l 538 1281 l 351 1072 l 276 1072 z "},"Є":{"ha":710,"x_min":74,"x_max":668,"o":"m 450 -14 q 244 47 328 -14 q 117 219 160 107 q 74 489 74 331 q 119 767 74 651 q 252 945 165 883 q 458 1007 339 1007 q 565 995 511 1007 q 668 958 618 983 l 628 857 q 542 889 583 878 q 461 900 500 900 q 322 855 381 900 q 232 723 264 810 q 197 511 200 636 l 146 563 l 553 563 l 553 456 l 143 456 l 197 507 q 226 281 196 372 q 317 141 257 189 q 467 93 378 93 q 553 103 508 93 q 644 138 599 114 l 644 28 q 551 -3 603 7 q 450 -14 499 -14 z "},"Ѕ":{"ha":631,"x_min":60,"x_max":575,"o":"m 276 -15 q 197 -10 236 -15 q 122 6 157 -4 q 60 28 86 15 l 60 144 q 161 108 106 122 q 272 93 217 93 q 376 114 336 93 q 435 173 417 135 q 454 258 454 211 q 433 349 454 314 q 372 410 411 385 q 276 460 332 435 q 196 504 233 481 q 129 560 158 528 q 83 638 100 593 q 67 747 67 683 q 101 885 67 826 q 198 975 136 943 q 340 1007 260 1007 q 463 992 407 1007 q 563 957 519 978 l 525 853 q 438 886 483 874 q 346 899 392 899 q 259 881 294 899 q 206 829 224 863 q 188 750 188 796 q 209 660 188 694 q 269 599 231 625 q 361 549 308 574 q 468 487 419 521 q 546 401 517 453 q 575 267 575 349 q 540 118 575 182 q 438 19 504 54 q 276 -15 371 -15 z "},"І":{"ha":342,"x_min":111,"x_max":231,"o":"m 111 0 l 111 992 l 231 992 l 231 0 l 111 0 z "},"Ї":{"ha":349,"x_min":29,"x_max":319,"o":"m 114 0 l 114 992 l 233 992 l 233 0 l 114 0 m 92 1097 q 47 1118 64 1097 q 29 1175 29 1139 q 47 1233 29 1214 q 92 1253 64 1253 q 138 1233 121 1253 q 156 1175 156 1214 q 138 1118 156 1139 q 92 1097 121 1097 m 257 1097 q 211 1117 228 1097 q 194 1175 194 1138 q 211 1233 194 1214 q 258 1253 228 1253 q 303 1233 288 1253 q 319 1175 319 1214 q 303 1117 319 1138 q 257 1097 286 1097 z "},"Ј":{"ha":332,"x_min":-81,"x_max":225,"o":"m 14 -267 q -37 -263 -14 -267 q -81 -251 -61 -260 l -81 -146 q -40 -156 -61 -151 q 4 -160 -19 -160 q 59 -144 36 -160 q 94 -92 82 -128 q 107 7 107 -56 l 107 992 l 225 992 l 225 4 q 200 -153 225 -93 q 128 -240 175 -212 q 14 -267 81 -267 z "},"Љ":{"ha":1122,"x_min":0,"x_max":1074,"o":"m 75 -15 q 37 -12 56 -15 q 0 -1 18 -8 l 0 108 q 27 101 15 104 q 54 99 39 99 q 106 114 86 99 q 138 165 126 129 q 153 260 149 200 q 165 409 160 338 q 174 560 169 481 q 183 743 178 639 q 194 992 189 847 l 664 992 l 664 607 l 761 607 q 995 533 917 607 q 1074 311 1074 458 q 994 81 1074 163 q 764 0 914 0 l 544 0 l 544 885 l 303 885 q 293 694 297 779 q 285 535 289 608 q 275 391 281 461 q 264 246 269 321 q 235 99 256 157 q 175 13 214 42 q 75 -15 136 -15 m 664 104 l 763 104 q 903 156 856 104 q 951 310 951 208 q 904 456 951 408 q 761 504 857 504 l 664 504 l 664 104 z "},"Њ":{"ha":1129,"x_min":111,"x_max":1081,"o":"m 111 0 l 111 992 l 231 992 l 231 588 l 553 588 l 553 992 l 671 992 l 671 588 l 767 588 q 1001 514 921 588 q 1081 299 1081 440 q 1000 78 1081 157 q 769 0 919 0 l 553 0 l 553 483 l 231 483 l 231 0 l 111 0 m 671 104 l 768 104 q 910 153 863 104 q 957 296 957 203 q 910 438 957 392 q 767 483 863 483 l 671 483 l 671 104 z "},"Ћ":{"ha":828,"x_min":14,"x_max":747,"o":"m 201 0 l 201 885 l 14 885 l 14 992 l 585 992 l 585 885 l 319 885 l 319 519 l 286 563 q 393 593 344 583 q 489 603 442 603 q 684 537 621 603 q 747 336 747 471 l 747 0 l 629 0 l 629 322 q 591 455 629 414 q 468 496 553 496 q 379 486 424 496 q 283 454 335 476 l 319 522 l 319 0 l 201 0 z "},"Ќ":{"ha":693,"x_min":111,"x_max":693,"o":"m 560 0 l 300 500 l 300 526 l 546 992 l 672 992 l 410 506 l 410 540 l 693 0 l 560 0 m 111 0 l 111 992 l 229 992 l 229 0 l 111 0 m 207 465 l 207 572 l 392 572 l 392 465 l 207 465 m 325 1060 l 325 1075 l 453 1282 l 586 1282 l 586 1268 l 400 1060 l 325 1060 z "},"Ў":{"ha":644,"x_min":7,"x_max":644,"o":"m 147 -14 q 105 -10 125 -14 q 65 -1 85 -7 l 65 108 q 97 101 82 104 q 129 99 111 99 q 199 119 171 99 q 249 194 226 140 q 300 343 272 247 l 294 226 l 7 992 l 135 992 l 306 525 q 316 492 311 510 q 326 454 321 474 q 338 411 332 435 l 344 411 q 352 450 349 432 q 360 485 356 468 q 369 519 365 503 l 519 992 l 644 992 l 407 281 q 337 109 372 174 q 257 15 301 44 q 147 -14 213 -14 m 338 1065 q 203 1110 253 1065 q 146 1239 154 1154 l 247 1239 q 275 1167 253 1190 q 339 1144 297 1144 q 402 1168 381 1144 q 429 1239 424 1192 l 531 1239 q 473 1110 522 1154 q 338 1065 424 1065 z "},"Џ":{"ha":813,"x_min":111,"x_max":700,"o":"m 349 -204 l 349 0 l 111 0 l 111 992 l 231 992 l 231 107 l 582 107 l 582 992 l 700 992 l 700 0 l 464 0 l 464 -204 l 349 -204 z "},"А":{"ha":703,"x_min":0,"x_max":703,"o":"m 578 0 l 492 308 l 211 308 l 125 0 l 0 0 l 285 993 l 417 993 l 703 0 l 578 0 m 381 736 q 369 783 376 757 q 358 835 363 808 q 349 881 353 861 q 341 832 346 857 q 331 783 336 807 q 319 736 325 760 l 236 418 l 465 418 l 381 736 z "},"Б":{"ha":703,"x_min":111,"x_max":649,"o":"m 111 0 l 111 992 l 585 992 l 585 885 l 231 885 l 231 589 l 331 589 q 568 517 488 589 q 649 299 649 444 q 568 78 649 156 q 336 0 488 0 l 111 0 m 231 104 l 332 104 q 478 151 431 104 q 526 297 526 199 q 479 440 526 394 q 331 485 432 485 l 231 485 l 231 104 z "},"В":{"ha":736,"x_min":111,"x_max":675,"o":"m 111 0 l 111 992 l 351 992 q 575 933 499 992 q 651 751 651 875 q 633 642 651 689 q 581 566 615 596 q 494 525 546 536 l 494 519 q 593 479 553 508 q 654 402 633 450 q 675 283 675 354 q 642 133 675 197 q 547 35 610 69 q 394 0 485 0 l 111 0 m 231 101 l 378 101 q 509 150 468 101 q 550 290 550 199 q 530 387 550 347 q 469 447 510 426 q 365 467 428 467 l 231 467 l 231 101 m 231 568 l 357 568 q 489 611 450 568 q 528 739 528 654 q 484 853 528 815 q 350 890 440 890 l 231 890 l 231 568 z "},"Г":{"ha":572,"x_min":111,"x_max":547,"o":"m 111 0 l 111 992 l 547 992 l 547 885 l 231 885 l 231 0 l 111 0 z "}}}
